# Blender 4.0.2
# www.blender.org
mtllib Pedestal.mtl
o Pedestal_Cube.002
v -0.800000 3.891837 0.800000
v -0.800000 3.891837 -0.800000
v 0.800000 3.891837 0.800000
v 0.800000 3.891837 -0.800000
v -0.720572 4.191837 0.720572
v -0.800000 4.112410 0.800000
v -0.776736 4.168573 0.776736
v -0.720572 4.191837 -0.720572
v -0.800000 4.112410 -0.800000
v -0.776736 4.168573 -0.776736
v 0.720572 4.191837 0.720572
v 0.800000 4.112410 0.800000
v 0.776736 4.168573 0.776736
v 0.720572 4.191837 -0.720572
v 0.800000 4.112410 -0.800000
v 0.776736 4.168573 -0.776736
v -1.000000 -0.000000 -0.600000
v -1.000000 0.000000 0.600000
v -0.412662 4.000000 0.247597
v -0.412662 4.000000 -0.247597
v 1.000000 0.000000 0.600000
v 1.000000 -0.000000 -0.600000
v 0.412662 4.000000 -0.247597
v 0.412662 4.000000 0.247597
v 0.600000 -0.000000 -1.000000
v -0.600000 -0.000000 -1.000000
v -0.247597 4.000000 -0.412662
v 0.247597 4.000000 -0.412662
v -0.600000 0.000000 1.000000
v 0.600000 0.000000 1.000000
v 0.247597 4.000000 0.412662
v -0.247597 4.000000 0.412662
v -1.271536 0.000000 0.600000
v -1.192005 0.000000 1.192005
v -0.678103 4.000000 0.678103
v -0.651681 4.000000 -0.307509
v -0.678103 4.000000 -0.678103
v -1.192005 -0.000000 -1.192005
v -0.600000 -0.000000 -1.271536
v 0.307509 4.000000 -0.651681
v 0.678103 4.000000 -0.678103
v 1.192005 -0.000000 -1.192005
v 1.271536 -0.000000 -0.600000
v 0.651681 4.000000 0.307509
v 0.678103 4.000000 0.678103
v 1.192005 0.000000 1.192005
v 0.600000 0.000000 1.271536
v -0.307509 4.000000 0.651681
v -1.271536 -0.000000 -0.600000
v -0.651681 4.000000 0.307509
v 1.271536 0.000000 0.600000
v 0.651681 4.000000 -0.307509
v 0.600000 -0.000000 -1.271536
v -0.307509 4.000000 -0.651681
v -0.600000 0.000000 1.271536
v 0.307509 4.000000 0.651681
v 0.734471 3.265529 -0.440683
v 0.930193 2.139614 -0.558116
v 0.999828 1.000517 -0.599897
v 0.734471 3.265529 0.440683
v 0.930193 2.139614 0.558116
v 0.999828 1.000517 0.599897
v -0.734471 3.265529 0.440683
v -0.930193 2.139614 0.558116
v -0.999828 1.000517 0.599897
v -0.734471 3.265529 -0.440683
v -0.930193 2.139614 -0.558116
v -0.999828 1.000517 -0.599897
v 0.440683 3.265529 0.734471
v 0.558116 2.139614 0.930193
v 0.599897 1.000517 0.999828
v -0.440683 3.265529 0.734471
v -0.558116 2.139614 0.930193
v -0.599897 1.000517 0.999828
v -0.440683 3.265529 -0.734471
v -0.558116 2.139614 -0.930193
v -0.599897 1.000517 -0.999828
v 0.440683 3.265529 -0.734471
v 0.558116 2.139614 -0.930193
v 0.599897 1.000517 -0.999828
v -1.192005 1.000000 1.192005
v -1.137551 2.091365 1.137551
v -0.995777 3.164620 0.995777
v -0.995777 3.164620 -0.995777
v -1.137551 2.091365 -1.137551
v -1.192005 1.000000 -1.192005
v 0.995777 3.164620 -0.995777
v 1.137551 2.091365 -1.137551
v 1.192005 1.000000 -1.192005
v 0.995777 3.164620 0.995777
v 1.137551 2.091365 1.137551
v 1.192005 1.000000 1.192005
v 0.945716 3.256241 -0.446255
v 1.188778 2.130170 -0.560949
v 1.271515 1.000049 -0.599990
v 0.945716 3.256241 0.446255
v 1.188778 2.130170 0.560949
v 1.271515 1.000049 0.599990
v -0.945716 3.256241 0.446255
v -1.188778 2.130170 0.560949
v -1.271515 1.000049 0.599990
v -0.945716 3.256241 -0.446255
v -1.188778 2.130170 -0.560949
v -1.271515 1.000049 -0.599990
v 0.446255 3.256241 0.945716
v 0.560949 2.130170 1.188778
v 0.599990 1.000049 1.271515
v -0.446255 3.256241 0.945716
v -0.560949 2.130170 1.188778
v -0.599990 1.000049 1.271515
v -0.446255 3.256241 -0.945716
v -0.560949 2.130170 -1.188778
v -0.599990 1.000049 -1.271515
v 0.446255 3.256241 -0.945716
v 0.560949 2.130170 -1.188778
v 0.599990 1.000049 -1.271515
vn -0.0000 1.0000 -0.0000
vn 1.0000 -0.0000 -0.0000
vn -1.0000 -0.0000 -0.0000
vn -0.0000 -1.0000 -0.0000
vn -0.0000 -0.0000 -1.0000
vn -0.3827 0.9239 -0.0000
vn -0.9239 0.3827 -0.0000
vn -0.0000 0.9239 -0.3827
vn -0.0000 0.3827 -0.9239
vn 0.3827 0.9239 -0.0000
vn 0.9239 0.3827 -0.0000
vn -0.0000 0.9239 0.3827
vn -0.0000 0.3827 0.9239
vn -0.0000 -0.0000 1.0000
vn -1.0000 -0.0001 0.0002
vn -0.0002 -0.0001 -1.0000
vn 0.9159 0.4013 -0.0000
vn 0.1388 -0.1615 -0.9771
vn -0.9159 0.4013 -0.0000
vn -0.0000 0.4013 0.9159
vn -0.0000 0.4013 -0.9159
vn -0.9357 0.3501 0.0429
vn -0.0429 0.3501 -0.9357
vn 0.9357 0.3501 -0.0429
vn 0.0429 0.3501 0.9357
vn 0.9357 0.3501 0.0429
vn -0.9357 0.3501 -0.0429
vn -0.0429 0.3501 0.9357
vn 0.0429 0.3501 -0.9357
vn -0.1388 -0.1615 0.9771
vn 0.9771 -0.1615 0.1388
vn 1.0000 -0.0001 -0.0002
vn -0.9771 -0.1615 -0.1388
vn 0.0002 -0.0001 1.0000
vn 0.1388 -0.1615 0.9771
vn 0.0138 -0.0999 0.9949
vn 0.0049 -0.0353 0.9994
vn -1.0000 -0.0001 -0.0002
vn -0.9994 -0.0353 -0.0049
vn -0.9949 -0.0999 -0.0138
vn 0.9771 -0.1615 -0.1388
vn 0.9949 -0.0999 -0.0138
vn 0.9994 -0.0353 -0.0049
vn 1.0000 -0.0001 0.0002
vn 0.9994 -0.0353 0.0049
vn 0.9949 -0.0999 0.0138
vn -0.0002 -0.0001 1.0000
vn -0.0049 -0.0353 0.9994
vn -0.0138 -0.0999 0.9949
vn -0.1331 -0.0000 -0.9911
vn -0.1131 0.0660 -0.9914
vn -0.0213 0.1747 -0.9844
vn 0.1331 -0.0000 0.9911
vn 0.1131 0.0660 0.9914
vn 0.0213 0.1747 0.9844
vn -0.9911 -0.0000 0.1331
vn -0.9914 0.0660 0.1131
vn -0.9844 0.1747 0.0213
vn 0.9911 -0.0000 -0.1331
vn 0.9914 0.0660 -0.1131
vn 0.9844 0.1747 -0.0213
vn -0.1331 -0.0000 0.9911
vn -0.1131 0.0660 0.9914
vn -0.0213 0.1747 0.9844
vn 0.9911 -0.0000 0.1331
vn 0.9914 0.0660 0.1131
vn 0.9844 0.1747 0.0213
vn 0.1331 -0.0000 -0.9911
vn 0.1131 0.0660 -0.9914
vn 0.0213 0.1747 -0.9844
vn -0.9911 -0.0000 -0.1331
vn -0.9914 0.0660 -0.1131
vn -0.9844 0.1747 -0.0213
vn -0.0000 0.0002 -1.0000
vn -0.0000 0.0610 -0.9981
vn -0.0000 0.1713 -0.9852
vn -0.0000 0.0002 1.0000
vn -0.0000 0.0610 0.9981
vn -0.0000 0.1713 0.9852
vn -1.0000 0.0002 -0.0000
vn -0.9981 0.0610 -0.0000
vn -0.9852 0.1713 -0.0000
vn 0.0002 -0.0001 -1.0000
vn 0.0049 -0.0353 -0.9994
vn 0.0138 -0.0999 -0.9949
vn 1.0000 0.0002 -0.0000
vn 0.9981 0.0610 -0.0000
vn 0.9852 0.1713 -0.0000
vn -0.1388 -0.1615 -0.9771
vn -0.0138 -0.0999 -0.9949
vn -0.0049 -0.0353 -0.9994
vn -0.9771 -0.1615 0.1388
vn -0.9949 -0.0999 0.0138
vn -0.9994 -0.0353 0.0049
vt 0.579006 0.399564
vt 0.938488 0.399564
vt 0.938488 0.759046
vt 0.579006 0.759046
vt 0.198254 0.077599
vt 0.229057 0.122250
vt 0.059972 0.414518
vt 0.000152 0.406570
vt 0.126965 0.808012
vt 0.177024 0.764627
vt 0.578007 0.935361
vt 0.549889 0.999848
vt 0.579006 0.000152
vt 0.978114 0.000152
vt 0.978114 0.399260
vt 0.579006 0.399260
vt 0.568025 0.000152
vt 0.578702 0.051128
vt 0.202919 0.740440
vt 0.569830 0.890913
vt 0.578702 0.915132
vt 0.189733 0.752573
vt 0.566140 0.083473
vt 0.246595 0.146420
vt 0.238255 0.134431
vt 0.575938 0.067541
vt 0.092281 0.417493
vt 0.076448 0.415708
vt 0.163173 0.170636
vt 0.079596 0.144567
vt 0.094178 0.098715
vt 0.176340 0.125522
vt 0.103696 0.632259
vt 0.019167 0.652003
vt 0.009273 0.604221
vt 0.092407 0.589374
vt 0.734851 0.592372
vt 0.825292 0.591035
vt 0.857235 0.671148
vt 0.790048 0.736872
vt 0.858173 0.714157
vt 0.794667 0.773536
vt 0.292271 0.592374
vt 0.382712 0.591037
vt 0.414655 0.671150
vt 0.347468 0.736874
vt 0.348421 0.259738
vt 0.415052 0.324582
vt 0.383046 0.404618
vt 0.291391 0.404095
vt 0.791000 0.259736
vt 0.857632 0.324579
vt 0.825626 0.404615
vt 0.733971 0.404092
vt 0.352088 0.773538
vt 0.415593 0.714159
vt 0.442447 0.775176
vt 0.381954 0.866191
vt 0.713207 0.431390
vt 0.796313 0.435789
vt 0.768937 0.498287
vt 0.674682 0.498491
vt 0.885026 0.775174
vt 0.824533 0.866190
vt 0.270627 0.431392
vt 0.353733 0.435791
vt 0.326357 0.498290
vt 0.232103 0.498494
vt 0.796320 0.560485
vt 0.713761 0.565305
vt 0.353740 0.560487
vt 0.271181 0.565307
vt 0.381134 0.130306
vt 0.442447 0.220838
vt 0.415946 0.281887
vt 0.352529 0.223186
vt 0.823713 0.130303
vt 0.885026 0.220835
vt 0.858525 0.281884
vt 0.795108 0.223184
vt 0.605753 0.170634
vt 0.522176 0.144566
vt 0.536758 0.098715
vt 0.618919 0.125520
vt 0.546275 0.632257
vt 0.461746 0.652000
vt 0.451852 0.604218
vt 0.534987 0.589371
vt 0.637924 0.612286
vt 0.620882 0.576467
vt 0.461410 0.345632
vt 0.546088 0.365275
vt 0.534828 0.408172
vt 0.451613 0.393472
vt 0.637500 0.385252
vt 0.620622 0.420960
vt 0.698215 0.207551
vt 0.707231 0.164300
vt 0.018830 0.345634
vt 0.103508 0.365277
vt 0.092248 0.408174
vt 0.009033 0.393474
vt 0.194920 0.385254
vt 0.178042 0.420962
vt 0.080086 0.855556
vt 0.163815 0.828625
vt 0.177472 0.873632
vt 0.095310 0.901470
vt 0.255877 0.790601
vt 0.265378 0.833698
vt 0.570813 0.000133
vt 0.653332 0.028639
vt 0.741104 0.070267
vt 0.128235 0.000133
vt 0.210754 0.028641
vt 0.298526 0.070270
vt 0.264652 0.164302
vt 0.000133 0.498862
vt 0.080432 0.498771
vt 0.158015 0.498679
vt 0.178302 0.576469
vt 0.442713 0.498859
vt 0.523012 0.498769
vt 0.600595 0.498676
vt 0.537889 0.901468
vt 0.620050 0.873630
vt 0.655733 0.970167
vt 0.573368 0.999865
vt 0.707957 0.833696
vt 0.742983 0.927242
vt 0.213154 0.970169
vt 0.130789 0.999867
vt 0.300405 0.927244
vt 0.255635 0.207554
vt 0.195345 0.612288
vt 0.522665 0.855554
vt 0.606394 0.828623
vt 0.698457 0.790600
s 0
usemtl None
f 14/1/1 8/2/1 5/3/1 11/4/1
f 4/5/2 15/6/2 12/7/2 3/8/2
f 1/9/3 6/10/3 9/11/3 2/12/3
f 2/13/4 4/14/4 3/15/4 1/16/4
f 2/17/5 9/18/5 15/6/5 4/5/5
f 5/19/6 8/20/6 10/21/6 7/22/6
f 7/22/7 10/21/7 9/11/7 6/10/7
f 8/23/8 14/24/8 16/25/8 10/26/8
f 10/26/9 16/25/9 15/6/9 9/18/9
f 14/24/10 11/27/10 13/28/10 16/25/10
f 16/25/11 13/28/11 12/7/11 15/6/11
f 11/27/12 5/19/12 7/22/12 13/28/12
f 13/28/13 7/22/13 6/10/13 12/7/13
f 3/8/14 12/7/14 6/10/14 1/9/14
f 71/29/15 30/30/15 47/31/15 107/32/15
f 65/33/16 18/34/16 33/35/16 101/36/16
f 57/37/17 23/38/17 24/39/17 60/40/17
f 60/40/18 24/39/18 44/41/18 96/42/18
f 63/43/19 19/44/19 20/45/19 66/46/19
f 69/47/20 31/48/20 32/49/20 72/50/20
f 75/51/21 27/52/21 28/53/21 78/54/21
f 102/55/22 36/56/22 37/57/22 84/58/22
f 114/59/23 40/60/23 41/61/23 87/62/23
f 96/42/24 44/41/24 45/63/24 90/64/24
f 108/65/25 48/66/25 35/67/25 83/68/25
f 87/62/26 41/61/26 52/69/26 93/70/26
f 83/68/27 35/67/27 50/71/27 99/72/27
f 90/73/28 45/74/28 56/75/28 105/76/28
f 84/77/29 37/78/29 54/79/29 111/80/29
f 66/46/30 20/45/30 36/56/30 102/55/30
f 72/50/31 32/49/31 48/66/31 108/65/31
f 77/81/32 26/82/32 39/83/32 113/84/32
f 78/54/33 28/53/33 40/60/33 114/59/33
f 59/85/34 22/86/34 43/87/34 95/88/34
f 23/38/35 57/37/35 93/70/35 52/69/35
f 57/37/36 58/89/36 94/90/36 93/70/36
f 58/89/37 59/85/37 95/88/37 94/90/37
f 25/91/38 80/92/38 116/93/38 53/94/38
f 80/92/39 79/95/39 115/96/39 116/93/39
f 79/95/40 78/54/40 114/59/40 115/96/40
f 27/52/41 75/51/41 111/80/41 54/79/41
f 75/51/42 76/97/42 112/98/42 111/80/42
f 76/97/43 77/81/43 113/84/43 112/98/43
f 29/99/44 74/100/44 110/101/44 55/102/44
f 74/100/45 73/103/45 109/104/45 110/101/45
f 73/103/46 72/50/46 108/65/46 109/104/46
f 17/105/47 68/106/47 104/107/47 49/108/47
f 68/106/48 67/109/48 103/110/48 104/107/48
f 67/109/49 66/46/49 102/55/49 103/110/49
f 38/111/50 86/112/50 113/84/50 39/83/50
f 86/112/51 85/113/51 112/98/51 113/84/51
f 85/113/52 84/77/52 111/80/52 112/98/52
f 46/114/53 92/115/53 107/32/53 47/31/53
f 92/115/54 91/116/54 106/117/54 107/32/54
f 91/116/55 90/73/55 105/76/55 106/117/55
f 34/118/56 81/119/56 101/36/56 33/35/56
f 81/119/57 82/120/57 100/121/57 101/36/57
f 82/120/58 83/68/58 99/72/58 100/121/58
f 42/122/59 89/123/59 95/88/59 43/87/59
f 89/123/60 88/124/60 94/90/60 95/88/60
f 88/124/61 87/62/61 93/70/61 94/90/61
f 55/102/62 110/101/62 81/119/62 34/118/62
f 110/101/63 109/104/63 82/120/63 81/119/63
f 109/104/64 108/65/64 83/68/64 82/120/64
f 51/125/65 98/126/65 92/127/65 46/128/65
f 98/126/66 97/129/66 91/130/66 92/127/66
f 97/129/67 96/42/67 90/64/67 91/130/67
f 53/94/68 116/93/68 89/123/68 42/122/68
f 116/93/69 115/96/69 88/124/69 89/123/69
f 115/96/70 114/59/70 87/62/70 88/124/70
f 49/108/71 104/107/71 86/131/71 38/132/71
f 104/107/72 103/110/72 85/133/72 86/131/72
f 103/110/73 102/55/73 84/58/73 85/133/73
f 26/82/74 77/81/74 80/92/74 25/91/74
f 77/81/75 76/97/75 79/95/75 80/92/75
f 76/97/76 75/51/76 78/54/76 79/95/76
f 30/30/77 71/29/77 74/100/77 29/99/77
f 71/29/78 70/134/78 73/103/78 74/100/78
f 70/134/79 69/47/79 72/50/79 73/103/79
f 18/34/80 65/33/80 68/106/80 17/105/80
f 65/33/81 64/135/81 67/109/81 68/106/81
f 64/135/82 63/43/82 66/46/82 67/109/82
f 21/136/83 62/137/83 98/126/83 51/125/83
f 62/137/84 61/138/84 97/129/84 98/126/84
f 61/138/85 60/40/85 96/42/85 97/129/85
f 22/86/86 59/85/86 62/137/86 21/136/86
f 59/85/87 58/89/87 61/138/87 62/137/87
f 58/89/88 57/37/88 60/40/88 61/138/88
f 19/44/89 63/43/89 99/72/89 50/71/89
f 63/43/90 64/135/90 100/121/90 99/72/90
f 64/135/91 65/33/91 101/36/91 100/121/91
f 31/48/92 69/47/92 105/76/92 56/75/92
f 69/47/93 70/134/93 106/117/93 105/76/93
f 70/134/94 71/29/94 107/32/94 106/117/94
