# Blender 4.2.1 LTS
# www.blender.org
mtllib sword.mtl
o Blade
v 0.034726 0.347004 -0.010725
v 0.034726 0.347004 -0.010725
v 0.034726 0.347004 -0.010725
v 0.026833 0.412779 -0.010725
v 0.026833 0.412779 -0.010725
v 0.026833 0.412779 -0.010725
v 0.018392 0.487872 -0.010725
v 0.018392 0.487872 -0.010725
v 0.018392 0.487872 -0.010725
v 0.014446 0.534353 -0.010725
v 0.014446 0.534353 -0.010725
v 0.014446 0.534353 -0.010725
v 0.012034 0.589385 -0.010725
v 0.012034 0.589385 -0.010725
v 0.012034 0.589385 -0.010725
v 0.010499 0.658121 -0.010725
v 0.010499 0.658121 -0.010725
v 0.010499 0.658121 -0.010725
v 0.010280 0.741765 -0.010725
v 0.010280 0.741765 -0.010725
v 0.010280 0.741765 -0.010725
v 0.010106 0.806005 -0.010725
v 0.010106 0.806005 -0.010725
v 0.010106 0.806005 -0.010725
v 0.010938 0.863339 -0.010725
v 0.010938 0.863339 -0.010725
v 0.010938 0.863339 -0.010725
v 0.011047 0.918481 -0.010725
v 0.011047 0.918481 -0.010725
v 0.011047 0.918481 -0.010725
v 0.011267 0.981954 -0.010725
v 0.011267 0.981954 -0.010725
v 0.011267 0.981954 -0.010725
v 0.010938 1.010128 -0.010725
v 0.010938 1.010128 -0.010725
v 0.010938 1.010128 -0.010725
v 0.000000 1.025964 -0.010725
v 0.000000 1.025964 -0.010725
v 0.000000 1.025964 -0.010725
v 0.000000 1.025964 -0.010725
v 0.000000 1.025964 -0.010725
v 0.000000 0.283000 -0.010725
v 0.000000 0.283000 -0.010725
v 0.000000 0.283000 -0.010725
v -0.034726 0.347004 -0.010725
v -0.034726 0.347004 -0.010725
v -0.034726 0.347004 -0.010725
v -0.026833 0.412779 -0.010725
v -0.026833 0.412779 -0.010725
v -0.026833 0.412779 -0.010725
v -0.018392 0.487872 -0.010725
v -0.018392 0.487872 -0.010725
v -0.018392 0.487872 -0.010725
v -0.014446 0.534353 -0.010725
v -0.014446 0.534353 -0.010725
v -0.014446 0.534353 -0.010725
v -0.012034 0.589385 -0.010725
v -0.012034 0.589385 -0.010725
v -0.012034 0.589385 -0.010725
v -0.010499 0.658121 -0.010725
v -0.010499 0.658121 -0.010725
v -0.010499 0.658121 -0.010725
v -0.010280 0.741765 -0.010725
v -0.010280 0.741765 -0.010725
v -0.010280 0.741765 -0.010725
v -0.010106 0.806005 -0.010725
v -0.010106 0.806005 -0.010725
v -0.010106 0.806005 -0.010725
v -0.010938 0.863339 -0.010725
v -0.010938 0.863339 -0.010725
v -0.010938 0.863339 -0.010725
v -0.011047 0.918481 -0.010725
v -0.011047 0.918481 -0.010725
v -0.011047 0.918481 -0.010725
v -0.011266 0.981954 -0.010725
v -0.011266 0.981954 -0.010725
v -0.011266 0.981954 -0.010725
v -0.010938 1.010128 -0.010725
v -0.010938 1.010128 -0.010725
v -0.010938 1.010128 -0.010725
v 0.034726 0.347004 0.010725
v 0.034726 0.347004 0.010725
v 0.034726 0.347004 0.010725
v 0.026833 0.412779 0.010725
v 0.026833 0.412779 0.010725
v 0.026833 0.412779 0.010725
v 0.018392 0.487872 0.010725
v 0.018392 0.487872 0.010725
v 0.018392 0.487872 0.010725
v 0.014446 0.534353 0.010725
v 0.014446 0.534353 0.010725
v 0.014446 0.534353 0.010725
v 0.012034 0.589385 0.010725
v 0.012034 0.589385 0.010725
v 0.012034 0.589385 0.010725
v 0.010499 0.658121 0.010725
v 0.010499 0.658121 0.010725
v 0.010499 0.658121 0.010725
v 0.010280 0.741765 0.010725
v 0.010280 0.741765 0.010725
v 0.010280 0.741765 0.010725
v 0.010106 0.806005 0.010725
v 0.010106 0.806005 0.010725
v 0.010106 0.806005 0.010725
v 0.010938 0.863339 0.010725
v 0.010938 0.863339 0.010725
v 0.010938 0.863339 0.010725
v 0.011047 0.918481 0.010725
v 0.011047 0.918481 0.010725
v 0.011047 0.918481 0.010725
v 0.011267 0.981954 0.010725
v 0.011267 0.981954 0.010725
v 0.011267 0.981954 0.010725
v 0.010938 1.010128 0.010725
v 0.010938 1.010128 0.010725
v 0.010938 1.010128 0.010725
v 0.000000 1.025964 0.010725
v 0.000000 1.025964 0.010725
v 0.000000 1.025964 0.010725
v 0.000000 1.025964 0.010725
v 0.000000 1.025964 0.010725
v 0.000000 0.283000 0.010725
v 0.000000 0.283000 0.010725
v 0.000000 0.283000 0.010725
v -0.034726 0.347004 0.010725
v -0.034726 0.347004 0.010725
v -0.034726 0.347004 0.010725
v -0.026833 0.412779 0.010725
v -0.026833 0.412779 0.010725
v -0.026833 0.412779 0.010725
v -0.018392 0.487872 0.010725
v -0.018392 0.487872 0.010725
v -0.018392 0.487872 0.010725
v -0.014446 0.534353 0.010725
v -0.014446 0.534353 0.010725
v -0.014446 0.534353 0.010725
v -0.012034 0.589385 0.010725
v -0.012034 0.589385 0.010725
v -0.012034 0.589385 0.010725
v -0.010499 0.658121 0.010725
v -0.010499 0.658121 0.010725
v -0.010499 0.658121 0.010725
v -0.010280 0.741765 0.010725
v -0.010280 0.741765 0.010725
v -0.010280 0.741765 0.010725
v -0.010106 0.806005 0.010725
v -0.010106 0.806005 0.010725
v -0.010106 0.806005 0.010725
v -0.010938 0.863339 0.010725
v -0.010938 0.863339 0.010725
v -0.010938 0.863339 0.010725
v -0.011047 0.918481 0.010725
v -0.011047 0.918481 0.010725
v -0.011047 0.918481 0.010725
v -0.011266 0.981954 0.010725
v -0.011266 0.981954 0.010725
v -0.011266 0.981954 0.010725
v -0.010938 1.010128 0.010725
v -0.010938 1.010128 0.010725
v -0.010938 1.010128 0.010725
v 0.063018 0.339900 0.000000
v 0.063018 0.339900 0.000000
v 0.063018 0.339900 0.000000
v 0.063018 0.339900 0.000000
v 0.048769 0.412779 0.000000
v 0.048769 0.412779 0.000000
v 0.048769 0.412779 0.000000
v 0.048769 0.412779 0.000000
v 0.036695 0.487872 0.000000
v 0.036695 0.487872 0.000000
v 0.036695 0.487872 0.000000
v 0.036695 0.487872 0.000000
v 0.030040 0.534353 0.000000
v 0.030040 0.534353 0.000000
v 0.030040 0.534353 0.000000
v 0.030040 0.534353 0.000000
v 0.026837 0.589385 0.000000
v 0.026837 0.589385 0.000000
v 0.026837 0.589385 0.000000
v 0.026837 0.589385 0.000000
v 0.024642 0.658121 0.000000
v 0.024642 0.658121 0.000000
v 0.024642 0.658121 0.000000
v 0.024642 0.658121 0.000000
v 0.023742 0.741765 -0.000000
v 0.023742 0.741765 -0.000000
v 0.023742 0.741765 -0.000000
v 0.023742 0.741765 -0.000000
v 0.023950 0.806005 -0.000000
v 0.023950 0.806005 -0.000000
v 0.023950 0.806005 -0.000000
v 0.023950 0.806005 -0.000000
v 0.024924 0.863339 -0.000000
v 0.024924 0.863339 -0.000000
v 0.024924 0.863339 -0.000000
v 0.024924 0.863339 -0.000000
v 0.026815 0.918481 -0.000000
v 0.026815 0.918481 -0.000000
v 0.026815 0.918481 -0.000000
v 0.026815 0.918481 -0.000000
v 0.033014 0.981954 -0.000000
v 0.033014 0.981954 -0.000000
v 0.033014 0.981954 -0.000000
v 0.033014 0.981954 -0.000000
v 0.049380 1.034829 -0.000000
v 0.049380 1.034829 -0.000000
v 0.049380 1.034829 -0.000000
v 0.049380 1.034829 -0.000000
v 0.000000 1.142169 0.000000
v 0.000000 1.142169 0.000000
v 0.000000 1.142169 0.000000
v 0.000000 1.142169 0.000000
v 0.000000 0.256321 0.000000
v 0.000000 0.256321 0.000000
v 0.000000 0.256321 0.000000
v 0.000000 0.256321 0.000000
v -0.063018 0.339900 0.000000
v -0.063018 0.339900 0.000000
v -0.063018 0.339900 0.000000
v -0.063018 0.339900 0.000000
v -0.048769 0.412779 0.000000
v -0.048769 0.412779 0.000000
v -0.048769 0.412779 0.000000
v -0.048769 0.412779 0.000000
v -0.036695 0.487872 0.000000
v -0.036695 0.487872 0.000000
v -0.036695 0.487872 0.000000
v -0.036695 0.487872 0.000000
v -0.030039 0.534353 0.000000
v -0.030039 0.534353 0.000000
v -0.030039 0.534353 0.000000
v -0.030039 0.534353 0.000000
v -0.026837 0.589385 0.000000
v -0.026837 0.589385 0.000000
v -0.026837 0.589385 0.000000
v -0.026837 0.589385 0.000000
v -0.024642 0.658121 0.000000
v -0.024642 0.658121 0.000000
v -0.024642 0.658121 0.000000
v -0.024642 0.658121 0.000000
v -0.023742 0.741765 -0.000000
v -0.023742 0.741765 -0.000000
v -0.023742 0.741765 -0.000000
v -0.023742 0.741765 -0.000000
v -0.023950 0.806005 -0.000000
v -0.023950 0.806005 -0.000000
v -0.023950 0.806005 -0.000000
v -0.023950 0.806005 -0.000000
v -0.024924 0.863339 -0.000000
v -0.024924 0.863339 -0.000000
v -0.024924 0.863339 -0.000000
v -0.024924 0.863339 -0.000000
v -0.026814 0.918481 -0.000000
v -0.026814 0.918481 -0.000000
v -0.026814 0.918481 -0.000000
v -0.026814 0.918481 -0.000000
v -0.033014 0.981954 -0.000000
v -0.033014 0.981954 -0.000000
v -0.033014 0.981954 -0.000000
v -0.033014 0.981954 -0.000000
v -0.049380 1.034829 -0.000000
v -0.049380 1.034829 -0.000000
v -0.049380 1.034829 -0.000000
v -0.049380 1.034829 -0.000000
v 0.028962 1.088499 -0.000000
v 0.028962 1.088499 -0.000000
v 0.028962 1.088499 -0.000000
v -0.028961 1.088499 -0.000000
v -0.028961 1.088499 -0.000000
v -0.028961 1.088499 -0.000000
v -0.016270 1.115334 -0.000000
v -0.016270 1.115334 -0.000000
v 0.016270 1.115334 -0.000000
v 0.016270 1.115334 -0.000000
v -0.007207 0.334075 0.017985
v -0.007207 0.334075 0.017985
v -0.007207 0.334075 0.017985
v -0.007207 0.334075 -0.017985
v -0.007207 0.334075 -0.017985
v -0.007207 0.334075 -0.017985
v -0.019511 0.328760 0.017985
v -0.019511 0.328760 0.017985
v -0.019511 0.328760 0.017985
v -0.019511 0.328760 -0.017985
v -0.019511 0.328760 -0.017985
v -0.019511 0.328760 -0.017985
v -0.028845 0.319142 0.017985
v -0.028845 0.319142 0.017985
v -0.028845 0.319142 0.017985
v -0.028845 0.319142 -0.017985
v -0.028845 0.319142 -0.017985
v -0.028845 0.319142 -0.017985
v -0.033788 0.306683 0.017985
v -0.033788 0.306683 0.017985
v -0.033788 0.306683 0.017985
v -0.033788 0.306683 -0.017985
v -0.033788 0.306683 -0.017985
v -0.033788 0.306683 -0.017985
v -0.033586 0.293282 0.017985
v -0.033586 0.293282 0.017985
v -0.033586 0.293282 0.017985
v -0.033586 0.293282 -0.017985
v -0.033586 0.293282 -0.017985
v -0.033586 0.293282 -0.017985
v -0.028272 0.280977 0.017985
v -0.028272 0.280977 0.017985
v -0.028272 0.280977 0.017985
v -0.028272 0.280977 -0.017985
v -0.028272 0.280977 -0.017985
v -0.028272 0.280977 -0.017985
v -0.018653 0.271643 0.017985
v -0.018653 0.271643 0.017985
v -0.018653 0.271643 0.017985
v -0.018653 0.271643 -0.017985
v -0.018653 0.271643 -0.017985
v -0.018653 0.271643 -0.017985
v -0.006195 0.266701 0.017985
v -0.006195 0.266701 0.017985
v -0.006195 0.266701 0.017985
v -0.006195 0.266701 -0.017985
v -0.006195 0.266701 -0.017985
v -0.006195 0.266701 -0.017985
v 0.007207 0.266902 0.017985
v 0.007207 0.266902 0.017985
v 0.007207 0.266902 0.017985
v 0.007207 0.266902 -0.017985
v 0.007207 0.266902 -0.017985
v 0.007207 0.266902 -0.017985
v 0.019511 0.272217 0.017985
v 0.019511 0.272217 0.017985
v 0.019511 0.272217 0.017985
v 0.019511 0.272217 -0.017985
v 0.019511 0.272217 -0.017985
v 0.019511 0.272217 -0.017985
v 0.028845 0.281835 0.017985
v 0.028845 0.281835 0.017985
v 0.028845 0.281835 0.017985
v 0.028845 0.281835 -0.017985
v 0.028845 0.281835 -0.017985
v 0.028845 0.281835 -0.017985
v 0.033788 0.294294 0.017985
v 0.033788 0.294294 0.017985
v 0.033788 0.294294 0.017985
v 0.033788 0.294294 -0.017985
v 0.033788 0.294294 -0.017985
v 0.033788 0.294294 -0.017985
v 0.033586 0.307695 0.017985
v 0.033586 0.307695 0.017985
v 0.033586 0.307695 0.017985
v 0.033586 0.307695 -0.017985
v 0.033586 0.307695 -0.017985
v 0.033586 0.307695 -0.017985
v 0.028272 0.319999 0.017985
v 0.028272 0.319999 0.017985
v 0.028272 0.319999 0.017985
v 0.028272 0.319999 -0.017985
v 0.028272 0.319999 -0.017985
v 0.028272 0.319999 -0.017985
v 0.018653 0.329333 0.017985
v 0.018653 0.329333 0.017985
v 0.018653 0.329333 0.017985
v 0.018653 0.329333 -0.017985
v 0.018653 0.329333 -0.017985
v 0.018653 0.329333 -0.017985
v 0.006195 0.334276 0.017985
v 0.006195 0.334276 0.017985
v 0.006195 0.334276 0.017985
v 0.006195 0.334276 -0.017985
v 0.006195 0.334276 -0.017985
v 0.006195 0.334276 -0.017985
v -0.007207 0.334075 0.013380
v -0.007207 0.334075 0.013380
v -0.007207 0.334075 0.013380
v -0.019511 0.328760 0.013380
v -0.019511 0.328760 0.013380
v -0.019511 0.328760 0.013380
v -0.019511 0.328760 -0.013380
v -0.019511 0.328760 -0.013380
v -0.019511 0.328760 -0.013380
v -0.007207 0.334075 -0.013380
v -0.007207 0.334075 -0.013380
v -0.007207 0.334075 -0.013380
v -0.028845 0.319142 0.013380
v -0.028845 0.319142 0.013380
v -0.028845 0.319142 0.013380
v -0.028845 0.319142 -0.013380
v -0.028845 0.319142 -0.013380
v -0.028845 0.319142 -0.013380
v -0.033788 0.306683 0.013380
v -0.033788 0.306683 0.013380
v -0.033788 0.306683 0.013380
v -0.033788 0.306683 -0.013380
v -0.033788 0.306683 -0.013380
v -0.033788 0.306683 -0.013380
v -0.033586 0.293282 0.013380
v -0.033586 0.293282 0.013380
v -0.033586 0.293282 0.013380
v -0.033586 0.293282 -0.013380
v -0.033586 0.293282 -0.013380
v -0.033586 0.293282 -0.013380
v -0.028272 0.280977 0.013380
v -0.028272 0.280977 0.013380
v -0.028272 0.280977 0.013380
v -0.028272 0.280977 -0.013380
v -0.028272 0.280977 -0.013380
v -0.028272 0.280977 -0.013380
v -0.018653 0.271643 0.013380
v -0.018653 0.271643 0.013380
v -0.018653 0.271643 0.013380
v -0.018653 0.271643 -0.013380
v -0.018653 0.271643 -0.013380
v -0.018653 0.271643 -0.013380
v -0.006195 0.266701 0.013380
v -0.006195 0.266701 0.013380
v -0.006195 0.266701 0.013380
v -0.006195 0.266701 -0.013380
v -0.006195 0.266701 -0.013380
v -0.006195 0.266701 -0.013380
v 0.007207 0.266902 0.013380
v 0.007207 0.266902 0.013380
v 0.007207 0.266902 0.013380
v 0.007207 0.266902 -0.013380
v 0.007207 0.266902 -0.013380
v 0.007207 0.266902 -0.013380
v 0.019511 0.272217 0.013380
v 0.019511 0.272217 0.013380
v 0.019511 0.272217 0.013380
v 0.019511 0.272217 -0.013380
v 0.019511 0.272217 -0.013380
v 0.019511 0.272217 -0.013380
v 0.028845 0.281835 0.013380
v 0.028845 0.281835 0.013380
v 0.028845 0.281835 0.013380
v 0.028845 0.281835 -0.013380
v 0.028845 0.281835 -0.013380
v 0.028845 0.281835 -0.013380
v 0.033788 0.294294 0.013380
v 0.033788 0.294294 0.013380
v 0.033788 0.294294 0.013380
v 0.033788 0.294294 -0.013380
v 0.033788 0.294294 -0.013380
v 0.033788 0.294294 -0.013380
v 0.033586 0.307695 0.013380
v 0.033586 0.307695 0.013380
v 0.033586 0.307695 0.013380
v 0.033586 0.307695 -0.013380
v 0.033586 0.307695 -0.013380
v 0.033586 0.307695 -0.013380
v 0.028272 0.319999 0.013380
v 0.028272 0.319999 0.013380
v 0.028272 0.319999 0.013380
v 0.028272 0.319999 -0.013380
v 0.028272 0.319999 -0.013380
v 0.028272 0.319999 -0.013380
v 0.018653 0.329333 0.013380
v 0.018653 0.329333 0.013380
v 0.018653 0.329333 0.013380
v 0.018653 0.329333 -0.013380
v 0.018653 0.329333 -0.013380
v 0.018653 0.329333 -0.013380
v 0.006195 0.334276 0.013380
v 0.006195 0.334276 0.013380
v 0.006195 0.334276 0.013380
v 0.006195 0.334276 -0.013380
v 0.006195 0.334276 -0.013380
v 0.006195 0.334276 -0.013380
v -0.008980 0.342337 0.017985
v -0.008980 0.342337 0.017985
v -0.008980 0.342337 0.017985
v -0.009263 0.343657 0.016660
v -0.009263 0.343657 0.016660
v -0.009263 0.343657 0.016660
v -0.009263 0.343657 0.016660
v -0.025078 0.336827 0.016660
v -0.025078 0.336827 0.016660
v -0.025078 0.336827 0.016660
v -0.025078 0.336827 0.016660
v -0.024311 0.335715 0.017985
v -0.024311 0.335715 0.017985
v -0.024311 0.335715 0.017985
v -0.024311 0.335715 -0.017985
v -0.024311 0.335715 -0.017985
v -0.024311 0.335715 -0.017985
v -0.025078 0.336827 -0.016660
v -0.025078 0.336827 -0.016660
v -0.025078 0.336827 -0.016660
v -0.025078 0.336827 -0.016660
v -0.009263 0.343657 -0.016660
v -0.009263 0.343657 -0.016660
v -0.009263 0.343657 -0.016660
v -0.009263 0.343657 -0.016660
v -0.008980 0.342337 -0.017985
v -0.008980 0.342337 -0.017985
v -0.008980 0.342337 -0.017985
v -0.037075 0.324464 0.016660
v -0.037075 0.324464 0.016660
v -0.037075 0.324464 0.016660
v -0.037075 0.324464 0.016660
v -0.035941 0.323730 0.017985
v -0.035941 0.323730 0.017985
v -0.035941 0.323730 0.017985
v -0.035941 0.323730 -0.017985
v -0.035941 0.323730 -0.017985
v -0.035941 0.323730 -0.017985
v -0.037075 0.324464 -0.016660
v -0.037075 0.324464 -0.016660
v -0.037075 0.324464 -0.016660
v -0.037075 0.324464 -0.016660
v -0.043428 0.308451 0.016660
v -0.043428 0.308451 0.016660
v -0.043428 0.308451 0.016660
v -0.043428 0.308451 0.016660
v -0.042099 0.308207 0.017985
v -0.042099 0.308207 0.017985
v -0.042099 0.308207 0.017985
v -0.042099 0.308207 0.017985
v -0.042099 0.308207 -0.017985
v -0.042099 0.308207 -0.017985
v -0.042099 0.308207 -0.017985
v -0.043428 0.308451 -0.016660
v -0.043428 0.308451 -0.016660
v -0.043428 0.308451 -0.016660
v -0.043428 0.308451 -0.016660
v -0.043169 0.291225 0.016660
v -0.043169 0.291225 0.016660
v -0.043169 0.291225 0.016660
v -0.043169 0.291225 0.016660
v -0.041848 0.291509 0.017985
v -0.041848 0.291509 0.017985
v -0.041848 0.291509 0.017985
v -0.041848 0.291509 -0.017985
v -0.041848 0.291509 -0.017985
v -0.041848 0.291509 -0.017985
v -0.041848 0.291509 -0.017985
v -0.043169 0.291225 -0.016660
v -0.043169 0.291225 -0.016660
v -0.043169 0.291225 -0.016660
v -0.043169 0.291225 -0.016660
v -0.036338 0.275411 0.016660
v -0.036338 0.275411 0.016660
v -0.036338 0.275411 0.016660
v -0.036338 0.275411 0.016660
v -0.035226 0.276178 0.017985
v -0.035226 0.276178 0.017985
v -0.035226 0.276178 0.017985
v -0.035226 0.276178 -0.017985
v -0.035226 0.276178 -0.017985
v -0.035226 0.276178 -0.017985
v -0.036338 0.275411 -0.016660
v -0.036338 0.275411 -0.016660
v -0.036338 0.275411 -0.016660
v -0.036338 0.275411 -0.016660
v -0.023975 0.263413 0.016660
v -0.023975 0.263413 0.016660
v -0.023975 0.263413 0.016660
v -0.023975 0.263413 0.016660
v -0.023242 0.264548 0.017985
v -0.023242 0.264548 0.017985
v -0.023242 0.264548 0.017985
v -0.023242 0.264548 -0.017985
v -0.023242 0.264548 -0.017985
v -0.023242 0.264548 -0.017985
v -0.023242 0.264548 -0.017985
v -0.023975 0.263413 -0.016660
v -0.023975 0.263413 -0.016660
v -0.023975 0.263413 -0.016660
v -0.023975 0.263413 -0.016660
v -0.007962 0.257061 0.016660
v -0.007962 0.257061 0.016660
v -0.007962 0.257061 0.016660
v -0.007962 0.257061 0.016660
v -0.007719 0.258389 0.017985
v -0.007719 0.258389 0.017985
v -0.007719 0.258389 0.017985
v -0.007719 0.258389 -0.017985
v -0.007719 0.258389 -0.017985
v -0.007719 0.258389 -0.017985
v -0.007719 0.258389 -0.017985
v -0.007962 0.257061 -0.016660
v -0.007962 0.257061 -0.016660
v -0.007962 0.257061 -0.016660
v -0.007962 0.257061 -0.016660
v 0.009263 0.257319 0.016660
v 0.009263 0.257319 0.016660
v 0.009263 0.257319 0.016660
v 0.009263 0.257319 0.016660
v 0.008980 0.258640 0.017985
v 0.008980 0.258640 0.017985
v 0.008980 0.258640 0.017985
v 0.008980 0.258640 -0.017985
v 0.008980 0.258640 -0.017985
v 0.008980 0.258640 -0.017985
v 0.009263 0.257319 -0.016660
v 0.009263 0.257319 -0.016660
v 0.009263 0.257319 -0.016660
v 0.009263 0.257319 -0.016660
v 0.025078 0.264150 0.016660
v 0.025078 0.264150 0.016660
v 0.025078 0.264150 0.016660
v 0.025078 0.264150 0.016660
v 0.024311 0.265262 0.017985
v 0.024311 0.265262 0.017985
v 0.024311 0.265262 0.017985
v 0.024311 0.265262 0.017985
v 0.024311 0.265262 -0.017985
v 0.024311 0.265262 -0.017985
v 0.024311 0.265262 -0.017985
v 0.024311 0.265262 -0.017985
v 0.025078 0.264150 -0.016660
v 0.025078 0.264150 -0.016660
v 0.025078 0.264150 -0.016660
v 0.025078 0.264150 -0.016660
v 0.037075 0.276513 0.016660
v 0.037075 0.276513 0.016660
v 0.037075 0.276513 0.016660
v 0.037075 0.276513 0.016660
v 0.035941 0.277247 0.017985
v 0.035941 0.277247 0.017985
v 0.035941 0.277247 0.017985
v 0.035941 0.277247 -0.017985
v 0.035941 0.277247 -0.017985
v 0.035941 0.277247 -0.017985
v 0.037075 0.276513 -0.016660
v 0.037075 0.276513 -0.016660
v 0.037075 0.276513 -0.016660
v 0.037075 0.276513 -0.016660
v 0.043428 0.292526 0.016660
v 0.043428 0.292526 0.016660
v 0.043428 0.292526 0.016660
v 0.043428 0.292526 0.016660
v 0.042099 0.292770 0.017985
v 0.042099 0.292770 0.017985
v 0.042099 0.292770 0.017985
v 0.042099 0.292770 -0.017985
v 0.042099 0.292770 -0.017985
v 0.042099 0.292770 -0.017985
v 0.043428 0.292526 -0.016660
v 0.043428 0.292526 -0.016660
v 0.043428 0.292526 -0.016660
v 0.043428 0.292526 -0.016660
v 0.043169 0.309751 0.016660
v 0.043169 0.309751 0.016660
v 0.043169 0.309751 0.016660
v 0.043169 0.309751 0.016660
v 0.041848 0.309468 0.017985
v 0.041848 0.309468 0.017985
v 0.041848 0.309468 0.017985
v 0.041848 0.309468 -0.017985
v 0.041848 0.309468 -0.017985
v 0.041848 0.309468 -0.017985
v 0.041848 0.309468 -0.017985
v 0.043169 0.309751 -0.016660
v 0.043169 0.309751 -0.016660
v 0.043169 0.309751 -0.016660
v 0.043169 0.309751 -0.016660
v 0.036338 0.325566 0.016660
v 0.036338 0.325566 0.016660
v 0.036338 0.325566 0.016660
v 0.036338 0.325566 0.016660
v 0.035227 0.324799 0.017985
v 0.035227 0.324799 0.017985
v 0.035227 0.324799 0.017985
v 0.035227 0.324799 0.017985
v 0.035227 0.324799 -0.017985
v 0.035227 0.324799 -0.017985
v 0.035227 0.324799 -0.017985
v 0.036338 0.325566 -0.016660
v 0.036338 0.325566 -0.016660
v 0.036338 0.325566 -0.016660
v 0.036338 0.325566 -0.016660
v 0.023975 0.337563 0.016660
v 0.023975 0.337563 0.016660
v 0.023975 0.337563 0.016660
v 0.023975 0.337563 0.016660
v 0.023242 0.336429 0.017985
v 0.023242 0.336429 0.017985
v 0.023242 0.336429 0.017985
v 0.023242 0.336429 -0.017985
v 0.023242 0.336429 -0.017985
v 0.023242 0.336429 -0.017985
v 0.023242 0.336429 -0.017985
v 0.023975 0.337563 -0.016660
v 0.023975 0.337563 -0.016660
v 0.023975 0.337563 -0.016660
v 0.023975 0.337563 -0.016660
v 0.007962 0.343916 0.016660
v 0.007962 0.343916 0.016660
v 0.007962 0.343916 0.016660
v 0.007962 0.343916 0.016660
v 0.007719 0.342588 0.017985
v 0.007719 0.342588 0.017985
v 0.007719 0.342588 0.017985
v 0.007719 0.342588 0.017985
v 0.007719 0.342588 -0.017985
v 0.007719 0.342588 -0.017985
v 0.007719 0.342588 -0.017985
v 0.007962 0.343916 -0.016660
v 0.007962 0.343916 -0.016660
v 0.007962 0.343916 -0.016660
v 0.007962 0.343916 -0.016660
v 0.133953 0.267473 0.000000
v 0.133953 0.267473 0.000000
v 0.133953 0.267473 0.000000
v 0.133953 0.267473 0.000000
v 0.133953 0.267473 0.000000
v 0.122066 0.276554 -0.008637
v 0.122066 0.276554 -0.008637
v 0.122066 0.276554 -0.008637
v 0.122066 0.276554 -0.008637
v 0.122066 0.276554 -0.008637
v 0.138494 0.276554 -0.013974
v 0.138494 0.276554 -0.013974
v 0.138494 0.276554 -0.013974
v 0.138494 0.276554 -0.013974
v 0.138494 0.276554 -0.013974
v 0.148647 0.276554 0.000000
v 0.148647 0.276554 0.000000
v 0.148647 0.276554 0.000000
v 0.148647 0.276554 0.000000
v 0.148647 0.276554 0.000000
v 0.138494 0.276554 0.013974
v 0.138494 0.276554 0.013974
v 0.138494 0.276554 0.013974
v 0.138494 0.276554 0.013974
v 0.138494 0.276554 0.013974
v 0.122066 0.276554 0.008637
v 0.122066 0.276554 0.008637
v 0.122066 0.276554 0.008637
v 0.122066 0.276554 0.008637
v 0.122066 0.276554 0.008637
v 0.129413 0.291248 -0.013974
v 0.129413 0.291248 -0.013974
v 0.129413 0.291248 -0.013974
v 0.129413 0.291248 -0.013974
v 0.129413 0.291248 -0.013974
v 0.145841 0.291248 -0.008637
v 0.145841 0.291248 -0.008637
v 0.145841 0.291248 -0.008637
v 0.145841 0.291248 -0.008637
v 0.145841 0.291248 -0.008637
v 0.145841 0.291248 0.008637
v 0.145841 0.291248 0.008637
v 0.145841 0.291248 0.008637
v 0.145841 0.291248 0.008637
v 0.145841 0.291248 0.008637
v 0.129413 0.291248 0.013974
v 0.129413 0.291248 0.013974
v 0.129413 0.291248 0.013974
v 0.129413 0.291248 0.013974
v 0.129413 0.291248 0.013974
v 0.119259 0.291248 0.000000
v 0.119259 0.291248 0.000000
v 0.119259 0.291248 0.000000
v 0.119259 0.291248 0.000000
v 0.119259 0.291248 0.000000
v 0.133953 0.300330 0.000000
v 0.133953 0.300330 0.000000
v 0.133953 0.300330 0.000000
v 0.133953 0.300330 0.000000
v 0.133953 0.300330 0.000000
v 0.124770 0.275253 -0.001315
v 0.124770 0.275253 -0.001315
v 0.124770 0.275253 -0.001315
v 0.124770 0.275517 -0.003364
v 0.124770 0.275517 -0.003364
v 0.124770 0.275517 -0.003364
v 0.124770 0.292441 -0.003364
v 0.124770 0.292441 -0.003364
v 0.124770 0.292441 -0.003364
v 0.124770 0.292704 -0.001316
v 0.124770 0.292704 -0.001316
v 0.124770 0.292704 -0.001316
v 0.124770 0.275517 0.003364
v 0.124770 0.275517 0.003364
v 0.124770 0.275517 0.003364
v 0.124770 0.275253 0.001315
v 0.124770 0.275253 0.001315
v 0.124770 0.275253 0.001315
v 0.124770 0.292704 0.001316
v 0.124770 0.292704 0.001316
v 0.124770 0.292704 0.001316
v 0.124770 0.292441 0.003364
v 0.124770 0.292441 0.003364
v 0.124770 0.292441 0.003364
v 0.000000 0.256242 0.011483
v 0.000000 0.256242 0.011483
v 0.000000 0.256242 0.011483
v 0.000000 0.256242 0.011483
v 0.000000 0.256505 0.013519
v 0.000000 0.256505 0.013519
v 0.000000 0.256505 0.013519
v 0.000000 0.256505 0.013519
v 0.000000 0.311452 0.010707
v 0.000000 0.311452 0.010707
v 0.000000 0.311452 0.010707
v 0.000000 0.311452 0.010707
v 0.000000 0.311716 0.008645
v 0.000000 0.311716 0.008645
v 0.000000 0.311716 0.008645
v 0.000000 0.311716 0.008645
v 0.000000 0.256505 -0.013519
v 0.000000 0.256505 -0.013519
v 0.000000 0.256505 -0.013519
v 0.000000 0.256505 -0.013519
v 0.000000 0.256242 -0.011483
v 0.000000 0.256242 -0.011483
v 0.000000 0.256242 -0.011483
v 0.000000 0.256242 -0.011483
v 0.000000 0.311716 -0.008645
v 0.000000 0.311716 -0.008645
v 0.000000 0.311716 -0.008645
v 0.000000 0.311716 -0.008645
v 0.000000 0.311452 -0.010707
v 0.000000 0.311452 -0.010707
v 0.000000 0.311452 -0.010707
v 0.000000 0.311452 -0.010707
v -0.133953 0.267473 0.000000
v -0.133953 0.267473 0.000000
v -0.133953 0.267473 0.000000
v -0.133953 0.267473 0.000000
v -0.133953 0.267473 0.000000
v -0.122066 0.276554 -0.008637
v -0.122066 0.276554 -0.008637
v -0.122066 0.276554 -0.008637
v -0.122066 0.276554 -0.008637
v -0.122066 0.276554 -0.008637
v -0.138494 0.276554 -0.013974
v -0.138494 0.276554 -0.013974
v -0.138494 0.276554 -0.013974
v -0.138494 0.276554 -0.013974
v -0.138494 0.276554 -0.013974
v -0.148647 0.276554 0.000000
v -0.148647 0.276554 0.000000
v -0.148647 0.276554 0.000000
v -0.148647 0.276554 0.000000
v -0.148647 0.276554 0.000000
v -0.138494 0.276554 0.013974
v -0.138494 0.276554 0.013974
v -0.138494 0.276554 0.013974
v -0.138494 0.276554 0.013974
v -0.138494 0.276554 0.013974
v -0.122066 0.276554 0.008637
v -0.122066 0.276554 0.008637
v -0.122066 0.276554 0.008637
v -0.122066 0.276554 0.008637
v -0.122066 0.276554 0.008637
v -0.129413 0.291248 -0.013974
v -0.129413 0.291248 -0.013974
v -0.129413 0.291248 -0.013974
v -0.129413 0.291248 -0.013974
v -0.129413 0.291248 -0.013974
v -0.145841 0.291248 -0.008637
v -0.145841 0.291248 -0.008637
v -0.145841 0.291248 -0.008637
v -0.145841 0.291248 -0.008637
v -0.145841 0.291248 -0.008637
v -0.145841 0.291248 0.008637
v -0.145841 0.291248 0.008637
v -0.145841 0.291248 0.008637
v -0.145841 0.291248 0.008637
v -0.145841 0.291248 0.008637
v -0.129413 0.291248 0.013974
v -0.129413 0.291248 0.013974
v -0.129413 0.291248 0.013974
v -0.129413 0.291248 0.013974
v -0.129413 0.291248 0.013974
v -0.119259 0.291248 0.000000
v -0.119259 0.291248 0.000000
v -0.119259 0.291248 0.000000
v -0.119259 0.291248 0.000000
v -0.119259 0.291248 0.000000
v -0.133953 0.300330 0.000000
v -0.133953 0.300330 0.000000
v -0.133953 0.300330 0.000000
v -0.133953 0.300330 0.000000
v -0.133953 0.300330 0.000000
v -0.124770 0.275253 -0.001315
v -0.124770 0.275253 -0.001315
v -0.124770 0.275253 -0.001315
v -0.124770 0.275517 -0.003364
v -0.124770 0.275517 -0.003364
v -0.124770 0.275517 -0.003364
v -0.124770 0.292441 -0.003364
v -0.124770 0.292441 -0.003364
v -0.124770 0.292441 -0.003364
v -0.124770 0.292704 -0.001316
v -0.124770 0.292704 -0.001316
v -0.124770 0.292704 -0.001316
v -0.124770 0.275517 0.003364
v -0.124770 0.275517 0.003364
v -0.124770 0.275517 0.003364
v -0.124770 0.275253 0.001315
v -0.124770 0.275253 0.001315
v -0.124770 0.275253 0.001315
v -0.124770 0.292704 0.001316
v -0.124770 0.292704 0.001316
v -0.124770 0.292704 0.001316
v -0.124770 0.292441 0.003364
v -0.124770 0.292441 0.003364
v -0.124770 0.292441 0.003364
v 0.000000 0.236673 -0.014616
v 0.000000 0.236673 -0.014616
v 0.000000 0.236673 -0.014616
v 0.000000 0.236673 -0.014616
v 0.000000 0.041025 -0.014616
v 0.000000 0.041025 -0.014616
v 0.000000 0.041025 -0.014616
v 0.000000 0.041025 -0.014616
v 0.005593 0.236673 -0.013503
v 0.005593 0.236673 -0.013503
v 0.005593 0.236673 -0.013503
v 0.005593 0.236673 -0.013503
v 0.005593 0.041025 -0.013503
v 0.005593 0.041025 -0.013503
v 0.005593 0.041025 -0.013503
v 0.005593 0.041025 -0.013503
v 0.010335 0.236673 -0.010335
v 0.010335 0.236673 -0.010335
v 0.010335 0.236673 -0.010335
v 0.010335 0.236673 -0.010335
v 0.010335 0.041025 -0.010335
v 0.010335 0.041025 -0.010335
v 0.010335 0.041025 -0.010335
v 0.010335 0.041025 -0.010335
v 0.013503 0.236673 -0.005593
v 0.013503 0.236673 -0.005593
v 0.013503 0.236673 -0.005593
v 0.013503 0.236673 -0.005593
v 0.013503 0.041025 -0.005593
v 0.013503 0.041025 -0.005593
v 0.013503 0.041025 -0.005593
v 0.013503 0.041025 -0.005593
v 0.014616 0.236673 0.000000
v 0.014616 0.236673 0.000000
v 0.014616 0.236673 0.000000
v 0.014616 0.236673 0.000000
v 0.014616 0.041025 0.000000
v 0.014616 0.041025 0.000000
v 0.014616 0.041025 0.000000
v 0.014616 0.041025 0.000000
v 0.013503 0.236673 0.005593
v 0.013503 0.236673 0.005593
v 0.013503 0.236673 0.005593
v 0.013503 0.236673 0.005593
v 0.013503 0.041025 0.005593
v 0.013503 0.041025 0.005593
v 0.013503 0.041025 0.005593
v 0.013503 0.041025 0.005593
v 0.010335 0.236673 0.010335
v 0.010335 0.236673 0.010335
v 0.010335 0.236673 0.010335
v 0.010335 0.236673 0.010335
v 0.010335 0.041025 0.010335
v 0.010335 0.041025 0.010335
v 0.010335 0.041025 0.010335
v 0.010335 0.041025 0.010335
v 0.005593 0.236673 0.013503
v 0.005593 0.236673 0.013503
v 0.005593 0.236673 0.013503
v 0.005593 0.236673 0.013503
v 0.005593 0.041025 0.013503
v 0.005593 0.041025 0.013503
v 0.005593 0.041025 0.013503
v 0.005593 0.041025 0.013503
v 0.000000 0.236673 0.014616
v 0.000000 0.236673 0.014616
v 0.000000 0.236673 0.014616
v 0.000000 0.236673 0.014616
v 0.000000 0.041025 0.014616
v 0.000000 0.041025 0.014616
v 0.000000 0.041025 0.014616
v 0.000000 0.041025 0.014616
v -0.005593 0.236673 0.013503
v -0.005593 0.236673 0.013503
v -0.005593 0.236673 0.013503
v -0.005593 0.236673 0.013503
v -0.005593 0.041025 0.013503
v -0.005593 0.041025 0.013503
v -0.005593 0.041025 0.013503
v -0.005593 0.041025 0.013503
v -0.010335 0.236673 0.010335
v -0.010335 0.236673 0.010335
v -0.010335 0.236673 0.010335
v -0.010335 0.236673 0.010335
v -0.010335 0.041025 0.010335
v -0.010335 0.041025 0.010335
v -0.010335 0.041025 0.010335
v -0.010335 0.041025 0.010335
v -0.013503 0.236673 0.005593
v -0.013503 0.236673 0.005593
v -0.013503 0.236673 0.005593
v -0.013503 0.236673 0.005593
v -0.013503 0.041025 0.005593
v -0.013503 0.041025 0.005593
v -0.013503 0.041025 0.005593
v -0.013503 0.041025 0.005593
v -0.014616 0.236673 0.000000
v -0.014616 0.236673 0.000000
v -0.014616 0.236673 0.000000
v -0.014616 0.236673 0.000000
v -0.014616 0.041025 0.000000
v -0.014616 0.041025 0.000000
v -0.014616 0.041025 0.000000
v -0.014616 0.041025 0.000000
v -0.013503 0.236673 -0.005593
v -0.013503 0.236673 -0.005593
v -0.013503 0.236673 -0.005593
v -0.013503 0.236673 -0.005593
v -0.013503 0.041025 -0.005593
v -0.013503 0.041025 -0.005593
v -0.013503 0.041025 -0.005593
v -0.013503 0.041025 -0.005593
v -0.010335 0.236673 -0.010335
v -0.010335 0.236673 -0.010335
v -0.010335 0.236673 -0.010335
v -0.010335 0.236673 -0.010335
v -0.010335 0.041025 -0.010335
v -0.010335 0.041025 -0.010335
v -0.010335 0.041025 -0.010335
v -0.010335 0.041025 -0.010335
v -0.005593 0.236673 -0.013503
v -0.005593 0.236673 -0.013503
v -0.005593 0.236673 -0.013503
v -0.005593 0.236673 -0.013503
v -0.005593 0.041025 -0.013503
v -0.005593 0.041025 -0.013503
v -0.005593 0.041025 -0.013503
v -0.005593 0.041025 -0.013503
v 0.000000 0.239872 -0.017291
v 0.000000 0.239872 -0.017291
v 0.000000 0.239872 -0.017291
v 0.000000 0.239872 -0.017291
v 0.006617 0.239872 -0.015975
v 0.006617 0.239872 -0.015975
v 0.006617 0.239872 -0.015975
v 0.006617 0.239872 -0.015975
v 0.012227 0.239872 -0.012227
v 0.012227 0.239872 -0.012227
v 0.012227 0.239872 -0.012227
v 0.012227 0.239872 -0.012227
v 0.015975 0.239872 -0.006617
v 0.015975 0.239872 -0.006617
v 0.015975 0.239872 -0.006617
v 0.015975 0.239872 -0.006617
v 0.017291 0.239872 0.000000
v 0.017291 0.239872 0.000000
v 0.017291 0.239872 0.000000
v 0.017291 0.239872 0.000000
v 0.015975 0.239872 0.006617
v 0.015975 0.239872 0.006617
v 0.015975 0.239872 0.006617
v 0.015975 0.239872 0.006617
v 0.012227 0.239872 0.012227
v 0.012227 0.239872 0.012227
v 0.012227 0.239872 0.012227
v 0.012227 0.239872 0.012227
v 0.006617 0.239872 0.015975
v 0.006617 0.239872 0.015975
v 0.006617 0.239872 0.015975
v 0.006617 0.239872 0.015975
v 0.000000 0.239872 0.017291
v 0.000000 0.239872 0.017291
v 0.000000 0.239872 0.017291
v 0.000000 0.239872 0.017291
v -0.006617 0.239872 0.015975
v -0.006617 0.239872 0.015975
v -0.006617 0.239872 0.015975
v -0.006617 0.239872 0.015975
v -0.012227 0.239872 0.012227
v -0.012227 0.239872 0.012227
v -0.012227 0.239872 0.012227
v -0.012227 0.239872 0.012227
v -0.015975 0.239872 0.006617
v -0.015975 0.239872 0.006617
v -0.015975 0.239872 0.006617
v -0.015975 0.239872 0.006617
v -0.017291 0.239872 0.000000
v -0.017291 0.239872 0.000000
v -0.017291 0.239872 0.000000
v -0.017291 0.239872 0.000000
v -0.015975 0.239872 -0.006617
v -0.015975 0.239872 -0.006617
v -0.015975 0.239872 -0.006617
v -0.015975 0.239872 -0.006617
v -0.012227 0.239872 -0.012227
v -0.012227 0.239872 -0.012227
v -0.012227 0.239872 -0.012227
v -0.012227 0.239872 -0.012227
v -0.006617 0.239872 -0.015975
v -0.006617 0.239872 -0.015975
v -0.006617 0.239872 -0.015975
v -0.006617 0.239872 -0.015975
v 0.000000 0.258277 -0.017291
v 0.000000 0.258277 -0.017291
v 0.000000 0.258277 -0.017291
v 0.006617 0.258277 -0.015975
v 0.006617 0.258277 -0.015975
v 0.006617 0.258277 -0.015975
v 0.012227 0.258277 -0.012227
v 0.012227 0.258277 -0.012227
v 0.012227 0.258277 -0.012227
v 0.015975 0.258277 -0.006617
v 0.015975 0.258277 -0.006617
v 0.015975 0.258277 -0.006617
v 0.017291 0.258277 0.000000
v 0.017291 0.258277 0.000000
v 0.017291 0.258277 0.000000
v 0.015975 0.258277 0.006617
v 0.015975 0.258277 0.006617
v 0.015975 0.258277 0.006617
v 0.012227 0.258277 0.012227
v 0.012227 0.258277 0.012227
v 0.012227 0.258277 0.012227
v 0.006617 0.258277 0.015975
v 0.006617 0.258277 0.015975
v 0.006617 0.258277 0.015975
v 0.000000 0.258277 0.017291
v 0.000000 0.258277 0.017291
v 0.000000 0.258277 0.017291
v -0.006617 0.258277 0.015975
v -0.006617 0.258277 0.015975
v -0.006617 0.258277 0.015975
v -0.012227 0.258277 0.012227
v -0.012227 0.258277 0.012227
v -0.012227 0.258277 0.012227
v -0.015975 0.258277 0.006617
v -0.015975 0.258277 0.006617
v -0.015975 0.258277 0.006617
v -0.017291 0.258277 0.000000
v -0.017291 0.258277 0.000000
v -0.017291 0.258277 0.000000
v -0.015975 0.258277 -0.006617
v -0.015975 0.258277 -0.006617
v -0.015975 0.258277 -0.006617
v -0.012227 0.258277 -0.012227
v -0.012227 0.258277 -0.012227
v -0.012227 0.258277 -0.012227
v -0.006617 0.258277 -0.015975
v -0.006617 0.258277 -0.015975
v -0.006617 0.258277 -0.015975
v 0.000000 0.228313 -0.017291
v 0.000000 0.228313 -0.017291
v 0.000000 0.228313 -0.017291
v 0.006510 0.226996 -0.015975
v 0.006510 0.226996 -0.015975
v 0.006510 0.226996 -0.015975
v 0.012029 0.225880 -0.012227
v 0.012029 0.225880 -0.012227
v 0.012029 0.225880 -0.012227
v 0.015717 0.225134 -0.006617
v 0.015717 0.225134 -0.006617
v 0.015717 0.225134 -0.006617
v 0.017012 0.224872 0.000000
v 0.017012 0.224872 0.000000
v 0.017012 0.224872 0.000000
v 0.015717 0.225134 0.006617
v 0.015717 0.225134 0.006617
v 0.015717 0.225134 0.006617
v 0.012029 0.225880 0.012227
v 0.012029 0.225880 0.012227
v 0.012029 0.225880 0.012227
v 0.006510 0.226996 0.015975
v 0.006510 0.226996 0.015975
v 0.006510 0.226996 0.015975
v 0.000000 0.228313 0.017291
v 0.000000 0.228313 0.017291
v 0.000000 0.228313 0.017291
v -0.006510 0.229630 0.015975
v -0.006510 0.229630 0.015975
v -0.006510 0.229630 0.015975
v -0.012029 0.230746 0.012227
v -0.012029 0.230746 0.012227
v -0.012029 0.230746 0.012227
v -0.015717 0.231492 0.006617
v -0.015717 0.231492 0.006617
v -0.015717 0.231492 0.006617
v -0.017012 0.231754 -0.000000
v -0.017012 0.231754 -0.000000
v -0.017012 0.231754 -0.000000
v -0.015717 0.231492 -0.006617
v -0.015717 0.231492 -0.006617
v -0.015717 0.231492 -0.006617
v -0.012029 0.230746 -0.012227
v -0.012029 0.230746 -0.012227
v -0.012029 0.230746 -0.012227
v -0.006510 0.229630 -0.015975
v -0.006510 0.229630 -0.015975
v -0.006510 0.229630 -0.015975
v 0.000000 0.196488 -0.017291
v 0.000000 0.196488 -0.017291
v 0.000000 0.196488 -0.017291
v 0.006510 0.195171 -0.015975
v 0.006510 0.195171 -0.015975
v 0.006510 0.195171 -0.015975
v 0.012029 0.194055 -0.012227
v 0.012029 0.194055 -0.012227
v 0.012029 0.194055 -0.012227
v 0.015717 0.193309 -0.006617
v 0.015717 0.193309 -0.006617
v 0.015717 0.193309 -0.006617
v 0.017012 0.193047 0.000000
v 0.017012 0.193047 0.000000
v 0.017012 0.193047 0.000000
v 0.015717 0.193309 0.006617
v 0.015717 0.193309 0.006617
v 0.015717 0.193309 0.006617
v 0.012029 0.194055 0.012227
v 0.012029 0.194055 0.012227
v 0.012029 0.194055 0.012227
v 0.006510 0.195171 0.015975
v 0.006510 0.195171 0.015975
v 0.006510 0.195171 0.015975
v 0.000000 0.196488 0.017291
v 0.000000 0.196488 0.017291
v 0.000000 0.196488 0.017291
v -0.006510 0.197805 0.015975
v -0.006510 0.197805 0.015975
v -0.006510 0.197805 0.015975
v -0.012029 0.198921 0.012227
v -0.012029 0.198921 0.012227
v -0.012029 0.198921 0.012227
v -0.015717 0.199667 0.006617
v -0.015717 0.199667 0.006617
v -0.015717 0.199667 0.006617
v -0.017012 0.199929 -0.000000
v -0.017012 0.199929 -0.000000
v -0.017012 0.199929 -0.000000
v -0.015717 0.199667 -0.006617
v -0.015717 0.199667 -0.006617
v -0.015717 0.199667 -0.006617
v -0.012029 0.198921 -0.012227
v -0.012029 0.198921 -0.012227
v -0.012029 0.198921 -0.012227
v -0.006510 0.197805 -0.015975
v -0.006510 0.197805 -0.015975
v -0.006510 0.197805 -0.015975
v 0.000000 0.182151 0.017291
v 0.000000 0.182151 0.017291
v 0.000000 0.182151 0.017291
v -0.006510 0.180834 0.015975
v -0.006510 0.180834 0.015975
v -0.006510 0.180834 0.015975
v -0.012029 0.179717 0.012227
v -0.012029 0.179717 0.012227
v -0.012029 0.179717 0.012227
v -0.015717 0.178972 0.006617
v -0.015717 0.178972 0.006617
v -0.015717 0.178972 0.006617
v -0.017012 0.178710 0.000000
v -0.017012 0.178710 0.000000
v -0.017012 0.178710 0.000000
v -0.015717 0.178972 -0.006617
v -0.015717 0.178972 -0.006617
v -0.015717 0.178972 -0.006617
v -0.012029 0.179717 -0.012227
v -0.012029 0.179717 -0.012227
v -0.012029 0.179717 -0.012227
v -0.006510 0.180834 -0.015975
v -0.006510 0.180834 -0.015975
v -0.006510 0.180834 -0.015975
v 0.000000 0.182151 -0.017291
v 0.000000 0.182151 -0.017291
v 0.000000 0.182151 -0.017291
v 0.006510 0.183467 -0.015975
v 0.006510 0.183467 -0.015975
v 0.006510 0.183467 -0.015975
v 0.012029 0.184584 -0.012227
v 0.012029 0.184584 -0.012227
v 0.012029 0.184584 -0.012227
v 0.015717 0.185330 -0.006617
v 0.015717 0.185330 -0.006617
v 0.015717 0.185330 -0.006617
v 0.017012 0.185592 -0.000000
v 0.017012 0.185592 -0.000000
v 0.017012 0.185592 -0.000000
v 0.015717 0.185330 0.006617
v 0.015717 0.185330 0.006617
v 0.015717 0.185330 0.006617
v 0.012029 0.184584 0.012227
v 0.012029 0.184584 0.012227
v 0.012029 0.184584 0.012227
v 0.006510 0.183467 0.015975
v 0.006510 0.183467 0.015975
v 0.006510 0.183467 0.015975
v 0.000000 0.150326 0.017291
v 0.000000 0.150326 0.017291
v 0.000000 0.150326 0.017291
v -0.006510 0.149009 0.015975
v -0.006510 0.149009 0.015975
v -0.006510 0.149009 0.015975
v -0.012029 0.147893 0.012227
v -0.012029 0.147893 0.012227
v -0.012029 0.147893 0.012227
v -0.015717 0.147147 0.006617
v -0.015717 0.147147 0.006617
v -0.015717 0.147147 0.006617
v -0.017012 0.146885 0.000000
v -0.017012 0.146885 0.000000
v -0.017012 0.146885 0.000000
v -0.015717 0.147147 -0.006617
v -0.015717 0.147147 -0.006617
v -0.015717 0.147147 -0.006617
v -0.012029 0.147893 -0.012227
v -0.012029 0.147893 -0.012227
v -0.012029 0.147893 -0.012227
v -0.006510 0.149009 -0.015975
v -0.006510 0.149009 -0.015975
v -0.006510 0.149009 -0.015975
v 0.000000 0.150326 -0.017291
v 0.000000 0.150326 -0.017291
v 0.000000 0.150326 -0.017291
v 0.006510 0.151643 -0.015975
v 0.006510 0.151643 -0.015975
v 0.006510 0.151643 -0.015975
v 0.012029 0.152759 -0.012227
v 0.012029 0.152759 -0.012227
v 0.012029 0.152759 -0.012227
v 0.015717 0.153505 -0.006617
v 0.015717 0.153505 -0.006617
v 0.015717 0.153505 -0.006617
v 0.017012 0.153767 -0.000000
v 0.017012 0.153767 -0.000000
v 0.017012 0.153767 -0.000000
v 0.015717 0.153505 0.006617
v 0.015717 0.153505 0.006617
v 0.015717 0.153505 0.006617
v 0.012029 0.152759 0.012227
v 0.012029 0.152759 0.012227
v 0.012029 0.152759 0.012227
v 0.006510 0.151643 0.015975
v 0.006510 0.151643 0.015975
v 0.006510 0.151643 0.015975
v 0.000000 0.136113 -0.017291
v 0.000000 0.136113 -0.017291
v 0.000000 0.136113 -0.017291
v 0.006510 0.134796 -0.015975
v 0.006510 0.134796 -0.015975
v 0.006510 0.134796 -0.015975
v 0.012029 0.133680 -0.012227
v 0.012029 0.133680 -0.012227
v 0.012029 0.133680 -0.012227
v 0.015717 0.132934 -0.006617
v 0.015717 0.132934 -0.006617
v 0.015717 0.132934 -0.006617
v 0.017012 0.132672 0.000000
v 0.017012 0.132672 0.000000
v 0.017012 0.132672 0.000000
v 0.015717 0.132934 0.006617
v 0.015717 0.132934 0.006617
v 0.015717 0.132934 0.006617
v 0.012029 0.133680 0.012227
v 0.012029 0.133680 0.012227
v 0.012029 0.133680 0.012227
v 0.006510 0.134796 0.015975
v 0.006510 0.134796 0.015975
v 0.006510 0.134796 0.015975
v 0.000000 0.136113 0.017291
v 0.000000 0.136113 0.017291
v 0.000000 0.136113 0.017291
v -0.006510 0.137430 0.015975
v -0.006510 0.137430 0.015975
v -0.006510 0.137430 0.015975
v -0.012029 0.138546 0.012227
v -0.012029 0.138546 0.012227
v -0.012029 0.138546 0.012227
v -0.015717 0.139292 0.006617
v -0.015717 0.139292 0.006617
v -0.015717 0.139292 0.006617
v -0.017012 0.139554 -0.000000
v -0.017012 0.139554 -0.000000
v -0.017012 0.139554 -0.000000
v -0.015717 0.139292 -0.006617
v -0.015717 0.139292 -0.006617
v -0.015717 0.139292 -0.006617
v -0.012029 0.138546 -0.012227
v -0.012029 0.138546 -0.012227
v -0.012029 0.138546 -0.012227
v -0.006510 0.137430 -0.015975
v -0.006510 0.137430 -0.015975
v -0.006510 0.137430 -0.015975
v 0.000000 0.104288 -0.017291
v 0.000000 0.104288 -0.017291
v 0.000000 0.104288 -0.017291
v 0.006510 0.102971 -0.015975
v 0.006510 0.102971 -0.015975
v 0.006510 0.102971 -0.015975
v 0.012029 0.101855 -0.012227
v 0.012029 0.101855 -0.012227
v 0.012029 0.101855 -0.012227
v 0.015717 0.101109 -0.006617
v 0.015717 0.101109 -0.006617
v 0.015717 0.101109 -0.006617
v 0.017012 0.100847 0.000000
v 0.017012 0.100847 0.000000
v 0.017012 0.100847 0.000000
v 0.015717 0.101109 0.006617
v 0.015717 0.101109 0.006617
v 0.015717 0.101109 0.006617
v 0.012029 0.101855 0.012227
v 0.012029 0.101855 0.012227
v 0.012029 0.101855 0.012227
v 0.006510 0.102971 0.015975
v 0.006510 0.102971 0.015975
v 0.006510 0.102971 0.015975
v 0.000000 0.104288 0.017291
v 0.000000 0.104288 0.017291
v 0.000000 0.104288 0.017291
v -0.006510 0.105605 0.015975
v -0.006510 0.105605 0.015975
v -0.006510 0.105605 0.015975
v -0.012029 0.106721 0.012227
v -0.012029 0.106721 0.012227
v -0.012029 0.106721 0.012227
v -0.015717 0.107467 0.006617
v -0.015717 0.107467 0.006617
v -0.015717 0.107467 0.006617
v -0.017012 0.107729 -0.000000
v -0.017012 0.107729 -0.000000
v -0.017012 0.107729 -0.000000
v -0.015717 0.107467 -0.006617
v -0.015717 0.107467 -0.006617
v -0.015717 0.107467 -0.006617
v -0.012029 0.106721 -0.012227
v -0.012029 0.106721 -0.012227
v -0.012029 0.106721 -0.012227
v -0.006510 0.105605 -0.015975
v -0.006510 0.105605 -0.015975
v -0.006510 0.105605 -0.015975
v 0.000000 0.089951 0.017291
v 0.000000 0.089951 0.017291
v 0.000000 0.089951 0.017291
v -0.006510 0.088634 0.015975
v -0.006510 0.088634 0.015975
v -0.006510 0.088634 0.015975
v -0.012029 0.087517 0.012227
v -0.012029 0.087517 0.012227
v -0.012029 0.087517 0.012227
v -0.015717 0.086771 0.006617
v -0.015717 0.086771 0.006617
v -0.015717 0.086771 0.006617
v -0.017012 0.086510 0.000000
v -0.017012 0.086510 0.000000
v -0.017012 0.086510 0.000000
v -0.015717 0.086771 -0.006617
v -0.015717 0.086771 -0.006617
v -0.015717 0.086771 -0.006617
v -0.012029 0.087517 -0.012227
v -0.012029 0.087517 -0.012227
v -0.012029 0.087517 -0.012227
v -0.006510 0.088634 -0.015975
v -0.006510 0.088634 -0.015975
v -0.006510 0.088634 -0.015975
v 0.000000 0.089951 -0.017291
v 0.000000 0.089951 -0.017291
v 0.000000 0.089951 -0.017291
v 0.006510 0.091267 -0.015975
v 0.006510 0.091267 -0.015975
v 0.006510 0.091267 -0.015975
v 0.012029 0.092384 -0.012227
v 0.012029 0.092384 -0.012227
v 0.012029 0.092384 -0.012227
v 0.015717 0.093130 -0.006617
v 0.015717 0.093130 -0.006617
v 0.015717 0.093130 -0.006617
v 0.017012 0.093392 -0.000000
v 0.017012 0.093392 -0.000000
v 0.017012 0.093392 -0.000000
v 0.015717 0.093130 0.006617
v 0.015717 0.093130 0.006617
v 0.015717 0.093130 0.006617
v 0.012029 0.092384 0.012227
v 0.012029 0.092384 0.012227
v 0.012029 0.092384 0.012227
v 0.006510 0.091267 0.015975
v 0.006510 0.091267 0.015975
v 0.006510 0.091267 0.015975
v 0.000000 0.058126 0.017291
v 0.000000 0.058126 0.017291
v 0.000000 0.058126 0.017291
v -0.006510 0.056809 0.015975
v -0.006510 0.056809 0.015975
v -0.006510 0.056809 0.015975
v -0.012029 0.055693 0.012227
v -0.012029 0.055693 0.012227
v -0.012029 0.055693 0.012227
v -0.015717 0.054947 0.006617
v -0.015717 0.054947 0.006617
v -0.015717 0.054947 0.006617
v -0.017012 0.054685 0.000000
v -0.017012 0.054685 0.000000
v -0.017012 0.054685 0.000000
v -0.015717 0.054947 -0.006617
v -0.015717 0.054947 -0.006617
v -0.015717 0.054947 -0.006617
v -0.012029 0.055693 -0.012227
v -0.012029 0.055693 -0.012227
v -0.012029 0.055693 -0.012227
v -0.006510 0.056809 -0.015975
v -0.006510 0.056809 -0.015975
v -0.006510 0.056809 -0.015975
v 0.000000 0.058126 -0.017291
v 0.000000 0.058126 -0.017291
v 0.000000 0.058126 -0.017291
v 0.006510 0.059443 -0.015975
v 0.006510 0.059443 -0.015975
v 0.006510 0.059443 -0.015975
v 0.012029 0.060559 -0.012227
v 0.012029 0.060559 -0.012227
v 0.012029 0.060559 -0.012227
v 0.015717 0.061305 -0.006617
v 0.015717 0.061305 -0.006617
v 0.015717 0.061305 -0.006617
v 0.017012 0.061567 -0.000000
v 0.017012 0.061567 -0.000000
v 0.017012 0.061567 -0.000000
v 0.015717 0.061305 0.006617
v 0.015717 0.061305 0.006617
v 0.015717 0.061305 0.006617
v 0.012029 0.060559 0.012227
v 0.012029 0.060559 0.012227
v 0.012029 0.060559 0.012227
v 0.006510 0.059443 0.015975
v 0.006510 0.059443 0.015975
v 0.006510 0.059443 0.015975
v 0.006757 0.033672 -0.016312
v 0.006757 0.033672 -0.016312
v 0.006757 0.033672 -0.016312
v 0.006757 0.033672 -0.016312
v 0.000000 0.033672 -0.017656
v 0.000000 0.033672 -0.017656
v 0.000000 0.033672 -0.017656
v 0.000000 0.033672 -0.017656
v 0.012485 0.033672 -0.012485
v 0.012485 0.033672 -0.012485
v 0.012485 0.033672 -0.012485
v 0.012485 0.033672 -0.012485
v 0.016312 0.033672 -0.006757
v 0.016312 0.033672 -0.006757
v 0.016312 0.033672 -0.006757
v 0.016312 0.033672 -0.006757
v 0.017656 0.033672 0.000000
v 0.017656 0.033672 0.000000
v 0.017656 0.033672 0.000000
v 0.017656 0.033672 0.000000
v 0.016312 0.033672 0.006757
v 0.016312 0.033672 0.006757
v 0.016312 0.033672 0.006757
v 0.016312 0.033672 0.006757
v 0.012485 0.033672 0.012485
v 0.012485 0.033672 0.012485
v 0.012485 0.033672 0.012485
v 0.012485 0.033672 0.012485
v 0.006757 0.033672 0.016312
v 0.006757 0.033672 0.016312
v 0.006757 0.033672 0.016312
v 0.006757 0.033672 0.016312
v 0.000000 0.033672 0.017656
v 0.000000 0.033672 0.017656
v 0.000000 0.033672 0.017656
v 0.000000 0.033672 0.017656
v -0.006757 0.033672 0.016312
v -0.006757 0.033672 0.016312
v -0.006757 0.033672 0.016312
v -0.006757 0.033672 0.016312
v -0.012485 0.033672 0.012485
v -0.012485 0.033672 0.012485
v -0.012485 0.033672 0.012485
v -0.012485 0.033672 0.012485
v -0.016312 0.033672 0.006757
v -0.016312 0.033672 0.006757
v -0.016312 0.033672 0.006757
v -0.016312 0.033672 0.006757
v -0.017656 0.033672 0.000000
v -0.017656 0.033672 0.000000
v -0.017656 0.033672 0.000000
v -0.017656 0.033672 0.000000
v -0.016312 0.033672 -0.006757
v -0.016312 0.033672 -0.006757
v -0.016312 0.033672 -0.006757
v -0.016312 0.033672 -0.006757
v -0.012485 0.033672 -0.012485
v -0.012485 0.033672 -0.012485
v -0.012485 0.033672 -0.012485
v -0.012485 0.033672 -0.012485
v -0.006757 0.033672 -0.016312
v -0.006757 0.033672 -0.016312
v -0.006757 0.033672 -0.016312
v -0.006757 0.033672 -0.016312
v 0.006757 0.009915 -0.016312
v 0.006757 0.009915 -0.016312
v 0.006757 0.009915 -0.016312
v 0.006757 0.009915 -0.016312
v 0.000000 0.009915 -0.017656
v 0.000000 0.009915 -0.017656
v 0.000000 0.009915 -0.017656
v 0.000000 0.009915 -0.017656
v 0.012485 0.009915 -0.012485
v 0.012485 0.009915 -0.012485
v 0.012485 0.009915 -0.012485
v 0.012485 0.009915 -0.012485
v 0.016312 0.009915 -0.006757
v 0.016312 0.009915 -0.006757
v 0.016312 0.009915 -0.006757
v 0.016312 0.009915 -0.006757
v 0.017656 0.009915 0.000000
v 0.017656 0.009915 0.000000
v 0.017656 0.009915 0.000000
v 0.017656 0.009915 0.000000
v 0.016312 0.009915 0.006757
v 0.016312 0.009915 0.006757
v 0.016312 0.009915 0.006757
v 0.016312 0.009915 0.006757
v 0.012485 0.009915 0.012485
v 0.012485 0.009915 0.012485
v 0.012485 0.009915 0.012485
v 0.012485 0.009915 0.012485
v 0.006757 0.009915 0.016312
v 0.006757 0.009915 0.016312
v 0.006757 0.009915 0.016312
v 0.006757 0.009915 0.016312
v 0.000000 0.009915 0.017656
v 0.000000 0.009915 0.017656
v 0.000000 0.009915 0.017656
v 0.000000 0.009915 0.017656
v -0.006757 0.009915 0.016312
v -0.006757 0.009915 0.016312
v -0.006757 0.009915 0.016312
v -0.006757 0.009915 0.016312
v -0.012485 0.009915 0.012485
v -0.012485 0.009915 0.012485
v -0.012485 0.009915 0.012485
v -0.012485 0.009915 0.012485
v -0.016312 0.009915 0.006757
v -0.016312 0.009915 0.006757
v -0.016312 0.009915 0.006757
v -0.016312 0.009915 0.006757
v -0.017656 0.009915 0.000000
v -0.017656 0.009915 0.000000
v -0.017656 0.009915 0.000000
v -0.017656 0.009915 0.000000
v -0.016312 0.009915 -0.006757
v -0.016312 0.009915 -0.006757
v -0.016312 0.009915 -0.006757
v -0.016312 0.009915 -0.006757
v -0.012485 0.009915 -0.012485
v -0.012485 0.009915 -0.012485
v -0.012485 0.009915 -0.012485
v -0.012485 0.009915 -0.012485
v -0.006757 0.009915 -0.016312
v -0.006757 0.009915 -0.016312
v -0.006757 0.009915 -0.016312
v -0.006757 0.009915 -0.016312
v 0.005586 0.002561 -0.013487
v 0.005586 0.002561 -0.013487
v 0.005586 0.002561 -0.013487
v 0.000000 0.002561 -0.014598
v 0.000000 0.002561 -0.014598
v 0.000000 0.002561 -0.014598
v 0.010322 0.002561 -0.010322
v 0.010322 0.002561 -0.010322
v 0.010322 0.002561 -0.010322
v 0.013487 0.002561 -0.005586
v 0.013487 0.002561 -0.005586
v 0.013487 0.002561 -0.005586
v 0.014598 0.002561 0.000000
v 0.014598 0.002561 0.000000
v 0.014598 0.002561 0.000000
v 0.013487 0.002561 0.005586
v 0.013487 0.002561 0.005586
v 0.013487 0.002561 0.005586
v 0.010322 0.002561 0.010322
v 0.010322 0.002561 0.010322
v 0.010322 0.002561 0.010322
v 0.005586 0.002561 0.013487
v 0.005586 0.002561 0.013487
v 0.005586 0.002561 0.013487
v 0.000000 0.002561 0.014598
v 0.000000 0.002561 0.014598
v 0.000000 0.002561 0.014598
v -0.005586 0.002561 0.013487
v -0.005586 0.002561 0.013487
v -0.005586 0.002561 0.013487
v -0.010322 0.002561 0.010322
v -0.010322 0.002561 0.010322
v -0.010322 0.002561 0.010322
v -0.013487 0.002561 0.005586
v -0.013487 0.002561 0.005586
v -0.013487 0.002561 0.005586
v -0.014598 0.002561 0.000000
v -0.014598 0.002561 0.000000
v -0.014598 0.002561 0.000000
v -0.013487 0.002561 -0.005586
v -0.013487 0.002561 -0.005586
v -0.013487 0.002561 -0.005586
v -0.010322 0.002561 -0.010322
v -0.010322 0.002561 -0.010322
v -0.010322 0.002561 -0.010322
v -0.005586 0.002561 -0.013487
v -0.005586 0.002561 -0.013487
v -0.005586 0.002561 -0.013487
vn -0.0000 -0.0000 -1.0000
vn -0.0000 -0.0000 1.0000
vn 0.3996 0.0638 0.9145
vn 0.4694 0.0641 0.8806
vn 0.4694 0.0641 0.8807
vn 0.5337 0.0609 0.8435
vn 0.5763 0.0294 0.8167
vn 0.5953 0.0162 0.8033
vn 0.6136 0.0041 0.7896
vn 0.6177 -0.0002 0.7864
vn 0.6104 -0.0096 0.7920
vn 0.5848 -0.0106 0.8111
vn 0.4962 -0.0251 0.8678
vn 0.3607 -0.0714 0.9300
vn 0.3607 -0.0714 0.9299
vn 0.1804 0.0884 0.9796
vn 0.1804 0.0885 0.9796
vn 0.3775 -0.2500 0.8916
vn 0.3776 -0.2500 0.8916
vn -0.3996 0.0638 0.9145
vn -0.4694 0.0641 0.8806
vn -0.4694 0.0641 0.8807
vn -0.5337 0.0609 0.8435
vn -0.5763 0.0294 0.8167
vn -0.5953 0.0162 0.8033
vn -0.6136 0.0041 0.7896
vn -0.6177 -0.0002 0.7864
vn -0.6105 -0.0096 0.7920
vn -0.6104 -0.0096 0.7920
vn -0.5848 -0.0106 0.8111
vn -0.4962 -0.0251 0.8678
vn -0.3607 -0.0714 0.9300
vn -0.3607 -0.0714 0.9299
vn -0.1804 0.0884 0.9796
vn -0.3775 -0.2500 0.8916
vn -0.3775 -0.2500 -0.8916
vn -0.3776 -0.2500 -0.8916
vn -0.1804 0.0884 -0.9796
vn -0.1805 0.0884 -0.9796
vn -0.3607 -0.0714 -0.9300
vn -0.3607 -0.0714 -0.9299
vn -0.4962 -0.0251 -0.8678
vn -0.5848 -0.0106 -0.8111
vn -0.6104 -0.0096 -0.7920
vn -0.6104 -0.0096 -0.7921
vn -0.6177 -0.0002 -0.7864
vn -0.6136 0.0041 -0.7896
vn -0.5953 0.0162 -0.8033
vn -0.5763 0.0294 -0.8167
vn -0.5337 0.0609 -0.8435
vn -0.4694 0.0641 -0.8806
vn -0.4694 0.0641 -0.8807
vn -0.3996 0.0638 -0.9145
vn 0.3775 -0.2500 -0.8916
vn 0.1804 0.0884 -0.9796
vn 0.3607 -0.0714 -0.9300
vn 0.3607 -0.0714 -0.9299
vn 0.4962 -0.0251 -0.8678
vn 0.5848 -0.0106 -0.8111
vn 0.6105 -0.0096 -0.7920
vn 0.6104 -0.0096 -0.7920
vn 0.6177 -0.0002 -0.7864
vn 0.6136 0.0041 -0.7896
vn 0.5953 0.0162 -0.8033
vn 0.5763 0.0294 -0.8167
vn 0.5337 0.0609 -0.8435
vn 0.4694 0.0641 -0.8806
vn 0.4694 0.0641 -0.8807
vn 0.3996 0.0638 -0.9145
vn 0.9074 -0.4202 -0.0000
vn -0.9074 -0.4202 -0.0000
vn -0.0150 0.9999 -0.0000
vn 0.7176 -0.6964 -0.0000
vn -0.3965 0.9180 -0.0000
vn -0.9999 -0.0150 -0.0000
vn -0.9180 -0.3965 -0.0000
vn -0.6964 -0.7176 -0.0000
vn -0.3688 -0.9295 -0.0000
vn 0.0150 -0.9999 -0.0000
vn 0.3965 -0.9180 -0.0000
vn 0.9295 -0.3688 -0.0000
vn 0.9999 0.0150 -0.0000
vn 0.9180 0.3965 -0.0000
vn 0.6964 0.7176 -0.0000
vn 0.3688 0.9295 -0.0000
vn -0.7176 0.6964 -0.0000
vn -0.9295 0.3688 -0.0000
vn -0.2804 0.6491 0.7071
vn -0.2804 0.6491 -0.7071
vn -0.5075 0.4924 0.7071
vn -0.5075 0.4924 -0.7071
vn -0.6573 0.2608 0.7071
vn -0.6573 0.2608 -0.7071
vn -0.7070 -0.0106 0.7071
vn -0.7070 -0.0106 -0.7071
vn -0.6491 -0.2804 0.7071
vn -0.6491 -0.2804 -0.7071
vn -0.4924 -0.5075 0.7071
vn -0.4924 -0.5075 -0.7071
vn -0.2608 -0.6573 0.7071
vn -0.2608 -0.6573 -0.7071
vn 0.0106 -0.7070 0.7071
vn 0.0106 -0.7070 -0.7071
vn 0.2804 -0.6491 0.7071
vn 0.2804 -0.6491 -0.7071
vn 0.5075 -0.4924 0.7071
vn 0.5075 -0.4924 -0.7071
vn 0.6573 -0.2608 0.7071
vn 0.6573 -0.2608 -0.7071
vn 0.7070 0.0106 0.7071
vn 0.7070 0.0106 -0.7071
vn 0.6491 0.2804 0.7071
vn 0.6491 0.2804 -0.7071
vn 0.4924 0.5075 0.7071
vn 0.4924 0.5075 -0.7071
vn 0.2608 0.6573 0.7071
vn 0.2608 0.6573 -0.7071
vn -0.0106 0.7070 0.7071
vn -0.0106 0.7070 -0.7071
vn 0.0699 0.0390 -0.9968
vn 0.0699 0.0390 0.9968
vn 1.0000 -0.0000 -0.0000
vn 0.1506 0.9886 -0.0000
vn -0.1876 -0.7946 -0.5774
vn -0.6071 -0.7947 -0.0000
vn 0.4911 -0.7946 -0.3568
vn 0.4911 -0.7946 0.3568
vn -0.1876 -0.7946 0.5774
vn -0.9822 -0.1876 -0.0000
vn -0.3035 -0.1876 -0.9342
vn 0.7946 -0.1876 -0.5774
vn 0.7946 -0.1876 0.5774
vn -0.3035 -0.1876 0.9342
vn -0.7947 0.1876 -0.5774
vn 0.3035 0.1876 -0.9342
vn 0.9822 0.1876 -0.0000
vn 0.3035 0.1876 0.9342
vn -0.7947 0.1876 0.5774
vn -0.4911 0.7947 -0.3568
vn 0.1876 0.7947 -0.5774
vn 0.6071 0.7947 -0.0000
vn 0.1876 0.7947 0.5774
vn -0.4911 0.7947 0.3568
vn 0.1595 -0.9791 -0.1265
vn 0.1594 -0.9791 -0.1260
vn 0.1595 -0.9791 0.1264
vn 0.1595 -0.9791 0.1263
vn 0.1566 0.9797 0.1253
vn 0.1567 0.9796 0.1261
vn 0.1567 0.9796 -0.1256
vn 0.1506 -0.9886 -0.0000
vn -0.0699 0.0390 -0.9968
vn -0.0699 0.0390 0.9968
vn -1.0000 -0.0000 -0.0000
vn -0.1506 0.9886 -0.0000
vn 0.1876 -0.7947 -0.5774
vn 0.6071 -0.7947 -0.0000
vn -0.4911 -0.7946 -0.3568
vn -0.4911 -0.7946 0.3568
vn 0.1876 -0.7947 0.5774
vn 0.9822 -0.1876 -0.0000
vn 0.3035 -0.1876 -0.9342
vn -0.7946 -0.1876 -0.5774
vn -0.7946 -0.1876 0.5774
vn 0.3035 -0.1876 0.9342
vn 0.7947 0.1876 -0.5774
vn -0.3035 0.1876 -0.9342
vn -0.9822 0.1876 -0.0000
vn -0.3035 0.1876 0.9342
vn 0.7947 0.1876 0.5774
vn 0.4911 0.7947 -0.3568
vn -0.1876 0.7947 -0.5774
vn -0.6071 0.7947 -0.0000
vn -0.1876 0.7947 0.5774
vn 0.4911 0.7947 0.3568
vn -0.1594 -0.9791 -0.1260
vn -0.1595 -0.9791 -0.1265
vn -0.1595 -0.9791 0.1263
vn -0.1595 -0.9791 0.1264
vn -0.1567 0.9796 0.1261
vn -0.1566 0.9797 0.1253
vn -0.1567 0.9796 -0.1256
vn -0.1506 -0.9886 -0.0000
vn -0.1951 -0.0000 0.9808
vn -0.5556 -0.0000 0.8315
vn -0.8315 -0.0000 0.5556
vn -0.9808 -0.0000 0.1951
vn -0.9808 -0.0000 -0.1951
vn -0.8315 -0.0000 -0.5556
vn -0.5556 -0.0000 -0.8315
vn -0.1951 -0.0000 -0.9808
vn 0.1951 -0.0000 -0.9808
vn 0.5556 -0.0000 -0.8315
vn 0.8315 -0.0000 -0.5556
vn 0.9808 -0.0000 -0.1951
vn 0.9808 -0.0000 0.1951
vn 0.8315 -0.0000 0.5556
vn -0.5148 -0.3758 -0.7705
vn 0.5556 -0.0000 0.8315
vn 0.1951 -0.0000 0.9808
vn -0.7583 0.6342 -0.1508
vn 0.4295 0.6342 -0.6428
vn 0.4295 0.6342 0.6428
vn -0.6428 0.6342 0.4295
vn -0.1508 0.6342 -0.7583
vn 0.7583 0.6342 0.1508
vn -0.1508 0.6342 0.7583
vn -0.6428 0.6342 -0.4295
vn 0.6428 0.6342 -0.4295
vn 0.1508 0.6342 0.7583
vn -0.7583 0.6342 0.1508
vn 0.1508 0.6342 -0.7583
vn 0.6428 0.6342 0.4295
vn -0.4295 0.6342 0.6428
vn -0.4295 0.6342 -0.6428
vn 0.7583 0.6342 -0.1508
vn -0.0000 -1.0000 -0.0000
vn 0.1983 0.9802 -0.0000
vn 0.1983 0.9801 -0.0000
vn 0.1982 0.9802 -0.0000
vn -0.1983 -0.9802 -0.0000
vn -0.1982 -0.9802 -0.0000
vn -0.1983 -0.9801 -0.0000
vn -0.9814 -0.0000 -0.1921
vn 0.8356 -0.0000 0.5493
vn -0.8356 -0.0000 -0.5493
vn 0.5618 -0.0000 0.8273
vn -0.5618 -0.0000 -0.8273
vn 0.1982 -0.0000 0.9802
vn 0.1982 -0.0000 -0.9802
vn -0.1982 -0.0000 -0.9802
vn -0.1982 -0.0000 0.9802
vn 0.5618 -0.0000 -0.8273
vn -0.5618 -0.0000 0.8273
vn 0.8356 -0.0000 -0.5493
vn -0.8356 -0.0000 0.5493
vn 0.9814 -0.0000 -0.1921
vn -0.9814 -0.0000 0.1921
vn 0.9814 -0.0000 0.1921
vn -0.1983 0.9801 -0.0000
vn -0.1983 0.9802 -0.0000
vn 0.1983 -0.9801 -0.0000
vn 0.1983 -0.9802 -0.0000
vn -0.1982 0.9802 -0.0000
vn -0.1987 0.9801 -0.0000
vn 0.1982 -0.9802 -0.0000
vn 0.9089 -0.3758 -0.1808
vn -0.9089 -0.3758 -0.1808
vn 0.5148 -0.3758 -0.7705
vn 0.5148 -0.3758 0.7705
vn -0.7705 -0.3758 0.5148
vn -0.1808 -0.3758 -0.9089
vn -0.1808 -0.3758 0.9089
vn 0.9089 -0.3758 0.1808
vn -0.7705 -0.3758 -0.5148
vn 0.7705 -0.3758 -0.5148
vn 0.1808 -0.3758 0.9089
vn -0.9089 -0.3758 0.1808
vn 0.1808 -0.3758 -0.9089
vn 0.7705 -0.3758 0.5148
vn -0.5148 -0.3758 0.7705
vn 0.7699 0.3777 -0.5144
vn -0.0000 1.0000 -0.0000
vn -0.9082 0.3777 0.1806
vn 0.9082 0.3777 -0.1806
vn -0.9082 0.3777 -0.1806
vn 0.9082 0.3777 0.1806
vn -0.7699 0.3777 -0.5144
vn 0.7699 0.3777 0.5144
vn -0.5144 0.3777 -0.7699
vn 0.5144 0.3777 0.7699
vn -0.1806 0.3777 -0.9082
vn -0.1806 0.3777 0.9082
vn 0.1806 0.3777 0.9082
vn 0.1806 0.3777 -0.9082
vn -0.5144 0.3777 0.7699
vn 0.5144 0.3777 -0.7699
vn -0.7699 0.3777 0.5144
vt 0.000000 0.000000
vt 0.062500 0.518416
vt 0.062500 0.981584
vt 0.000000 0.981584
vt 0.000000 0.518416
vt 0.882035 0.382034
vt 0.821456 0.422511
vt 0.839034 0.464948
vt 0.914514 0.414514
vt 0.922511 0.321457
vt 0.964948 0.339034
vt 0.936725 0.250000
vt 0.964948 0.339034
vt 0.982658 0.250000
vt 0.922511 0.178543
vt 0.964948 0.160966
vt 0.882034 0.117966
vt 0.914514 0.085486
vt 0.821457 0.077489
vt 0.839034 0.035052
vt 0.750000 0.063275
vt 0.750000 0.017342
vt 0.678543 0.077489
vt 0.660966 0.035052
vt 0.617966 0.117966
vt 0.660966 0.035052
vt 0.585486 0.085486
vt 0.577489 0.178543
vt 0.535052 0.160966
vt 0.563275 0.250000
vt 0.517342 0.250000
vt 0.577489 0.321457
vt 0.535052 0.339034
vt 0.617966 0.382035
vt 0.535052 0.339034
vt 0.585486 0.414514
vt 0.678543 0.422511
vt 0.660966 0.464948
vt 0.750000 0.436725
vt 0.660966 0.464948
vt 0.750000 0.482658
vt 0.250000 0.063275
vt 0.321457 0.077489
vt 1.000000 0.518416
vt 1.000000 0.981584
vt 0.937500 0.981584
vt 0.937500 0.518416
vt 0.321457 0.422511
vt 0.382034 0.382034
vt 0.414514 0.414514
vt 0.339034 0.464948
vt 0.250000 0.436725
vt 0.250000 0.482658
vt 0.178543 0.422511
vt 0.160966 0.464948
vt 0.422511 0.321457
vt 0.464948 0.339034
vt 0.812500 0.518416
vt 0.812500 0.981584
vt 0.750000 0.981584
vt 0.750000 0.518416
vt 0.436725 0.250000
vt 0.482658 0.250000
vt 0.750000 0.518416
vt 0.750000 0.981584
vt 0.687500 0.981584
vt 0.687500 0.518416
vt 0.422511 0.178543
vt 0.464948 0.160966
vt 0.482658 0.250000
vt 0.687500 0.981584
vt 0.625000 0.981584
vt 0.625000 0.518416
vt 0.382034 0.117966
vt 0.414514 0.085486
vt 0.625000 0.518416
vt 0.625000 0.981584
vt 0.562500 0.981584
vt 0.562500 0.518416
vt 0.339034 0.035052
vt 0.414514 0.085486
vt 0.562500 0.518416
vt 0.500000 0.981584
vt 0.500000 0.518416
vt 0.250000 0.017342
vt 0.339034 0.035052
vt 0.437500 0.981584
vt 0.437500 0.518416
vt 0.178543 0.077489
vt 0.160966 0.035052
vt 0.437500 0.981584
vt 0.375000 0.981584
vt 0.375000 0.518416
vt 0.117966 0.117966
vt 0.085486 0.085486
vt 0.160966 0.035052
vt 0.375000 0.518416
vt 0.375000 0.981584
vt 0.312500 0.981584
vt 0.312500 0.518416
vt 0.077489 0.178543
vt 0.035052 0.160966
vt 0.312500 0.518416
vt 0.250000 0.981584
vt 0.250000 0.518416
vt 0.063275 0.250000
vt 0.017342 0.250000
vt 0.187500 0.981584
vt 0.187500 0.518416
vt 0.077489 0.321457
vt 0.035052 0.339034
vt 0.017342 0.250000
vt 0.187500 0.518416
vt 0.187500 0.981584
vt 0.125000 0.981584
vt 0.125000 0.518416
vt 0.117966 0.382034
vt 0.085486 0.414514
vt 0.125000 0.518416
vt 0.125000 0.981584
vt 0.062500 0.981584
vt 0.062500 0.518416
vt 0.085486 0.414514
vt 0.937500 0.518416
vt 0.937500 0.981584
vt 0.875000 0.981584
vt 0.875000 0.518416
vt 0.875000 0.518416
vt 0.875000 0.981584
vt 0.812500 0.981584
vt 0.812500 0.518416
vt 0.938456 0.500000
vt 0.999044 0.500000
vt 0.341844 0.471731
vt 0.250000 0.490000
vt 0.875956 0.500000
vt 0.936544 0.500000
vt 0.419706 0.419706
vt 0.813456 0.500000
vt 0.874044 0.500000
vt 0.471731 0.341844
vt 0.750956 0.500000
vt 0.811544 0.500000
vt 0.490000 0.250000
vt 0.688456 0.500000
vt 0.749044 0.500000
vt 0.471731 0.158156
vt 0.625956 0.500000
vt 0.686544 0.500000
vt 0.419706 0.080294
vt 0.563456 0.500000
vt 0.624044 0.500000
vt 0.341844 0.028269
vt 0.500956 0.500000
vt 0.561544 0.500000
vt 0.250000 0.010000
vt 0.438456 0.500000
vt 0.499044 0.500000
vt 0.158156 0.028269
vt 0.375956 0.500000
vt 0.436544 0.500000
vt 0.080294 0.080294
vt 0.313456 0.500000
vt 0.374044 0.500000
vt 0.028269 0.158156
vt 0.250956 0.500000
vt 0.311544 0.500000
vt 0.010000 0.250000
vt 0.188456 0.500000
vt 0.249044 0.500000
vt 0.028269 0.341844
vt 0.125956 0.500000
vt 0.186544 0.500000
vt 0.080294 0.419706
vt 0.063456 0.500000
vt 0.124044 0.500000
vt 0.158156 0.471731
vt 0.000956 0.500000
vt 0.061544 0.500000
vt 0.378777 0.000000
vt 0.621222 0.000000
vt 0.378777 0.250000
vt 0.621222 0.250000
vt 0.375000 0.173866
vt 0.375000 0.076134
vt 0.625000 0.076114
vt 0.625000 0.173886
vt 0.181819 0.000000
vt 0.272728 0.157461
vt 0.090910 0.157461
vt 0.363637 0.000000
vt 0.454546 0.157461
vt 0.909091 0.000000
vt 1.000000 0.157461
vt 0.818182 0.157461
vt 0.727273 0.000000
vt 0.636364 0.157461
vt 0.545455 0.000000
vt 0.363637 0.314921
vt 0.181819 0.314921
vt 0.909091 0.314921
vt 0.727273 0.314921
vt 0.545455 0.314921
vt 0.000000 0.314921
vt 0.272728 0.472382
vt 0.090910 0.472382
vt 0.818182 0.472382
vt 0.636364 0.472382
vt 0.454546 0.472382
vt 1.000000 0.500000
vt 1.000000 1.000000
vt 0.937500 1.000000
vt 0.937500 0.500000
vt 0.875000 1.000000
vt 0.875000 0.500000
vt 0.812500 1.000000
vt 0.812500 0.500000
vt 0.750000 1.000000
vt 0.750000 0.500000
vt 0.687500 1.000000
vt 0.687500 0.500000
vt 0.625000 1.000000
vt 0.625000 0.500000
vt 0.562500 1.000000
vt 0.562500 0.500000
vt 0.500000 1.000000
vt 0.500000 0.500000
vt 0.437500 1.000000
vt 0.437500 0.500000
vt 0.375000 1.000000
vt 0.375000 0.500000
vt 0.312500 1.000000
vt 0.312500 0.500000
vt 0.250000 1.000000
vt 0.250000 0.500000
vt 0.187500 1.000000
vt 0.187500 0.500000
vt 0.125000 1.000000
vt 0.125000 0.500000
vt 0.062500 1.000000
vt 0.062500 0.500000
vt 0.000000 1.000000
vt 0.000000 0.500000
vt 0.658156 0.471731
vt 0.750000 0.490000
vt 0.841844 0.471731
vt 0.919706 0.419706
vt 0.971731 0.341844
vt 0.990000 0.250000
vt 0.971731 0.158156
vt 0.919706 0.080294
vt 0.841844 0.028269
vt 0.750000 0.010000
vt 0.658156 0.028269
vt 0.580294 0.080294
vt 0.528269 0.158156
vt 0.510000 0.250000
vt 0.528269 0.341844
vt 0.580294 0.419706
s 0
usemtl Blade
f 45/1/1 3/1/1 43/1/1
f 45/1/1 48/1/1 6/1/1
f 45/1/1 6/1/1 3/1/1
f 48/1/1 51/1/1 9/1/1
f 48/1/1 9/1/1 6/1/1
f 51/1/1 54/1/1 12/1/1
f 51/1/1 12/1/1 9/1/1
f 54/1/1 57/1/1 15/1/1
f 54/1/1 15/1/1 12/1/1
f 57/1/1 60/1/1 18/1/1
f 57/1/1 18/1/1 15/1/1
f 60/1/1 63/1/1 21/1/1
f 60/1/1 21/1/1 18/1/1
f 63/1/1 66/1/1 24/1/1
f 63/1/1 24/1/1 21/1/1
f 66/1/1 69/1/1 27/1/1
f 66/1/1 27/1/1 24/1/1
f 69/1/1 72/1/1 30/1/1
f 69/1/1 30/1/1 27/1/1
f 72/1/1 75/1/1 33/1/1
f 72/1/1 33/1/1 30/1/1
f 78/1/1 39/1/1 36/1/1
f 78/1/1 36/1/1 33/1/1
f 78/1/1 33/1/1 75/1/1
f 125/1/2 123/1/2 83/1/2
f 125/1/2 83/1/2 86/1/2
f 125/1/2 86/1/2 128/1/2
f 128/1/2 86/1/2 89/1/2
f 128/1/2 89/1/2 131/1/2
f 131/1/2 89/1/2 92/1/2
f 131/1/2 92/1/2 134/1/2
f 134/1/2 92/1/2 95/1/2
f 134/1/2 95/1/2 137/1/2
f 137/1/2 95/1/2 98/1/2
f 137/1/2 98/1/2 140/1/2
f 140/1/2 98/1/2 101/1/2
f 140/1/2 101/1/2 143/1/2
f 143/1/2 101/1/2 104/1/2
f 143/1/2 104/1/2 146/1/2
f 146/1/2 104/1/2 107/1/2
f 146/1/2 107/1/2 149/1/2
f 149/1/2 107/1/2 110/1/2
f 149/1/2 110/1/2 152/1/2
f 152/1/2 110/1/2 113/1/2
f 152/1/2 113/1/2 155/1/2
f 158/1/2 116/1/2 119/1/2
f 158/1/2 155/1/2 113/1/2
f 158/1/2 113/1/2 116/1/2
s 1
f 161/1/3 167/1/3 85/1/3
f 161/1/3 85/1/3 81/1/3
f 165/1/4 171/1/4 88/1/4
f 165/1/4 88/1/4 84/1/5
f 169/1/6 175/1/6 91/1/6
f 169/1/6 91/1/6 87/1/6
f 173/1/7 179/1/7 94/1/7
f 173/1/7 94/1/7 90/1/7
f 177/1/8 183/1/8 97/1/8
f 177/1/8 97/1/8 93/1/8
f 181/1/9 187/1/9 100/1/9
f 181/1/9 100/1/9 96/1/9
f 185/1/10 189/1/10 102/1/10
f 185/1/10 102/1/10 99/1/10
f 191/1/11 193/1/11 105/1/11
f 191/1/11 105/1/11 103/1/11
f 195/1/12 197/1/12 108/1/12
f 195/1/12 108/1/12 106/1/12
f 199/1/13 201/1/13 111/1/13
f 199/1/13 111/1/13 109/1/13
f 203/1/14 205/1/14 114/1/15
f 203/1/14 114/1/15 112/1/15
f 115/1/16 207/1/16 266/1/17
f 266/1/17 273/1/16 209/1/16
f 209/1/16 118/1/16 115/1/16
f 266/1/17 209/1/16 115/1/16
f 213/1/18 163/1/18 82/1/18
f 213/1/18 82/1/18 122/1/19
f 221/1/20 219/1/20 127/1/20
f 221/1/20 127/1/20 129/1/20
f 225/1/21 223/1/22 130/1/21
f 225/1/21 130/1/21 132/1/21
f 229/1/23 227/1/23 133/1/23
f 229/1/23 133/1/23 135/1/23
f 233/1/24 231/1/24 136/1/24
f 233/1/24 136/1/24 138/1/24
f 237/1/25 235/1/25 139/1/25
f 237/1/25 139/1/25 141/1/25
f 241/1/26 239/1/26 142/1/26
f 241/1/26 142/1/26 144/1/26
f 247/1/27 243/1/27 145/1/27
f 247/1/27 145/1/27 148/1/27
f 251/1/28 245/1/29 147/1/29
f 251/1/28 147/1/29 151/1/29
f 255/1/30 249/1/30 150/1/30
f 255/1/30 150/1/30 154/1/30
f 259/1/31 253/1/31 153/1/31
f 259/1/31 153/1/31 157/1/31
f 263/1/32 257/1/33 156/1/32
f 263/1/32 156/1/32 160/1/32
f 120/1/34 211/1/34 271/1/34
f 271/1/34 268/1/34 261/1/34
f 261/1/34 159/1/34 120/1/34
f 271/1/34 261/1/34 120/1/34
f 217/1/35 215/1/35 124/1/35
f 217/1/35 124/1/35 126/1/35
f 46/1/36 44/1/37 216/1/36
f 46/1/36 216/1/36 218/1/36
f 212/1/38 40/1/38 79/1/39
f 79/1/39 262/1/38 269/1/38
f 269/1/38 272/1/38 212/1/38
f 79/1/39 269/1/38 212/1/38
f 80/1/40 76/1/41 258/1/40
f 80/1/40 258/1/40 264/1/40
f 77/1/42 73/1/42 254/1/42
f 77/1/42 254/1/42 260/1/42
f 74/1/43 70/1/43 250/1/43
f 74/1/43 250/1/43 256/1/43
f 71/1/44 67/1/45 246/1/44
f 71/1/44 246/1/44 252/1/44
f 68/1/46 65/1/46 244/1/46
f 68/1/46 244/1/46 248/1/46
f 64/1/47 62/1/47 240/1/47
f 64/1/47 240/1/47 242/1/47
f 61/1/48 59/1/48 236/1/48
f 61/1/48 236/1/48 238/1/48
f 58/1/49 56/1/49 232/1/49
f 58/1/49 232/1/49 234/1/49
f 55/1/50 53/1/50 228/1/50
f 55/1/50 228/1/50 230/1/50
f 52/1/51 50/1/52 224/1/51
f 52/1/51 224/1/51 226/1/51
f 49/1/53 47/1/53 220/1/53
f 49/1/53 220/1/53 222/1/53
f 42/1/54 2/1/54 164/1/54
f 42/1/54 164/1/54 214/1/54
f 208/1/55 35/1/55 38/1/55
f 38/1/55 210/1/55 274/1/55
f 274/1/55 267/1/55 208/1/55
f 38/1/55 274/1/55 208/1/55
f 32/1/56 34/1/56 206/1/56
f 32/1/56 206/1/56 204/1/57
f 29/1/58 31/1/58 202/1/58
f 29/1/58 202/1/58 200/1/58
f 26/1/59 28/1/59 198/1/59
f 26/1/59 198/1/59 196/1/59
f 23/1/60 25/1/61 194/1/60
f 23/1/60 194/1/60 192/1/61
f 19/1/62 22/1/62 190/1/62
f 19/1/62 190/1/62 186/1/62
f 16/1/63 20/1/63 188/1/63
f 16/1/63 188/1/63 182/1/63
f 13/1/64 17/1/64 184/1/64
f 13/1/64 184/1/64 178/1/64
f 10/1/65 14/1/65 180/1/65
f 10/1/65 180/1/65 174/1/65
f 7/1/66 11/1/66 176/1/66
f 7/1/66 176/1/66 170/1/66
f 4/1/67 8/1/67 172/1/67
f 4/1/67 172/1/67 166/1/68
f 1/1/69 5/1/69 168/1/69
f 1/1/69 168/1/69 162/1/69
s 0
f 37/1/70 265/1/70 117/1/70
f 270/1/71 41/1/71 121/1/71
usemtl Hilt
f 689/2/72 700/3/72 489/4/72
f 689/2/72 489/4/72 471/5/72
f 289/6/2 283/7/2 478/8/2
f 289/6/2 478/8/2 499/9/2
f 295/10/2 289/6/2 499/9/2
f 295/10/2 499/9/2 513/11/2
f 301/12/2 295/10/2 514/13/2
f 301/12/2 514/13/2 528/14/2
f 307/15/2 301/12/2 528/14/2
f 307/15/2 528/14/2 543/16/2
f 313/17/2 307/15/2 543/16/2
f 313/17/2 543/16/2 557/18/2
f 318/19/2 313/17/2 557/18/2
f 318/19/2 557/18/2 573/20/2
f 323/21/2 318/19/2 573/20/2
f 323/21/2 573/20/2 589/22/2
f 329/23/2 323/21/2 589/22/2
f 329/23/2 589/22/2 604/24/2
f 335/25/2 329/23/2 603/26/2
f 335/25/2 603/26/2 619/27/2
f 341/28/2 335/25/2 619/27/2
f 341/28/2 619/27/2 633/29/2
f 347/30/2 341/28/2 633/29/2
f 347/30/2 633/29/2 647/31/2
f 353/32/2 347/30/2 647/31/2
f 353/32/2 647/31/2 662/33/2
f 359/34/2 353/32/2 663/35/2
f 359/34/2 663/35/2 677/36/2
f 281/7/73 288/6/73 384/6/73
f 281/7/73 384/6/73 374/7/73
f 366/37/2 359/34/2 677/36/2
f 366/37/2 677/36/2 692/38/2
f 277/39/2 366/37/2 691/40/2
f 277/39/2 691/40/2 467/41/2
f 327/42/72 322/43/72 418/43/72
f 327/42/72 418/43/72 423/42/72
f 473/44/74 491/45/74 485/46/74
f 473/44/74 485/46/74 475/47/74
f 286/48/1 292/49/1 502/50/1
f 286/48/1 502/50/1 481/51/1
f 280/52/1 286/48/1 481/51/1
f 280/52/1 481/51/1 492/53/1
f 369/54/1 280/52/1 492/53/1
f 369/54/1 492/53/1 695/55/1
f 292/49/1 298/56/1 517/57/1
f 292/49/1 517/57/1 502/50/1
f 512/58/75 523/59/75 538/60/75
f 512/58/75 538/60/75 527/61/75
f 298/56/1 304/62/1 532/63/1
f 298/56/1 532/63/1 517/57/1
f 526/64/76 537/65/76 552/66/76
f 526/64/76 552/66/76 542/67/76
f 304/62/1 310/68/1 546/69/1
f 304/62/1 546/69/1 531/70/1
f 541/67/77 551/71/77 567/72/77
f 541/67/77 567/72/77 556/73/77
f 310/68/1 316/74/1 561/75/1
f 310/68/1 561/75/1 546/69/1
f 554/76/78 565/77/78 582/78/78
f 554/76/78 582/78/78 571/79/78
f 316/74/1 321/43/1 576/80/1
f 316/74/1 576/80/1 560/81/1
f 568/82/79 579/78/79 595/83/79
f 568/82/79 595/83/79 585/84/79
f 321/43/1 326/42/1 592/85/1
f 321/43/1 592/85/1 577/86/1
f 583/84/80 593/83/80 611/87/80
f 583/84/80 611/87/80 599/88/80
f 326/42/1 332/89/1 608/90/1
f 326/42/1 608/90/1 592/85/1
f 597/88/73 609/91/73 624/92/73
f 597/88/73 624/92/73 614/93/73
f 332/89/1 338/94/1 622/95/1
f 332/89/1 622/95/1 607/96/1
f 613/97/81 623/98/81 638/99/81
f 613/97/81 638/99/81 628/100/81
f 338/94/1 344/101/1 636/102/1
f 338/94/1 636/102/1 622/95/1
f 627/103/82 637/99/82 652/104/82
f 627/103/82 652/104/82 641/105/82
f 344/101/1 350/106/1 650/107/1
f 344/101/1 650/107/1 636/102/1
f 642/105/83 653/104/83 667/108/83
f 642/105/83 667/108/83 656/109/83
f 350/106/1 356/110/1 666/111/1
f 350/106/1 666/111/1 651/112/1
f 657/113/84 668/114/84 682/115/84
f 657/113/84 682/115/84 671/116/84
f 356/110/1 362/117/1 681/118/1
f 356/110/1 681/118/1 666/111/1
f 673/119/85 684/120/85 697/121/85
f 673/119/85 697/121/85 686/122/85
f 362/117/1 369/54/1 695/55/1
f 362/117/1 695/55/1 680/123/1
f 477/124/86 487/125/86 507/126/86
f 477/124/86 507/126/86 497/127/86
f 498/128/87 508/129/87 522/130/87
s 1
f 498/128/87 522/130/87 511/131/87
s 0
f 388/49/1 379/48/1 382/52/1
f 382/52/1 465/54/1 458/117/1
f 458/117/1 452/110/1 446/106/1
f 446/106/1 440/101/1 434/94/1
f 434/94/1 428/89/1 422/42/1
f 422/42/1 417/43/1 412/74/1
f 412/74/1 406/68/1 400/62/1
f 400/62/1 394/56/1 388/49/1
f 388/49/1 382/52/1 458/117/1
f 458/117/1 446/106/1 434/94/1
f 434/94/1 422/42/1 412/74/1
f 412/74/1 400/62/1 388/49/1
f 388/49/1 458/117/1 434/94/1
f 434/94/1 412/74/1 388/49/1
f 462/37/2 373/39/2 376/7/2
f 376/7/2 385/6/2 391/10/2
f 391/10/2 397/12/2 403/15/2
f 403/15/2 409/17/2 414/19/2
f 414/19/2 419/21/2 425/23/2
f 425/23/2 431/25/2 437/28/2
f 437/28/2 443/30/2 449/32/2
f 449/32/2 455/34/2 462/37/2
f 462/37/2 376/7/2 391/10/2
f 391/10/2 403/15/2 414/19/2
f 414/19/2 425/23/2 437/28/2
f 437/28/2 449/32/2 462/37/2
f 462/37/2 391/10/2 414/19/2
f 414/19/2 437/28/2 462/37/2
f 370/54/78 363/117/78 459/117/78
f 370/54/78 459/117/78 466/54/78
f 325/21/74 330/23/74 426/23/74
f 325/21/74 426/23/74 421/21/74
f 291/49/73 284/48/73 377/48/73
f 291/49/73 377/48/73 387/49/73
f 365/37/79 276/39/79 372/39/79
f 365/37/79 372/39/79 461/37/79
f 333/89/74 328/42/74 424/42/74
f 333/89/74 424/42/74 429/89/74
s 1
f 287/6/81 294/10/81 390/10/81
s 0
f 287/6/81 390/10/81 383/6/81
f 279/52/79 368/54/79 464/54/79
f 279/52/79 464/54/79 381/52/79
f 331/23/86 336/25/86 432/25/86
f 331/23/86 432/25/86 427/23/86
f 297/56/81 290/49/81 386/49/81
f 297/56/81 386/49/81 393/56/81
f 339/94/86 334/89/86 430/89/86
f 339/94/86 430/89/86 435/94/86
f 293/10/82 299/12/82 395/12/82
f 293/10/82 395/12/82 389/10/82
f 337/25/87 342/28/87 438/28/87
f 337/25/87 438/28/87 433/25/87
f 302/62/82 296/56/82 392/56/82
f 302/62/82 392/56/82 398/62/82
f 345/101/87 340/94/87 436/94/87
f 345/101/87 436/94/87 441/101/87
f 300/12/83 305/15/83 401/15/83
f 300/12/83 401/15/83 396/12/83
f 343/28/75 349/30/75 445/30/75
f 343/28/75 445/30/75 439/28/75
f 308/68/83 303/62/83 399/62/83
f 308/68/83 399/62/83 404/68/83
f 352/106/75 346/101/75 442/101/75
f 352/106/75 442/101/75 448/106/75
f 306/15/84 311/17/84 407/17/84
f 306/15/84 407/17/84 402/15/84
f 348/30/76 355/32/76 451/32/76
f 348/30/76 451/32/76 444/30/76
f 314/74/84 309/68/84 405/68/84
f 314/74/84 405/68/84 410/74/84
f 358/110/76 351/106/76 447/106/76
f 358/110/76 447/106/76 454/110/76
f 312/17/85 317/19/85 413/19/85
f 312/17/85 413/19/85 408/17/85
f 354/32/77 361/34/77 457/34/77
f 354/32/77 457/34/77 450/32/77
f 320/43/85 315/74/85 411/74/85
s 1
f 320/43/85 411/74/85 416/43/85
s 0
f 275/39/80 282/7/80 375/7/80
f 275/39/80 375/7/80 371/39/80
f 364/117/77 357/110/77 453/110/77
f 364/117/77 453/110/77 460/117/77
f 319/19/72 324/21/72 420/21/72
f 319/19/72 420/21/72 415/19/72
f 285/48/80 278/52/80 380/52/80
f 285/48/80 380/52/80 378/48/80
f 360/34/78 367/37/78 463/37/78
f 360/34/78 463/37/78 456/34/78
f 472/44/88 474/47/88 479/132/88
f 472/44/88 479/132/88 469/133/88
f 484/134/89 490/135/89 494/53/89
f 484/134/89 494/53/89 482/51/89
f 476/124/90 495/127/90 500/136/90
f 476/124/90 500/136/90 480/137/90
f 505/138/91 486/134/91 483/51/91
f 505/138/91 483/51/91 503/50/91
f 496/128/92 509/131/92 515/139/92
f 496/128/92 515/139/92 501/140/92
f 520/141/93 506/138/93 504/50/93
f 520/141/93 504/50/93 518/57/93
f 510/58/94 525/61/94 530/142/94
f 510/58/94 530/142/94 516/143/94
f 536/144/95 521/141/95 519/57/95
f 536/144/95 519/57/95 534/63/95
f 524/64/96 540/67/96 545/145/96
f 524/64/96 545/145/96 529/146/96
f 550/147/97 535/144/97 533/70/97
f 550/147/97 533/70/97 548/69/97
f 539/67/98 555/73/98 559/148/98
f 539/67/98 559/148/98 544/149/98
f 566/150/99 549/147/99 547/69/99
f 566/150/99 547/69/99 563/75/99
f 553/76/100 570/79/100 574/151/100
f 553/76/100 574/151/100 558/152/100
f 581/153/101 564/150/101 562/81/101
f 581/153/101 562/81/101 578/80/101
f 569/82/102 586/84/102 588/154/102
f 569/82/102 588/154/102 572/155/102
f 596/156/103 580/153/103 575/86/103
f 596/156/103 575/86/103 591/85/103
f 584/84/104 600/88/104 602/157/104
f 584/84/104 602/157/104 587/158/104
f 612/159/105 594/156/105 590/85/105
f 612/159/105 590/85/105 606/90/105
f 598/88/106 616/93/106 618/160/106
f 598/88/106 618/160/106 601/161/106
f 626/162/107 610/159/107 605/96/107
f 626/162/107 605/96/107 621/95/107
f 615/97/108 630/100/108 632/163/108
f 615/97/108 632/163/108 617/164/108
f 640/165/109 625/162/109 620/95/109
f 640/165/109 620/95/109 635/102/109
f 629/103/110 643/105/110 645/166/110
f 629/103/110 645/166/110 631/167/110
f 654/168/111 639/165/111 634/102/111
f 654/168/111 634/102/111 648/107/111
f 644/105/112 658/109/112 660/169/112
f 644/105/112 660/169/112 646/170/112
f 669/171/113 655/168/113 649/112/113
f 669/171/113 649/112/113 664/111/113
f 659/113/114 672/116/114 675/172/114
f 659/113/114 675/172/114 661/173/114
f 683/174/115 670/171/115 665/111/115
f 683/174/115 665/111/115 678/118/115
f 674/119/116 687/122/116 690/175/116
f 674/119/116 690/175/116 676/176/116
f 698/177/117 685/174/117 679/123/117
f 698/177/117 679/123/117 694/55/117
f 688/2/118 470/5/118 468/178/118
f 688/2/118 468/178/118 693/179/118
f 488/135/119 699/177/119 696/55/119
f 488/135/119 696/55/119 493/53/119
f 283/7/2 277/39/2 467/41/2
f 283/7/2 467/41/2 478/8/2
s 1
f 766/180/120 802/1/120 814/1/120
f 766/180/120 814/1/120 769/181/120
f 775/182/121 784/183/121 794/1/121
f 775/182/121 794/1/121 790/1/121
s 0
f 776/184/122 761/185/122 764/180/122
f 764/180/122 767/181/122 770/186/122
f 770/186/122 779/187/122 782/183/122
f 782/183/122 773/182/122 776/184/122
f 776/184/122 764/180/122 770/186/122
f 770/186/122 782/183/122 776/184/122
f 772/186/123 810/1/123 798/1/123
f 772/186/123 798/1/123 781/187/123
f 704/188/124 706/189/124 714/190/124
f 708/189/125 705/191/125 728/192/125
s 1
f 702/193/126 712/194/126 720/195/126
f 701/196/127 719/195/127 722/197/127
s 0
f 703/198/128 724/197/128 726/192/128
f 710/189/129 730/192/129 755/199/129
f 715/190/130 707/189/130 733/200/130
f 718/195/131 711/194/131 737/201/131
f 721/197/132 717/195/132 742/202/132
f 727/192/133 725/197/133 748/203/133
f 709/189/134 754/199/134 735/200/134
f 713/190/135 731/200/135 739/204/135
f 716/195/136 736/201/136 741/202/136
f 723/197/137 744/202/137 746/203/137
f 729/192/138 750/203/138 753/199/138
f 734/200/139 752/199/139 760/205/139
f 740/204/140 732/200/140 758/206/140
f 743/202/141 738/201/141 756/207/141
f 747/203/142 745/202/142 757/208/142
f 751/199/143 749/203/143 759/209/143
f 762/185/144 805/1/144 801/1/144
f 762/185/145 801/1/145 765/180/145
s 1
f 774/182/146 789/1/146 785/1/146
s 0
f 774/182/147 785/1/147 777/184/147
f 780/187/148 797/1/148 793/1/148
f 780/187/149 793/1/149 783/183/149
f 768/181/150 813/1/150 809/1/150
s 1
f 768/181/150 809/1/150 771/186/150
s 0
f 763/185/151 778/184/151 786/1/151
f 763/185/151 786/1/151 806/1/151
s 1
f 880/180/152 883/181/152 815/1/152
f 880/180/152 815/1/152 803/1/152
f 889/182/153 791/1/153 795/1/153
f 889/182/153 795/1/153 898/183/153
s 0
f 882/180/154 879/185/154 894/184/154
f 894/184/154 891/182/154 900/183/154
f 900/183/154 897/187/154 888/186/154
f 888/186/154 885/181/154 882/180/154
f 882/180/154 894/184/154 900/183/154
f 900/183/154 888/186/154 882/180/154
f 886/186/155 895/187/155 799/1/155
f 886/186/155 799/1/155 811/1/155
f 819/188/156 828/190/156 826/189/156
f 824/189/157 844/192/157 817/191/157
s 1
f 821/193/158 833/195/158 830/194/158
f 820/196/159 840/197/159 832/195/159
s 0
f 818/198/160 846/192/160 838/197/160
f 822/189/161 867/199/161 842/192/161
f 827/190/162 849/200/162 825/189/162
f 835/195/163 855/201/163 831/194/163
f 841/197/164 860/202/164 834/195/164
f 845/192/165 864/203/165 837/197/165
f 823/189/166 847/200/166 869/199/166
f 829/190/167 853/204/167 851/200/167
f 836/195/168 861/202/168 856/201/168
f 839/197/169 866/203/169 858/202/169
f 843/192/170 868/199/170 862/203/170
f 848/200/171 873/205/171 871/199/171
f 852/204/172 875/206/172 850/200/172
f 859/202/173 876/207/173 854/201/173
f 865/203/174 874/208/174 857/202/174
f 870/199/175 872/209/175 863/203/175
f 878/185/176 881/180/176 804/1/176
f 878/185/177 804/1/177 808/1/177
f 890/182/178 893/184/178 788/1/178
s 1
f 890/182/179 788/1/179 792/1/179
s 0
f 896/187/180 899/183/180 796/1/180
f 896/187/181 796/1/181 800/1/181
s 1
f 884/181/182 887/186/182 812/1/182
s 0
f 884/181/182 812/1/182 816/1/182
f 877/185/183 807/1/183 787/1/183
f 877/185/183 787/1/183 892/184/183
f 904/210/184 908/211/184 914/212/184
f 904/210/184 914/212/184 910/213/184
f 912/213/185 916/212/185 922/214/185
f 912/213/185 922/214/185 918/215/185
f 920/215/186 924/214/186 930/216/186
f 920/215/186 930/216/186 927/217/186
f 928/217/187 932/216/187 939/218/187
f 928/217/187 939/218/187 935/219/187
f 936/219/188 940/218/188 948/220/188
f 936/219/188 948/220/188 944/221/188
f 943/221/189 946/220/189 956/222/189
f 943/221/189 956/222/189 952/223/189
f 950/223/190 954/222/190 964/224/190
f 950/223/190 964/224/190 960/225/190
f 958/225/191 962/224/191 972/226/191
f 958/225/191 972/226/191 968/227/191
f 965/227/192 969/226/192 979/228/192
f 965/227/192 979/228/192 975/229/192
f 973/229/193 977/228/193 987/230/193
f 973/229/193 987/230/193 983/231/193
f 981/231/194 985/230/194 995/232/194
f 981/231/194 995/232/194 990/233/194
f 989/233/195 993/232/195 1002/234/195
f 989/233/195 1002/234/195 998/235/195
f 997/235/196 1001/234/196 1009/236/196
f 997/235/196 1009/236/196 1005/237/196
f 1006/237/197 1011/236/197 1017/238/197
f 1006/237/197 1017/238/197 1013/239/197
f 963/224/198 953/222/198 1549/222/198
f 963/224/198 1549/222/198 1555/224/198
f 1015/239/199 1019/238/199 1025/240/199
f 1015/239/199 1025/240/199 1021/241/199
f 1023/241/200 1027/240/200 905/242/200
f 1023/241/200 905/242/200 901/243/200
f 934/219/201 942/221/201 1050/221/201
s 1
f 934/219/201 1050/221/201 1046/219/201
s 0
f 1065/229/193 1071/231/193 1124/231/193
f 1065/229/193 1124/231/193 1120/229/193
f 974/229/202 984/231/202 1072/231/202
f 974/229/202 1072/231/202 1066/229/202
f 1016/239/203 1022/241/203 1090/241/203
f 1016/239/203 1090/241/203 1088/239/203
f 919/215/204 925/217/204 1041/217/204
f 919/215/204 1041/217/204 1039/215/204
f 957/225/205 967/227/205 1063/227/205
f 957/225/205 1063/227/205 1057/225/205
f 999/235/206 1007/237/206 1083/237/206
s 1
f 999/235/206 1083/237/206 1079/235/206
s 0
f 903/210/207 909/213/207 1033/213/207
s 1
f 903/210/207 1033/213/207 1031/210/207
s 0
f 941/221/208 951/223/208 1055/223/208
f 941/221/208 1055/223/208 1049/221/208
f 982/231/209 992/233/209 1076/233/209
f 982/231/209 1076/233/209 1070/231/209
f 1024/241/210 902/243/210 1030/243/210
f 1024/241/210 1030/243/210 1092/241/210
s 1
f 926/217/211 933/219/211 1045/219/211
s 0
f 926/217/211 1045/219/211 1042/217/211
f 966/227/212 976/229/212 1068/229/212
s 1
f 966/227/212 1068/229/212 1062/227/212
s 0
f 1008/237/213 1014/239/213 1086/239/213
f 1008/237/213 1086/239/213 1084/237/213
f 911/213/214 917/215/214 1037/215/214
f 911/213/214 1037/215/214 1035/213/214
f 949/223/215 959/225/215 1059/225/215
f 949/223/215 1059/225/215 1053/223/215
s 1
f 991/233/216 1000/235/216 1080/235/216
s 0
f 991/233/216 1080/235/216 1075/233/216
f 1140/244/217 1094/245/217 1096/246/217
f 1096/246/217 1099/247/217 1102/248/217
f 1102/248/217 1105/249/217 1108/250/217
f 1108/250/217 1111/251/217 1114/252/217
f 1114/252/217 1118/253/217 1122/254/217
f 1122/254/217 1125/255/217 1128/256/217
f 1128/256/217 1131/257/217 1134/258/217
f 1134/258/217 1137/259/217 1140/244/217
f 1140/244/217 1096/246/217 1102/248/217
f 1102/248/217 1108/250/217 1114/252/217
f 1114/252/217 1122/254/217 1128/256/217
f 1128/256/217 1134/258/217 1140/244/217
f 1140/244/217 1102/248/217 1114/252/217
f 1114/252/217 1128/256/217 1140/244/217
f 1040/215/186 1043/217/186 1103/217/186
f 1040/215/186 1103/217/186 1101/215/186
f 1069/231/194 1074/233/194 1127/233/194
f 1069/231/194 1127/233/194 1123/231/194
f 1044/217/187 1047/219/187 1106/219/187
f 1044/217/187 1106/219/187 1104/217/187
f 1073/233/195 1078/235/195 1130/235/195
f 1073/233/195 1130/235/195 1126/233/195
f 1048/219/188 1052/221/188 1110/221/188
f 1048/219/188 1110/221/188 1107/219/188
f 1077/235/196 1081/237/196 1132/237/196
f 1077/235/196 1132/237/196 1129/235/196
f 1051/221/189 1056/223/189 1113/223/189
f 1051/221/189 1113/223/189 1109/221/189
f 1082/237/197 1085/239/197 1135/239/197
f 1082/237/197 1135/239/197 1133/237/197
f 1054/223/190 1060/225/190 1116/225/190
f 1054/223/190 1116/225/190 1112/223/190
f 1087/239/199 1089/241/199 1138/241/199
f 1087/239/199 1138/241/199 1136/239/199
f 1058/225/191 1064/227/191 1119/227/191
f 1058/225/191 1119/227/191 1115/225/191
f 1032/210/184 1034/213/184 1097/213/184
f 1032/210/184 1097/213/184 1095/210/184
f 1091/241/200 1029/243/200 1093/243/200
f 1091/241/200 1093/243/200 1139/241/200
f 1061/227/192 1067/229/192 1121/229/192
f 1061/227/192 1121/229/192 1117/227/192
f 1036/213/185 1038/215/185 1100/215/185
f 1036/213/185 1100/215/185 1098/213/185
f 1145/246/218 1141/245/218 1186/244/218
f 1186/244/218 1183/259/218 1180/258/218
f 1180/258/218 1177/257/218 1174/256/218
f 1174/256/219 1171/255/219 1168/254/219
f 1168/254/218 1165/253/218 1163/252/218
f 1163/252/220 1161/251/220 1158/250/220
f 1158/250/220 1155/249/220 1152/248/220
f 1152/248/220 1149/247/220 1145/246/220
s 1
f 1145/246/219 1186/244/219 1180/258/219
s 0
f 1180/258/219 1174/256/219 1168/254/219
f 1168/254/219 1163/252/219 1158/250/219
f 1158/250/219 1152/248/219 1145/246/219
f 1145/246/219 1180/258/219 1168/254/219
f 1168/254/219 1158/250/219 1145/246/219
f 1235/244/221 1191/245/221 1194/246/221
f 1194/246/221 1197/247/221 1200/248/221
f 1200/248/222 1203/249/222 1206/250/222
f 1206/250/223 1209/251/223 1212/252/223
f 1212/252/221 1215/253/221 1217/254/221
f 1217/254/221 1219/255/221 1222/256/221
f 1222/256/222 1225/257/222 1228/258/222
f 1228/258/221 1231/259/221 1235/244/221
f 1235/244/221 1194/246/221 1200/248/221
f 1200/248/223 1206/250/223 1212/252/223
f 1212/252/223 1217/254/223 1222/256/223
s 1
f 1222/256/223 1228/258/223 1235/244/223
s 0
f 1235/244/223 1200/248/223 1212/252/223
f 1212/252/223 1222/256/223 1235/244/223
f 1179/257/224 1182/258/224 1230/258/224
f 1179/257/224 1230/258/224 1227/257/224
f 1157/250/225 1159/251/225 1207/251/225
f 1157/250/225 1207/251/225 1205/250/225
f 1181/258/226 1185/259/226 1233/259/226
f 1181/258/226 1233/259/226 1229/258/226
f 1160/251/227 1162/252/227 1210/252/227
f 1160/251/227 1210/252/227 1208/251/227
f 1184/259/228 1188/244/228 1236/244/228
f 1184/259/228 1236/244/228 1232/259/228
f 1164/252/229 1166/253/229 1213/253/229
f 1164/252/229 1213/253/229 1211/252/229
f 1142/245/230 1146/246/230 1193/246/230
f 1142/245/230 1193/246/230 1189/245/230
f 1187/244/231 1143/245/231 1190/245/231
f 1187/244/231 1190/245/231 1234/244/231
f 1167/253/232 1169/254/232 1216/254/232
f 1167/253/232 1216/254/232 1214/253/232
f 1144/246/233 1148/247/233 1196/247/233
f 1144/246/233 1196/247/233 1192/246/233
f 1170/254/234 1172/255/234 1220/255/234
f 1170/254/234 1220/255/234 1218/254/234
f 1147/247/235 1151/248/235 1199/248/235
f 1147/247/235 1199/248/235 1195/247/235
f 1173/255/236 1175/256/236 1223/256/236
f 1173/255/236 1223/256/236 1221/255/236
f 1150/248/237 1154/249/237 1202/249/237
f 1150/248/237 1202/249/237 1198/248/237
f 1176/256/238 1178/257/238 1226/257/238
f 1176/256/238 1226/257/238 1224/256/238
f 1153/249/239 1156/250/239 1204/250/239
f 1153/249/239 1204/250/239 1201/249/239
f 1241/246/240 1239/245/240 1284/244/240
f 1284/244/241 1281/259/241 1278/258/241
f 1278/258/240 1275/257/240 1272/256/240
f 1272/256/240 1269/255/240 1266/254/240
f 1266/254/240 1263/253/240 1259/252/240
f 1259/252/240 1255/251/240 1252/250/240
f 1252/250/240 1249/249/240 1246/248/240
f 1246/248/240 1243/247/240 1241/246/240
f 1241/246/240 1284/244/240 1278/258/240
f 1278/258/241 1272/256/241 1266/254/241
f 1266/254/240 1259/252/240 1252/250/240
f 1252/250/240 1246/248/240 1241/246/240
f 1241/246/240 1278/258/240 1266/254/240
f 1266/254/240 1252/250/240 1241/246/240
f 1331/244/242 1285/245/242 1288/246/242
f 1288/246/242 1291/247/242 1294/248/242
f 1294/248/242 1297/249/242 1300/250/242
f 1300/250/243 1303/251/243 1306/252/243
f 1306/252/242 1309/253/242 1313/254/242
f 1313/254/243 1317/255/243 1320/256/243
f 1320/256/242 1323/257/242 1326/258/242
f 1326/258/242 1329/259/242 1331/244/242
f 1331/244/242 1288/246/242 1294/248/242
f 1294/248/243 1300/250/243 1306/252/243
f 1306/252/242 1313/254/242 1320/256/242
f 1320/256/243 1326/258/243 1331/244/243
f 1331/244/242 1294/248/242 1306/252/242
f 1306/252/243 1320/256/243 1331/244/243
f 1273/257/239 1276/258/239 1324/258/239
f 1273/257/239 1324/258/239 1321/257/239
f 1253/250/226 1257/251/226 1305/251/226
f 1253/250/226 1305/251/226 1301/250/226
f 1277/258/225 1279/259/225 1327/259/225
s 1
f 1277/258/225 1327/259/225 1325/258/225
s 0
f 1256/251/228 1260/252/228 1308/252/228
f 1256/251/228 1308/252/228 1304/251/228
f 1280/259/227 1282/244/227 1330/244/227
f 1280/259/227 1330/244/227 1328/259/227
f 1258/252/231 1262/253/231 1311/253/231
f 1258/252/231 1311/253/231 1307/252/231
f 1238/245/232 1240/246/232 1289/246/232
f 1238/245/232 1289/246/232 1287/245/232
f 1283/244/229 1237/245/229 1286/245/229
f 1283/244/229 1286/245/229 1332/244/229
f 1261/253/230 1265/254/230 1314/254/230
f 1261/253/230 1314/254/230 1310/253/230
f 1242/246/234 1244/247/234 1292/247/234
f 1242/246/234 1292/247/234 1290/246/234
f 1264/254/233 1268/255/233 1316/255/233
f 1264/254/233 1316/255/233 1312/254/233
f 1245/247/236 1247/248/236 1295/248/236
f 1245/247/236 1295/248/236 1293/247/236
f 1267/255/235 1271/256/235 1319/256/235
f 1267/255/235 1319/256/235 1315/255/235
f 1248/248/238 1250/249/238 1298/249/238
f 1248/248/238 1298/249/238 1296/248/238
f 1270/256/237 1274/257/237 1322/257/237
f 1270/256/237 1322/257/237 1318/256/237
f 1251/249/224 1254/250/224 1302/250/224
f 1251/249/224 1302/250/224 1299/249/224
f 1337/246/219 1333/245/219 1378/244/219
f 1378/244/219 1375/259/219 1372/258/219
f 1372/258/219 1369/257/219 1366/256/219
f 1366/256/219 1363/255/219 1360/254/219
f 1360/254/219 1357/253/219 1355/252/219
f 1355/252/218 1353/251/218 1350/250/218
f 1350/250/219 1347/249/219 1344/248/219
f 1344/248/220 1341/247/220 1337/246/220
f 1337/246/219 1378/244/219 1372/258/219
f 1372/258/218 1366/256/218 1360/254/218
f 1360/254/219 1355/252/219 1350/250/219
f 1350/250/218 1344/248/218 1337/246/218
f 1337/246/219 1372/258/219 1360/254/219
f 1360/254/219 1350/250/219 1337/246/219
f 1427/244/223 1383/245/223 1386/246/223
f 1386/246/222 1389/247/222 1392/248/222
f 1392/248/223 1395/249/223 1398/250/223
f 1398/250/222 1401/251/222 1404/252/222
f 1404/252/223 1407/253/223 1409/254/223
f 1409/254/221 1411/255/221 1414/256/221
f 1414/256/223 1417/257/223 1420/258/223
f 1420/258/222 1423/259/222 1427/244/222
f 1427/244/223 1386/246/223 1392/248/223
f 1392/248/221 1398/250/221 1404/252/221
f 1404/252/223 1409/254/223 1414/256/223
f 1414/256/221 1420/258/221 1427/244/221
f 1427/244/223 1392/248/223 1404/252/223
f 1404/252/221 1414/256/221 1427/244/221
f 1371/257/224 1374/258/224 1422/258/224
f 1371/257/224 1422/258/224 1419/257/224
f 1349/250/225 1351/251/225 1399/251/225
s 1
f 1349/250/225 1399/251/225 1397/250/225
f 1373/258/226 1377/259/226 1425/259/226
s 0
f 1373/258/226 1425/259/226 1421/258/226
f 1352/251/227 1354/252/227 1402/252/227
f 1352/251/227 1402/252/227 1400/251/227
f 1376/259/228 1380/244/228 1428/244/228
f 1376/259/228 1428/244/228 1424/259/228
f 1356/252/229 1358/253/229 1405/253/229
f 1356/252/229 1405/253/229 1403/252/229
f 1334/245/230 1338/246/230 1385/246/230
f 1334/245/230 1385/246/230 1381/245/230
f 1379/244/231 1335/245/231 1382/245/231
f 1379/244/231 1382/245/231 1426/244/231
f 1359/253/232 1361/254/232 1408/254/232
f 1359/253/232 1408/254/232 1406/253/232
f 1336/246/233 1340/247/233 1388/247/233
f 1336/246/233 1388/247/233 1384/246/233
f 1362/254/234 1364/255/234 1412/255/234
f 1362/254/234 1412/255/234 1410/254/234
s 1
f 1339/247/235 1343/248/235 1391/248/235
s 0
f 1339/247/235 1391/248/235 1387/247/235
f 1365/255/236 1367/256/236 1415/256/236
f 1365/255/236 1415/256/236 1413/255/236
f 1342/248/237 1346/249/237 1394/249/237
f 1342/248/237 1394/249/237 1390/248/237
f 1368/256/238 1370/257/238 1418/257/238
f 1368/256/238 1418/257/238 1416/256/238
f 1345/249/239 1348/250/239 1396/250/239
f 1345/249/239 1396/250/239 1393/249/239
f 1433/246/240 1431/245/240 1476/244/240
f 1476/244/240 1473/259/240 1470/258/240
f 1470/258/240 1467/257/240 1464/256/240
f 1464/256/240 1461/255/240 1458/254/240
f 1458/254/240 1455/253/240 1451/252/240
f 1451/252/244 1447/251/244 1444/250/244
s 1
f 1444/250/245 1441/249/245 1438/248/245
s 0
f 1438/248/244 1435/247/244 1433/246/244
f 1433/246/240 1476/244/240 1470/258/240
f 1470/258/241 1464/256/241 1458/254/241
f 1458/254/240 1451/252/240 1444/250/240
f 1444/250/240 1438/248/240 1433/246/240
f 1433/246/241 1470/258/241 1458/254/241
f 1458/254/240 1444/250/240 1433/246/240
f 1523/244/242 1477/245/242 1480/246/242
f 1480/246/246 1483/247/246 1486/248/246
f 1486/248/242 1489/249/242 1492/250/242
f 1492/250/246 1495/251/246 1498/252/246
f 1498/252/242 1501/253/242 1505/254/242
f 1505/254/246 1509/255/246 1512/256/246
f 1512/256/242 1515/257/242 1518/258/242
f 1518/258/246 1521/259/246 1523/244/246
f 1523/244/242 1480/246/242 1486/248/242
f 1486/248/243 1492/250/243 1498/252/243
f 1498/252/242 1505/254/242 1512/256/242
f 1512/256/243 1518/258/243 1523/244/243
f 1523/244/242 1486/248/242 1498/252/242
f 1498/252/242 1512/256/242 1523/244/242
f 1465/257/239 1468/258/239 1516/258/239
f 1465/257/239 1516/258/239 1513/257/239
f 1445/250/226 1449/251/226 1497/251/226
f 1445/250/226 1497/251/226 1493/250/226
f 1469/258/225 1471/259/225 1519/259/225
f 1469/258/225 1519/259/225 1517/258/225
f 1448/251/228 1452/252/228 1500/252/228
f 1448/251/228 1500/252/228 1496/251/228
f 1472/259/227 1474/244/227 1522/244/227
f 1472/259/227 1522/244/227 1520/259/227
f 1450/252/231 1454/253/231 1503/253/231
f 1450/252/231 1503/253/231 1499/252/231
f 1430/245/232 1432/246/232 1481/246/232
f 1430/245/232 1481/246/232 1479/245/232
f 1475/244/229 1429/245/229 1478/245/229
f 1475/244/229 1478/245/229 1524/244/229
f 1453/253/230 1457/254/230 1506/254/230
f 1453/253/230 1506/254/230 1502/253/230
f 1434/246/234 1436/247/234 1484/247/234
f 1434/246/234 1484/247/234 1482/246/234
s 1
f 1456/254/233 1460/255/233 1508/255/233
s 0
f 1456/254/233 1508/255/233 1504/254/233
f 1437/247/236 1439/248/236 1487/248/236
f 1437/247/236 1487/248/236 1485/247/236
f 1459/255/235 1463/256/235 1511/256/235
f 1459/255/235 1511/256/235 1507/255/235
f 1440/248/238 1442/249/238 1490/249/238
f 1440/248/238 1490/249/238 1488/248/238
f 1462/256/237 1466/257/237 1514/257/237
f 1462/256/237 1514/257/237 1510/256/237
f 1443/249/224 1446/250/224 1494/250/224
f 1443/249/224 1494/250/224 1491/249/224
s 1
f 1577/236/196 1573/234/196 1637/234/196
s 0
f 1577/236/196 1637/234/196 1641/236/196
s 1
f 1004/234/247 994/232/247 1570/232/247
s 0
f 1004/234/247 1570/232/247 1576/234/247
f 947/220/248 938/218/248 1542/218/248
s 1
f 947/220/248 1542/218/248 1547/220/248
s 0
f 988/230/249 978/228/249 1562/228/249
f 988/230/249 1562/228/249 1568/230/249
f 1026/240/250 1020/238/250 1584/238/250
f 1026/240/250 1584/238/250 1586/240/250
f 929/216/251 923/214/251 1535/214/251
f 929/216/251 1535/214/251 1537/216/251
f 971/226/252 961/224/252 1553/224/252
f 971/226/252 1553/224/252 1559/226/252
s 1
f 913/212/253 907/211/253 1531/211/253
s 0
f 913/212/253 1531/211/253 1525/212/253
f 1010/236/254 1003/234/254 1575/234/254
f 1010/236/254 1575/234/254 1578/236/254
f 955/222/255 945/220/255 1545/220/255
f 955/222/255 1545/220/255 1551/222/255
f 996/232/256 986/230/256 1566/230/256
f 996/232/256 1566/230/256 1572/232/256
f 906/242/257 1028/240/257 1588/240/257
f 906/242/257 1588/240/257 1530/242/257
f 937/218/258 931/216/258 1539/216/258
f 937/218/258 1539/216/258 1541/218/258
s 1
f 980/228/259 970/226/259 1558/226/259
s 0
f 980/228/259 1558/226/259 1564/228/259
f 1018/238/260 1012/236/260 1580/236/260
f 1018/238/260 1580/236/260 1582/238/260
f 921/214/261 915/212/261 1527/212/261
f 921/214/261 1527/212/261 1533/214/261
f 1636/232/262 1630/230/262 1683/230/262
f 1636/232/262 1683/230/262 1687/232/262
f 1552/222/189 1546/220/189 1610/220/189
f 1552/222/189 1610/220/189 1616/222/189
f 1581/238/197 1579/236/197 1643/236/197
f 1581/238/197 1643/236/197 1645/238/197
f 1556/224/190 1550/222/190 1614/222/190
f 1556/224/190 1614/222/190 1620/224/190
f 1585/240/199 1583/238/199 1647/238/199
f 1585/240/199 1647/238/199 1649/240/199
f 1560/226/191 1554/224/191 1618/224/191
s 1
f 1560/226/191 1618/224/191 1624/226/191
s 0
f 1526/212/184 1532/211/184 1596/211/184
s 1
f 1526/212/184 1596/211/184 1590/212/184
s 0
f 1529/242/200 1587/240/200 1651/240/200
s 1
f 1529/242/200 1651/240/200 1593/242/200
s 0
f 1563/228/192 1557/226/192 1621/226/192
f 1563/228/192 1621/226/192 1627/228/192
f 1534/214/185 1528/212/185 1592/212/185
f 1534/214/185 1592/212/185 1598/214/185
f 1567/230/193 1561/228/193 1625/228/193
f 1567/230/193 1625/228/193 1631/230/193
f 1538/216/186 1536/214/186 1600/214/186
f 1538/216/186 1600/214/186 1602/216/186
f 1571/232/194 1565/230/194 1629/230/194
f 1571/232/194 1629/230/194 1635/232/194
f 1543/218/187 1540/216/187 1604/216/187
s 1
f 1543/218/187 1604/216/187 1607/218/187
s 0
f 1574/234/195 1569/232/195 1633/232/195
s 1
f 1574/234/195 1633/232/195 1638/234/195
f 1548/220/188 1544/218/188 1608/218/188
s 0
f 1548/220/188 1608/218/188 1612/220/188
f 1659/138/263 1653/134/263 1657/135/263
f 1657/135/263 1700/177/263 1697/174/263
f 1697/174/263 1694/171/263 1691/168/263
f 1691/168/263 1688/165/263 1685/162/263
f 1685/162/263 1682/159/263 1678/156/263
f 1678/156/263 1674/153/263 1671/150/263
f 1671/150/263 1668/147/263 1665/144/263
f 1665/144/263 1662/141/263 1659/138/263
f 1659/138/263 1657/135/263 1697/174/263
f 1697/174/263 1691/168/263 1685/162/263
f 1685/162/263 1678/156/263 1671/150/263
f 1671/150/263 1665/144/263 1659/138/263
f 1659/138/263 1697/174/263 1685/162/263
f 1685/162/263 1671/150/263 1659/138/263
f 1605/218/264 1603/216/264 1664/216/264
f 1605/218/264 1664/216/264 1666/218/264
f 1640/234/265 1634/232/265 1686/232/265
f 1640/234/265 1686/232/265 1690/234/265
f 1611/220/266 1606/218/266 1667/218/266
f 1611/220/266 1667/218/266 1670/220/266
f 1642/236/267 1639/234/267 1689/234/267
f 1642/236/267 1689/234/267 1692/236/267
f 1615/222/268 1609/220/268 1669/220/268
f 1615/222/268 1669/220/268 1673/222/268
s 1
f 1646/238/269 1644/236/269 1693/236/269
s 0
f 1646/238/269 1693/236/269 1695/238/269
f 1619/224/270 1613/222/270 1672/222/270
f 1619/224/270 1672/222/270 1676/224/270
f 1650/240/271 1648/238/271 1696/238/271
f 1650/240/271 1696/238/271 1698/240/271
f 1623/226/272 1617/224/272 1675/224/272
f 1623/226/272 1675/224/272 1679/226/272
f 1589/212/273 1595/211/273 1658/211/273
f 1589/212/273 1658/211/273 1654/212/273
f 1594/242/274 1652/240/274 1699/240/274
f 1594/242/274 1699/240/274 1656/242/274
f 1628/228/275 1622/226/275 1677/226/275
f 1628/228/275 1677/226/275 1681/228/275
s 1
f 1597/214/276 1591/212/276 1655/212/276
s 0
f 1597/214/276 1655/212/276 1660/214/276
s 1
f 1632/230/277 1626/228/277 1680/228/277
s 0
f 1632/230/277 1680/228/277 1684/230/277
f 1601/216/278 1599/214/278 1661/214/278
f 1601/216/278 1661/214/278 1663/216/278
