# Blender 4.0.2
# www.blender.org
mtllib mini-col.mtl
o Cylinder.001
v 0.000909 -0.013267 -0.500878
v 0.000909 0.085054 -0.450255
v 0.155418 -0.013267 -0.476407
v 0.139774 0.085054 -0.428261
v 0.294802 -0.013267 -0.405387
v 0.265046 0.085054 -0.364432
v 0.405418 -0.013267 -0.294771
v 0.364463 0.085054 -0.265015
v 0.476438 -0.013267 -0.155387
v 0.428292 0.085054 -0.139743
v 0.500909 -0.013267 -0.000878
v 0.450286 0.085054 -0.000878
v 0.476438 -0.013267 0.153630
v 0.428292 0.085054 0.137987
v 0.405418 -0.013267 0.293014
v 0.364463 0.085054 0.263259
v 0.294802 -0.013267 0.403630
v 0.265046 0.085054 0.362675
v 0.155418 -0.013267 0.474650
v 0.139774 0.085054 0.426504
v 0.000909 -0.013267 0.499122
v 0.000909 0.085054 0.448498
v -0.153599 -0.013267 0.474650
v -0.137956 0.085054 0.426504
v -0.292983 -0.013267 0.403630
v -0.263228 0.085054 0.362675
v -0.403599 -0.013267 0.293014
v -0.362644 0.085054 0.263259
v -0.474619 -0.013267 0.153630
v -0.426473 0.085054 0.137987
v -0.499091 -0.013267 -0.000878
v -0.448468 0.085054 -0.000878
v -0.474619 -0.013267 -0.155387
v -0.426473 0.085054 -0.139743
v -0.403599 -0.013267 -0.294771
v -0.362644 0.085054 -0.265015
v -0.292983 -0.013267 -0.405387
v -0.263228 0.085054 -0.364432
v -0.153599 -0.013267 -0.476407
v -0.137956 0.085054 -0.428261
v 0.155418 0.085054 -0.476407
v 0.000909 0.085054 -0.500878
v 0.294802 0.085054 -0.405387
v 0.405418 0.085054 -0.294771
v 0.476438 0.085054 -0.155387
v 0.500909 0.085054 -0.000878
v 0.476438 0.085054 0.153630
v 0.405418 0.090050 0.293014
v 0.294802 0.085054 0.403630
v 0.155418 0.085054 0.474650
v 0.000909 0.085054 0.499122
v -0.153599 0.085054 0.474650
v -0.292983 0.085054 0.403630
v -0.403599 0.085054 0.293014
v -0.474619 0.085054 0.153630
v -0.499091 0.085054 -0.000878
v -0.474619 0.085054 -0.155387
v -0.403599 0.085054 -0.294771
v -0.292983 0.085054 -0.405387
v -0.153599 0.085054 -0.476407
v 0.000909 0.180138 -0.399632
v 0.124131 0.180138 -0.380115
v 0.235291 0.180138 -0.323477
v 0.323508 0.180138 -0.235260
v 0.380146 0.180138 -0.124100
v 0.399663 0.180138 -0.000878
v 0.380146 0.180138 0.122343
v 0.323508 0.180138 0.233503
v 0.235291 0.180138 0.321720
v 0.124131 0.180138 0.378359
v 0.000909 0.180138 0.397875
v -0.122312 0.180138 0.378359
v -0.233472 0.180138 0.321720
v -0.321689 0.180138 0.233503
v -0.378328 0.180138 0.122343
v -0.397844 0.180138 -0.000878
v -0.378328 0.180138 -0.124100
v -0.321689 0.180138 -0.235260
v -0.233472 0.180138 -0.323477
v -0.122312 0.180138 -0.380115
v 0.139774 0.180138 -0.428261
v 0.000909 0.180138 -0.450255
v 0.265046 0.180138 -0.364432
v 0.364463 0.180138 -0.265015
v 0.428292 0.180138 -0.139743
v 0.450286 0.175918 -0.000878
v 0.428292 0.180138 0.137987
v 0.364463 0.180138 0.263259
v 0.265046 0.180138 0.362675
v 0.139774 0.180138 0.426504
v 0.000909 0.180138 0.448498
v -0.137956 0.180138 0.426504
v -0.263228 0.180138 0.362675
v -0.362644 0.180138 0.263259
v -0.426473 0.180138 0.137987
v -0.448468 0.180138 -0.000878
v -0.426473 0.180138 -0.139743
v -0.362644 0.180138 -0.265015
v -0.263228 0.180138 -0.364432
v -0.137956 0.180138 -0.428261
v 0.000909 0.275222 -0.349009
v 0.108487 0.275222 -0.331970
v 0.205535 0.275222 -0.282522
v 0.332001 0.275222 -0.108456
v 0.349039 0.275222 -0.000878
v 0.332001 0.275222 0.106700
v 0.282553 0.275222 0.203748
v 0.205535 0.275222 0.280765
v 0.108487 0.275222 0.330213
v 0.000909 0.275222 0.347252
v -0.106669 0.275222 0.330213
v -0.203717 0.275222 0.280765
v -0.280734 0.275222 0.203748
v -0.330182 0.275222 0.106700
v -0.347221 0.275222 -0.000878
v -0.330182 0.275222 -0.108456
v -0.280734 0.275222 -0.205504
v -0.203717 0.275222 -0.282522
v -0.106669 0.275222 -0.331970
v 0.124131 0.275222 -0.380115
v 0.000909 0.275222 -0.399632
v 0.235291 0.275222 -0.323477
v 0.380146 0.275222 -0.124100
v 0.399663 0.275222 -0.000878
v 0.380146 0.275222 0.122343
v 0.323508 0.275222 0.233503
v 0.235291 0.275222 0.321720
v 0.124131 0.275222 0.378359
v 0.000909 0.275222 0.397875
v -0.122312 0.275222 0.378359
v -0.233472 0.275222 0.321720
v -0.321689 0.275222 0.233503
v -0.378328 0.275222 0.122343
v -0.397844 0.275222 -0.000878
v -0.378328 0.275222 -0.124100
v -0.321689 0.275222 -0.235260
v -0.233472 0.275222 -0.323477
v -0.122312 0.275222 -0.380115
v 0.000909 1.701481 -0.349009
v 0.205535 1.701481 -0.282522
v 0.282553 1.701481 -0.205504
v 0.332001 1.701481 -0.108456
v 0.349039 1.701481 -0.000878
v 0.282553 1.701481 0.203748
v 0.205535 1.701481 0.280765
v 0.108487 1.701481 0.330213
v 0.000909 1.701481 0.347252
v -0.106669 1.701481 0.330213
v -0.203717 1.701481 0.280765
v -0.347221 1.701481 -0.000878
v -0.330182 1.701481 -0.108456
v -0.280734 1.701481 -0.205504
v -0.203717 1.701481 -0.282522
v 0.108487 1.701481 -0.331970
v 0.332001 1.701481 0.106700
v -0.280734 1.701481 0.203748
v -0.330182 1.701481 0.106700
v -0.106669 1.701481 -0.331970
v 0.000909 1.701481 -0.383822
v 0.119245 1.701481 -0.365079
v 0.225998 1.701481 -0.310686
v 0.310717 1.701481 -0.225967
v 0.365110 1.701481 -0.119214
v 0.383853 1.701481 -0.000878
v 0.365110 1.701481 0.117458
v 0.310717 1.701481 0.224210
v 0.225998 1.701481 0.308929
v 0.119245 1.701481 0.363322
v 0.000909 1.701481 0.382065
v -0.117427 1.701481 0.363322
v -0.224179 1.701481 0.308929
v -0.308898 1.701481 0.224210
v -0.363292 1.701481 0.117458
v -0.382034 1.701481 -0.000878
v -0.363292 1.701481 -0.119214
v -0.308898 1.701481 -0.225967
v -0.224179 1.701481 -0.310686
v -0.117427 1.701481 -0.365079
v 0.000909 1.796565 -0.383822
v 0.119245 1.796565 -0.365079
v 0.225998 1.796565 -0.310686
v 0.310717 1.796565 -0.225967
v 0.365110 1.796565 -0.119214
v 0.383853 1.796565 -0.000878
v 0.365110 1.796565 0.117458
v 0.310717 1.796565 0.224210
v 0.225998 1.796565 0.308929
v 0.119245 1.796565 0.363322
v 0.000909 1.796565 0.382065
v -0.117427 1.796565 0.363322
v -0.224179 1.796565 0.308929
v -0.308898 1.796565 0.224210
v -0.363292 1.796565 0.117458
v -0.382034 1.796565 -0.000878
v -0.363292 1.796565 -0.119214
v -0.308898 1.796565 -0.225967
v -0.224179 1.796565 -0.310686
v -0.117427 1.796565 -0.365079
v 0.000909 1.796565 -0.422116
v 0.131079 1.796565 -0.401499
v 0.248506 1.796565 -0.341667
v 0.341698 1.796565 -0.248476
v 0.401530 1.796565 -0.131048
v 0.422147 1.796565 -0.000878
v 0.401530 1.796565 0.129291
v 0.341698 1.796565 0.246719
v 0.248506 1.796565 0.339910
v 0.131079 1.796565 0.399743
v 0.000909 1.796565 0.420359
v -0.129260 1.796565 0.399743
v -0.339879 1.796565 0.246719
v -0.399712 1.796565 0.129291
v -0.420328 1.796565 -0.000878
v -0.399712 1.796565 -0.131048
v -0.339879 1.806356 -0.248476
v -0.246688 1.796565 -0.341667
v -0.129260 1.796565 -0.401499
v 0.000909 1.891649 -0.422116
v 0.131079 1.891649 -0.401499
v 0.248506 1.891649 -0.341667
v 0.341698 1.891649 -0.248476
v 0.401530 1.891649 -0.131048
v 0.422147 1.891649 -0.000878
v 0.401530 1.891649 0.129291
v 0.341698 1.891649 0.246719
v 0.248506 1.891649 0.339910
v 0.131079 1.891649 0.399743
v 0.000909 1.891649 0.420359
v -0.129260 1.891649 0.399743
v -0.246688 1.891649 0.339910
v -0.339879 1.891649 0.246719
v -0.399712 1.891649 0.129291
v -0.420328 1.891649 -0.000878
v -0.399712 1.891649 -0.131048
v -0.339879 1.891649 -0.248476
v -0.246688 1.891649 -0.341667
v -0.129260 1.891649 -0.401499
v 0.000909 1.891649 -0.464240
v 0.144096 1.891649 -0.441561
v 0.273266 1.891649 -0.375746
v 0.375776 1.891649 -0.273235
v 0.441592 1.891649 -0.144065
v 0.464271 1.891649 -0.000878
v 0.441592 1.891649 0.142308
v 0.375776 1.891649 0.271479
v 0.273266 1.891649 0.373989
v 0.144096 1.891649 0.439805
v 0.000909 1.891649 0.462483
v -0.142277 1.891649 0.439805
v -0.271448 1.891649 0.373989
v -0.373958 1.891649 0.271479
v -0.439774 1.891649 0.142308
v -0.462452 1.891649 -0.000878
v -0.439774 1.891649 -0.144065
v -0.373958 1.891649 -0.273235
v -0.271448 1.891649 -0.375746
v 0.000909 1.986733 -0.464240
v 0.144096 1.986733 -0.441561
v 0.273266 1.986733 -0.375746
v 0.375776 1.986733 -0.273235
v 0.441592 1.986733 -0.144065
v 0.464271 1.986733 -0.000878
v 0.441592 1.986733 0.142308
v 0.375776 1.986733 0.271479
v 0.273266 1.986733 0.373989
v 0.144096 1.986733 0.439805
v 0.000909 1.986733 0.462483
v -0.138174 1.986733 0.422695
v -0.271448 1.986733 0.373989
v -0.373958 1.986733 0.271479
v -0.439774 1.986733 0.142308
v -0.462452 1.986733 -0.000878
v -0.439774 1.986733 -0.144065
v -0.373958 1.986733 -0.273235
v -0.271448 1.986733 -0.375746
v -0.142277 1.986733 -0.441561
v -0.142277 1.931713 -0.441561
v -0.100661 1.891649 -0.448153
v -0.179820 1.891649 -0.422432
v -0.265293 1.796565 0.326928
v -0.222449 1.796565 0.354250
v 0.282553 0.275222 -0.205504
v 0.346490 0.275222 -0.190154
v 0.323508 0.227087 -0.235260
v 0.287712 0.275222 -0.271056
v -0.104171 1.986733 0.445840
v -0.176654 1.986733 0.422289
v -0.142277 1.950048 0.439805
vn 0.1564 -0.0000 -0.9877
vn 0.4540 -0.0000 -0.8910
vn 0.7071 -0.0000 -0.7071
vn 0.8910 -0.0000 -0.4540
vn 0.9877 -0.0000 -0.1564
vn 0.9877 -0.0000 0.1564
vn 0.8910 -0.0000 0.4540
vn 0.7071 -0.0000 0.7071
vn 0.4540 -0.0000 0.8910
vn 0.1564 -0.0000 0.9877
vn -0.1564 -0.0000 0.9877
vn -0.4540 -0.0000 0.8910
vn -0.7071 -0.0000 0.7071
vn -0.8910 -0.0000 0.4540
vn -0.9877 -0.0000 0.1564
vn -0.9877 -0.0000 -0.1564
vn -0.8910 -0.0000 -0.4540
vn -0.7071 -0.0000 -0.7071
vn -0.4540 -0.0000 -0.8910
vn -0.1564 -0.0000 -0.9877
vn -0.0000 -1.0000 -0.0000
vn -0.0000 1.0000 -0.0000
vn -0.0368 0.9986 -0.0376
vn -0.0472 0.9986 -0.0234
vn 0.0441 0.9990 0.0091
vn 0.0441 0.9990 -0.0091
vn -0.0968 -0.9910 -0.0926
vn -0.1180 -0.9910 -0.0634
vn -0.9697 -0.2416 0.0370
vn -0.7185 0.0228 0.6952
vn -0.5134 0.4092 0.7543
vn -0.6659 -0.6245 -0.4082
vn -0.4472 0.0104 0.8943
vn 0.3930 -0.1995 0.8977
vn 0.1823 0.6246 -0.7594
vn 0.7786 0.6246 0.0613
vn 0.2988 -0.6245 -0.7216
vn -0.0096 0.4235 0.9058
vt 1.000000 0.500000
vt 1.000000 1.000000
vt 0.950000 1.000000
vt 0.950000 0.500000
vt 0.900000 1.000000
vt 0.900000 0.500000
vt 0.850000 1.000000
vt 0.850000 0.500000
vt 0.800000 1.000000
vt 0.800000 0.500000
vt 0.750000 1.000000
vt 0.750000 0.500000
vt 0.700000 1.000000
vt 0.700000 0.500000
vt 0.650000 1.000000
vt 0.650000 0.500000
vt 0.600000 1.000000
vt 0.600000 0.500000
vt 0.550000 1.000000
vt 0.550000 0.500000
vt 0.500000 1.000000
vt 0.500000 0.500000
vt 0.450000 1.000000
vt 0.450000 0.500000
vt 0.400000 1.000000
vt 0.400000 0.500000
vt 0.350000 1.000000
vt 0.350000 0.500000
vt 0.300000 1.000000
vt 0.300000 0.500000
vt 0.250000 1.000000
vt 0.250000 0.500000
vt 0.200000 1.000000
vt 0.200000 0.500000
vt 0.150000 1.000000
vt 0.150000 0.500000
vt 0.100000 1.000000
vt 0.100000 0.500000
vt 0.123214 0.075494
vt 0.183345 0.044856
vt 0.050000 1.000000
vt 0.050000 0.500000
vt -0.000000 1.000000
vt -0.000000 0.500000
vt 0.750000 0.490000
vt 0.824164 0.478254
vt 0.891068 0.444164
vt 0.944164 0.391068
vt 0.978254 0.324164
vt 0.990000 0.250000
vt 0.978254 0.175836
vt 0.944164 0.108932
vt 0.891068 0.055836
vt 0.824164 0.021746
vt 0.750000 0.010000
vt 0.675836 0.021746
vt 0.608932 0.055836
vt 0.555836 0.108932
vt 0.521746 0.175836
vt 0.510000 0.250000
vt 0.521746 0.324164
vt 0.555836 0.391068
vt 0.608932 0.444164
vt 0.675836 0.478254
vt 0.250000 0.465701
vt 0.316655 0.455144
vt 0.324164 0.478254
vt 0.250000 0.490000
vt 0.376786 0.424506
vt 0.391068 0.444164
vt 0.424506 0.376786
vt 0.444164 0.391068
vt 0.455144 0.316655
vt 0.478254 0.324164
vt 0.465701 0.250000
vt 0.490000 0.250000
vt 0.455144 0.183345
vt 0.478254 0.175836
vt 0.424506 0.123214
vt 0.444164 0.108932
vt 0.376786 0.075494
vt 0.391068 0.055836
vt 0.316655 0.044856
vt 0.324164 0.021746
vt 0.250000 0.034299
vt 0.250000 0.010000
vt 0.175836 0.021746
vt 0.108932 0.055836
vt 0.075494 0.123214
vt 0.055836 0.108932
vt 0.044856 0.183345
vt 0.021746 0.175836
vt 0.034299 0.250000
vt 0.010000 0.250000
vt 0.044856 0.316655
vt 0.021746 0.324164
vt 0.075494 0.376786
vt 0.055836 0.391068
vt 0.123214 0.424506
vt 0.108932 0.444164
vt 0.183345 0.455144
vt 0.175836 0.478254
vt 0.095153 0.137497
vt 0.137497 0.095153
vt 0.250000 0.441402
vt 0.309146 0.432034
vt 0.362503 0.404847
vt 0.404847 0.362503
vt 0.432034 0.309146
vt 0.441402 0.250000
vt 0.432034 0.190854
vt 0.404847 0.137497
vt 0.362503 0.095153
vt 0.309146 0.067966
vt 0.250000 0.058598
vt 0.190854 0.067966
vt 0.067966 0.190854
vt 0.058598 0.250000
vt 0.067966 0.309146
vt 0.095153 0.362503
vt 0.137497 0.404847
vt 0.190854 0.432034
vt 0.385189 0.348220
vt 0.408924 0.301638
vt 0.415879 0.340852
vt 0.387665 0.379685
vt 0.250000 0.417102
vt 0.301637 0.408924
vt 0.348220 0.385189
vt 0.417103 0.250000
vt 0.408924 0.198362
vt 0.385189 0.151780
vt 0.348220 0.114811
vt 0.301638 0.091076
vt 0.250000 0.082897
vt 0.198362 0.091076
vt 0.151780 0.114811
vt 0.114811 0.151780
vt 0.091076 0.198362
vt 0.082897 0.250000
vt 0.091076 0.301638
vt 0.114811 0.348220
vt 0.151780 0.385189
vt 0.198362 0.408924
vt 0.150556 0.116035
vt 0.155238 0.113049
vt 0.213371 0.411301
vt 0.184823 0.402025
vt 0.185965 0.097393
vt 0.198362 0.408924
vt 0.213371 0.411301
vt 0.212105 0.088899
vt 0.199035 0.093146
vt 0.387665 0.379685
vt 0.198362 0.091076
s 0
f 1/1/1 42/2/1 41/3/1 3/4/1
f 3/4/2 41/3/2 43/5/2 5/6/2
f 5/6/3 43/5/3 44/7/3 7/8/3
f 7/8/4 44/7/4 45/9/4 9/10/4
f 9/10/5 45/9/5 46/11/5 11/12/5
f 11/12/6 46/11/6 47/13/6 13/14/6
f 13/14/7 47/13/7 48/15/7 15/16/7
f 15/16/8 48/15/8 49/17/8 17/18/8
f 17/18/9 49/17/9 50/19/9 19/20/9
f 19/20/10 50/19/10 51/21/10 21/22/10
f 21/22/11 51/21/11 52/23/11 23/24/11
f 23/24/12 52/23/12 53/25/12 25/26/12
f 25/26/13 53/25/13 54/27/13 27/28/13
f 27/28/14 54/27/14 55/29/14 29/30/14
f 29/30/15 55/29/15 56/31/15 31/32/15
f 31/32/16 56/31/16 57/33/16 33/34/16
f 33/34/17 57/33/17 58/35/17 35/36/17
f 35/36/18 58/35/18 59/37/18 37/38/18
f 26/39/12 24/40/12 92/40/12 93/39/12
f 37/38/19 59/37/19 60/41/19 39/42/19
f 39/42/20 60/41/20 42/43/20 1/44/20
f 1/45/21 3/46/21 5/47/21 7/48/21 9/49/21 11/50/21 13/51/21 15/52/21 17/53/21 19/54/21 21/55/21 23/56/21 25/57/21 27/58/21 29/59/21 31/60/21 33/61/21 35/62/21 37/63/21 39/64/21
f 2/65/22 4/66/22 41/67/22 42/68/22
f 4/66/22 6/69/22 43/70/22 41/67/22
f 6/69/22 8/71/22 44/72/22 43/70/22
f 8/71/22 10/73/22 45/74/22 44/72/22
f 10/73/22 12/75/22 46/76/22 45/74/22
f 12/75/22 14/77/22 47/78/22 46/76/22
f 14/77/23 16/79/23 48/80/23 47/78/23
f 16/79/24 18/81/24 49/82/24 48/80/24
f 18/81/22 20/83/22 50/84/22 49/82/22
f 20/83/22 22/85/22 51/86/22 50/84/22
f 22/85/22 24/40/22 52/87/22 51/86/22
f 24/40/22 26/39/22 53/88/22 52/87/22
f 26/39/22 28/89/22 54/90/22 53/88/22
f 28/89/22 30/91/22 55/92/22 54/90/22
f 30/91/22 32/93/22 56/94/22 55/92/22
f 32/93/22 34/95/22 57/96/22 56/94/22
f 34/95/22 36/97/22 58/98/22 57/96/22
f 36/97/22 38/99/22 59/100/22 58/98/22
f 38/99/22 40/101/22 60/102/22 59/100/22
f 40/101/22 2/65/22 42/68/22 60/102/22
f 74/103/13 73/104/13 131/104/13 132/103/13
f 12/75/5 10/73/5 85/73/5 86/75/5
f 2/65/20 40/101/20 100/101/20 82/65/20
f 28/89/13 26/39/13 93/39/13 94/89/13
f 14/77/6 12/75/6 86/75/6 87/77/6
f 30/91/14 28/89/14 94/89/14 95/91/14
f 16/79/7 14/77/7 87/77/7 88/79/7
f 32/93/15 30/91/15 95/91/15 96/93/15
f 18/81/8 16/79/8 88/79/8 89/81/8
f 4/66/1 2/65/1 82/65/1 81/66/1
f 34/95/16 32/93/16 96/93/16 97/95/16
f 20/83/9 18/81/9 89/81/9 90/83/9
f 6/69/2 4/66/2 81/66/2 83/69/2
f 36/97/17 34/95/17 97/95/17 98/97/17
f 22/85/10 20/83/10 90/83/10 91/85/10
f 8/71/3 6/69/3 83/69/3 84/71/3
f 38/99/18 36/97/18 98/97/18 99/99/18
f 24/40/11 22/85/11 91/85/11 92/40/11
f 10/73/4 8/71/4 84/71/4 85/73/4
f 40/101/19 38/99/19 99/99/19 100/101/19
f 61/105/22 62/106/22 81/66/22 82/65/22
f 62/106/22 63/107/22 83/69/22 81/66/22
f 63/107/22 64/108/22 84/71/22 83/69/22
f 64/108/22 65/109/22 85/73/22 84/71/22
f 65/109/25 66/110/25 86/75/25 85/73/25
f 66/110/26 67/111/26 87/77/26 86/75/26
f 67/111/22 68/112/22 88/79/22 87/77/22
f 68/112/22 69/113/22 89/81/22 88/79/22
f 69/113/22 70/114/22 90/83/22 89/81/22
f 70/114/22 71/115/22 91/85/22 90/83/22
f 71/115/22 72/116/22 92/40/22 91/85/22
f 72/116/22 73/104/22 93/39/22 92/40/22
f 73/104/22 74/103/22 94/89/22 93/39/22
f 74/103/22 75/117/22 95/91/22 94/89/22
f 75/117/22 76/118/22 96/93/22 95/91/22
f 76/118/22 77/119/22 97/95/22 96/93/22
f 77/119/22 78/120/22 98/97/22 97/95/22
f 78/120/22 79/121/22 99/99/22 98/97/22
f 79/121/22 80/122/22 100/101/22 99/99/22
f 80/122/22 61/105/22 82/65/22 100/101/22
f 67/111/6 66/110/6 124/110/6 125/111/6
f 75/117/14 74/103/14 132/103/14 133/117/14
f 68/112/7 67/111/7 125/111/7 126/112/7
f 76/118/15 75/117/15 133/117/15 134/118/15
f 69/113/8 68/112/8 126/112/8 127/113/8
f 62/106/1 61/105/1 121/105/1 120/106/1
f 77/119/16 76/118/16 134/118/16 135/119/16
f 70/114/9 69/113/9 127/113/9 128/114/9
f 63/107/2 62/106/2 120/106/2 122/107/2
f 78/120/17 77/119/17 135/119/17 136/120/17
f 71/115/10 70/114/10 128/114/10 129/115/10
f 282/123/22 104/124/22 123/109/22 283/125/22
f 79/121/18 78/120/18 136/120/18 137/121/18
f 72/116/11 71/115/11 129/115/11 130/116/11
f 64/108/3 63/107/3 122/107/3 285/126/3 284/108/3
f 80/122/19 79/121/19 137/121/19 138/122/19
f 73/104/12 72/116/12 130/116/12 131/104/12
f 66/110/5 65/109/5 123/109/5 124/110/5
f 61/105/20 80/122/20 138/122/20 121/105/20
f 101/127/22 102/128/22 120/106/22 121/105/22
f 102/128/22 103/129/22 122/107/22 120/106/22
f 65/109/4 64/108/4 284/108/4 283/125/4 123/109/4
f 104/124/22 105/130/22 124/110/22 123/109/22
f 105/130/22 106/131/22 125/111/22 124/110/22
f 106/131/22 107/132/22 126/112/22 125/111/22
f 107/132/22 108/133/22 127/113/22 126/112/22
f 108/133/22 109/134/22 128/114/22 127/113/22
f 109/134/22 110/135/22 129/115/22 128/114/22
f 110/135/22 111/136/22 130/116/22 129/115/22
f 111/136/22 112/137/22 131/104/22 130/116/22
f 112/137/22 113/138/22 132/103/22 131/104/22
f 113/138/22 114/139/22 133/117/22 132/103/22
f 114/139/22 115/140/22 134/118/22 133/117/22
f 115/140/22 116/141/22 135/119/22 134/118/22
f 116/141/22 117/142/22 136/120/22 135/119/22
f 117/142/22 118/143/22 137/121/22 136/120/22
f 118/143/22 119/144/22 138/122/22 137/121/22
f 119/144/22 101/127/22 121/105/22 138/122/22
f 158/144/21 153/143/21 177/143/21 178/144/21
f 175/141/16 174/140/16 194/140/16 195/141/16
f 149/137/21 148/136/21 170/136/21 171/137/21
f 143/130/21 142/124/21 163/124/21 164/130/21
f 139/127/21 158/144/21 178/144/21 159/127/21
f 156/138/21 149/137/21 171/137/21 172/138/21
f 155/131/21 143/130/21 164/130/21 165/131/21
f 157/139/21 156/138/21 172/138/21 173/139/21
f 144/132/21 155/131/21 165/131/21 166/132/21
f 150/140/21 157/139/21 173/139/21 174/140/21
f 145/133/21 144/132/21 166/132/21 167/133/21
f 154/128/21 139/127/21 159/127/21 160/128/21
f 151/141/21 150/140/21 174/140/21 175/141/21
f 146/134/21 145/133/21 167/133/21 168/134/21
f 140/129/21 154/128/21 160/128/21 161/129/21
f 152/142/21 151/141/21 175/141/21 176/142/21
f 147/135/21 146/134/21 168/134/21 169/135/21
f 141/123/21 140/129/21 161/129/21 162/123/21
f 153/143/21 152/142/21 176/142/21 177/143/21
f 148/136/21 147/135/21 169/135/21 170/136/21
f 142/124/21 141/123/21 162/123/21 163/124/21
f 192/138/21 191/137/21 280/145/21 211/138/21
f 168/134/9 167/133/9 187/133/9 188/134/9
f 161/129/2 160/128/2 180/128/2 181/129/2
f 176/142/17 175/141/17 195/141/17 196/142/17
f 169/135/10 168/134/10 188/134/10 189/135/10
f 162/123/3 161/129/3 181/129/3 182/123/3
f 177/143/18 176/142/18 196/142/18 197/143/18
f 170/136/11 169/135/11 189/135/11 190/136/11
f 163/124/4 162/123/4 182/123/4 183/124/4
f 178/144/19 177/143/19 197/143/19 198/144/19
f 171/137/12 170/136/12 190/136/12 191/137/12
f 164/130/5 163/124/5 183/124/5 184/130/5
f 159/127/20 178/144/20 198/144/20 179/127/20
f 172/138/13 171/137/13 191/137/13 192/138/13
f 165/131/6 164/130/6 184/130/6 185/131/6
f 173/139/14 172/138/14 192/138/14 193/139/14
f 166/132/7 165/131/7 185/131/7 186/132/7
f 174/140/15 173/139/15 193/139/15 194/140/15
f 167/133/8 166/132/8 186/132/8 187/133/8
f 160/128/1 159/127/1 179/127/1 180/128/1
f 209/135/10 208/134/10 227/134/10 228/135/10
f 185/131/21 184/130/21 204/130/21 205/131/21
f 193/139/21 192/138/21 211/138/21 212/139/21
f 186/132/21 185/131/21 205/131/21 206/132/21
f 194/140/21 193/139/21 212/139/21 213/140/21
f 187/133/21 186/132/21 206/132/21 207/133/21
f 180/128/21 179/127/21 199/127/21 200/128/21
f 195/141/21 194/140/21 213/140/21 214/141/21
f 188/134/21 187/133/21 207/133/21 208/134/21
f 181/129/21 180/128/21 200/128/21 201/129/21
f 196/142/27 195/141/27 214/141/27 215/142/27
f 189/135/21 188/134/21 208/134/21 209/135/21
f 182/123/21 181/129/21 201/129/21 202/123/21
f 197/143/28 196/142/28 215/142/28 216/143/28
f 190/136/21 189/135/21 209/135/21 210/136/21
f 183/124/21 182/123/21 202/123/21 203/124/21
f 198/144/21 197/143/21 216/143/21 217/144/21
f 191/137/29 281/146/29 230/137/29
f 184/130/21 183/124/21 203/124/21 204/130/21
f 179/127/21 198/144/21 217/144/21 199/127/21
f 225/132/21 224/131/21 244/131/21 245/132/21
f 202/123/3 201/129/3 220/129/3 221/123/3
f 216/143/18 215/142/18 235/142/18 236/143/18
f 210/136/11 209/135/11 228/135/11 229/136/11
f 203/124/4 202/123/4 221/123/4 222/124/4
f 217/144/19 216/143/19 236/143/19 237/144/19
f 204/130/5 203/124/5 222/124/5 223/130/5
f 199/127/20 217/144/20 237/144/20 218/127/20
f 211/138/30 280/145/30 230/137/30 231/138/30
f 205/131/6 204/130/6 223/130/6 224/131/6
f 212/139/14 211/138/14 231/138/14 232/139/14
f 206/132/7 205/131/7 224/131/7 225/132/7
f 213/140/15 212/139/15 232/139/15 233/140/15
f 207/133/8 206/132/8 225/132/8 226/133/8
f 200/128/1 199/127/1 218/127/1 219/128/1
f 214/141/16 213/140/16 233/140/16 234/141/16
f 208/134/9 207/133/9 226/133/9 227/134/9
f 201/129/2 200/128/2 219/128/2 220/129/2
f 215/142/17 214/141/17 234/141/17 235/142/17
f 242/124/4 241/123/4 260/123/4 261/124/4
f 233/140/21 232/139/21 252/139/21 253/140/21
f 226/133/21 225/132/21 245/132/21 246/133/21
f 219/128/21 218/127/21 238/127/21 239/128/21
f 234/141/21 233/140/21 253/140/21 254/141/21
f 227/134/21 226/133/21 246/133/21 247/134/21
f 220/129/21 219/128/21 239/128/21 240/129/21
f 235/142/21 234/141/21 254/141/21 255/142/21
f 228/135/21 227/134/21 247/134/21 248/135/21
f 221/123/21 220/129/21 240/129/21 241/123/21
f 236/143/21 235/142/21 255/142/21 256/143/21
f 229/136/21 228/135/21 248/135/21 249/136/21
f 222/124/21 221/123/21 241/123/21 242/124/21
f 238/127/20 278/147/20 277/144/20 276/144/20 257/127/20
f 230/137/21 229/136/21 249/136/21 250/137/21
f 223/130/21 222/124/21 242/124/21 243/130/21
f 237/144/21 236/143/21 256/143/21 279/148/21
f 231/138/21 230/137/21 250/137/21 251/138/21
f 224/131/21 223/130/21 243/130/21 244/131/21
f 232/139/21 231/138/21 251/138/21 252/139/21
f 250/137/12 249/136/12 288/136/12 287/149/12 269/137/12
f 218/127/21 237/150/21 278/151/21 238/127/21
f 286/152/31 268/153/31 288/136/31
f 243/130/5 242/124/5 261/124/5 262/130/5
f 251/138/13 250/137/13 269/137/13 270/138/13
f 244/131/6 243/130/6 262/130/6 263/131/6
f 252/139/14 251/138/14 270/138/14 271/139/14
f 245/132/7 244/131/7 263/131/7 264/132/7
f 253/140/15 252/139/15 271/139/15 272/140/15
f 246/133/8 245/132/8 264/132/8 265/133/8
f 239/128/1 238/127/1 257/127/1 258/128/1
f 254/141/16 253/140/16 272/140/16 273/141/16
f 247/134/9 246/133/9 265/133/9 266/134/9
f 240/129/2 239/128/2 258/128/2 259/129/2
f 255/142/17 254/141/17 273/141/17 274/142/17
f 248/135/10 247/134/10 266/134/10 267/135/10
f 241/123/3 240/129/3 259/129/3 260/123/3
f 256/143/18 255/142/18 274/142/18 275/143/18
f 258/128/22 257/127/22 276/144/22 275/143/22 274/142/22 273/141/22 272/140/22 271/139/22 270/138/22 269/137/22 287/149/22 268/153/22 286/152/22 267/135/22 266/134/22 265/133/22 264/132/22 263/131/22 262/130/22 261/124/22 260/123/22 259/129/22
f 277/144/32 278/147/32 237/150/32
f 277/144/19 279/148/19 256/143/19 275/143/19 276/144/19
f 230/137/33 281/146/33 210/136/33 229/136/33
f 281/146/21 191/137/21 190/136/21 210/136/21
f 280/145/34 191/137/34 230/137/34
f 282/123/35 283/125/35 284/108/35
f 103/129/22 282/123/22 285/154/22 122/107/22
f 285/126/36 282/123/36 284/108/36
f 279/148/37 277/144/37 237/150/37
f 268/153/38 287/149/38 288/136/38
f 249/136/11 248/135/11 267/135/11 286/152/11 288/155/11
f 142/124/5 143/130/5 105/130/5 104/124/5
f 143/130/6 155/131/6 106/131/6 105/130/6
f 155/131/7 144/132/7 107/132/7 106/131/7
f 144/132/8 145/133/8 108/133/8 107/132/8
f 145/133/9 146/134/9 109/134/9 108/133/9
f 146/134/10 147/135/10 110/135/10 109/134/10
f 147/135/11 148/136/11 111/136/11 110/135/11
f 148/136/12 149/137/12 112/137/12 111/136/12
f 149/137/13 156/138/13 113/138/13 112/137/13
f 156/138/14 157/139/14 114/139/14 113/138/14
f 157/139/15 150/140/15 115/140/15 114/139/15
f 150/140/16 151/141/16 116/141/16 115/140/16
f 151/141/17 152/142/17 117/142/17 116/141/17
f 152/142/18 153/143/18 118/143/18 117/142/18
f 153/143/19 158/144/19 119/144/19 118/143/19
f 158/144/20 139/127/20 101/127/20 119/144/20
f 139/127/1 154/128/1 102/128/1 101/127/1
f 154/128/2 140/129/2 103/129/2 102/128/2
f 140/129/3 141/123/3 282/123/3 103/129/3
f 141/123/4 142/124/4 104/124/4 282/123/4
