# Blender 4.0.2
# www.blender.org
mtllib wood-log.mtl
o log-col
v -0.000429 0.092013 -0.281861
v -0.000220 0.083371 0.278379
v 0.034581 0.084981 -0.281974
v 0.000164 -0.101637 0.263984
v 0.064406 0.064972 -0.282076
v 0.059443 0.058872 0.276672
v 0.084304 0.035070 -0.282141
v 0.077795 0.031580 0.276025
v 0.091238 -0.000133 -0.282158
v 0.084309 -0.000663 0.275656
v 0.084005 -0.035383 -0.282373
v 0.077991 -0.032948 0.275622
v 0.063877 -0.065250 -0.282318
v 0.059804 -0.060359 0.275928
v 0.033953 -0.085135 -0.282077
v 0.032518 -0.078721 0.276527
v -0.001084 -0.092011 -0.281805
v 0.031585 0.086750 0.044718
v -0.035460 -0.084278 -0.280220
v -0.031980 -0.078928 0.278209
v -0.063501 -0.063435 -0.277359
v -0.059375 -0.060742 0.279036
v -0.081629 -0.033741 -0.274839
v -0.077727 -0.033451 0.279683
v -0.087754 0.000168 -0.273834
v -0.084241 -0.001208 0.280051
v -0.081502 0.034052 -0.274849
v -0.077923 0.031078 0.280085
v -0.063277 0.063654 -0.277378
v -0.059736 0.058488 0.279779
v -0.034963 0.084418 -0.280371
v -0.032450 0.076851 0.279180
v -0.002477 0.104165 -0.198878
v -0.003218 0.097213 -0.117542
v 0.001217 0.093675 -0.032431
v 0.004865 0.092263 0.046260
v 0.002089 0.085208 0.122607
v -0.001853 0.089423 0.196466
v 0.032864 0.082707 0.195663
v 0.034297 0.078858 0.121555
v 0.036927 0.080025 0.041601
v 0.034391 0.080955 -0.037818
v 0.034400 0.089239 -0.119830
v 0.037660 0.095938 -0.200050
v 0.062375 0.063217 0.194744
v 0.061650 0.060675 0.120461
v 0.067940 0.065594 0.042635
v 0.066259 0.065644 -0.037158
v 0.066123 0.067455 -0.121500
v 0.071610 0.072973 -0.200947
v 0.082188 0.033921 0.193848
v 0.077051 0.033426 0.119979
v 0.087142 0.036402 0.041550
v 0.085929 0.035308 -0.038198
v 0.087122 0.035178 -0.122291
v 0.094205 0.038768 -0.201429
v 0.089286 -0.000721 0.193112
v 0.086492 0.001261 0.118780
v 0.093730 0.002080 0.041205
v 0.092529 -0.000247 -0.038087
v 0.094201 -0.002678 -0.122080
v 0.102007 -0.001471 -0.201425
v 0.082588 -0.035435 0.192650
v 0.080196 -0.030921 0.118471
v 0.086701 -0.032147 0.041659
v 0.081224 -0.033428 -0.036363
v 0.082453 -0.038169 -0.120419
v 0.093829 -0.041620 -0.200944
v 0.063115 -0.064933 0.192536
v 0.062051 -0.058216 0.118618
v 0.067127 -0.061066 0.042853
v 0.064645 -0.065394 -0.034654
v 0.064575 -0.072102 -0.118929
v 0.070914 -0.075567 -0.200067
v 0.033830 -0.084727 0.192790
v 0.034823 -0.076469 0.119205
v 0.037987 -0.080273 0.044604
v 0.034408 -0.085071 -0.031864
v 0.032379 -0.093103 -0.116480
v 0.036750 -0.098145 -0.198932
v -0.000808 -0.091801 0.193370
v 0.002660 -0.082902 0.120136
v 0.003718 -0.086846 0.046644
v -0.001056 -0.091643 -0.028902
v -0.005402 -0.100155 -0.113928
v -0.003464 -0.105917 -0.197709
v -0.035526 -0.085080 0.194185
v -0.029539 -0.076539 0.121256
v -0.030462 -0.079785 0.048653
v -0.036348 -0.084111 -0.026219
v -0.043019 -0.092186 -0.111660
v -0.043604 -0.097696 -0.196576
v -0.065039 -0.065589 0.195108
v -0.056876 -0.058351 0.122377
v -0.059351 -0.060167 0.050319
v -0.066096 -0.063621 -0.024220
v -0.074745 -0.070406 -0.110019
v -0.077561 -0.074735 -0.195698
v -0.084853 -0.036295 0.195996
v -0.075191 -0.031109 0.123325
v -0.078551 -0.030979 0.051383
v -0.085749 -0.033288 -0.023193
v -0.095736 -0.038129 -0.109235
v -0.098424 -0.039755 -0.193729
v -0.091951 -0.001657 0.196718
v -0.081700 0.001041 0.123960
v -0.085139 0.003336 0.051689
v -0.092344 0.002268 -0.023302
v -0.102813 -0.000271 -0.109439
v -0.105199 -0.000317 -0.193029
v -0.085253 0.033052 0.197168
v -0.072187 0.032149 0.122956
v -0.074889 0.036495 0.049951
v -0.081657 0.036572 -0.025782
v -0.091676 0.036342 -0.111852
v -0.098044 0.039053 -0.194148
v -0.065778 0.062550 0.197278
v -0.057283 0.060500 0.124027
v -0.058542 0.066472 0.049991
v -0.064494 0.067421 -0.026706
v -0.073203 0.069158 -0.112559
v -0.076861 0.073825 -0.196472
v -0.036492 0.082345 0.197032
v -0.030069 0.078760 0.123470
v -0.029404 0.085683 0.048259
v -0.034252 0.087102 -0.029473
v -0.041003 0.090161 -0.114988
v -0.042691 0.096401 -0.197619
v -0.000595 0.110292 -0.281848
v 0.041592 0.101818 -0.282259
v 0.038976 0.093929 0.277422
v -0.000277 0.101609 0.278493
v 0.077325 0.077843 -0.282608
v 0.072300 0.071807 0.276416
v 0.101164 0.042017 -0.282839
v 0.094623 0.038610 0.275629
v 0.109481 -0.000205 -0.282916
v 0.102545 -0.000607 0.275180
v 0.100814 -0.042444 -0.283073
v 0.094862 -0.039874 0.275139
v 0.076728 -0.078186 -0.282856
v 0.072741 -0.073213 0.275511
v 0.040889 -0.102002 -0.282371
v 0.039552 -0.095548 0.276240
v -0.001335 -0.110289 -0.281801
v 0.045888 0.080566 0.043897
v -0.043083 -0.100898 -0.279909
v -0.038907 -0.095800 0.278286
v -0.076953 -0.075723 -0.276804
v -0.072232 -0.073677 0.279291
v -0.098634 -0.040214 -0.274135
v -0.094555 -0.040481 0.280078
v -0.105935 0.000202 -0.273080
v -0.102477 -0.001264 0.280527
v -0.098482 0.040589 -0.274142
v -0.094793 0.038003 0.280568
v -0.076669 0.076014 -0.276818
v -0.072673 0.071342 0.280196
v -0.042491 0.101077 -0.280054
v -0.039483 0.093678 0.279468
v 0.000711 0.009397 -0.276029
v 0.003296 0.008760 -0.274848
v 0.004275 0.008752 0.264244
v 0.000266 0.009643 0.264253
v 0.006322 0.006542 -0.273911
v 0.007644 0.006392 0.264432
v 0.008272 0.003333 -0.273297
v 0.009857 0.002919 0.264789
v 0.008812 -0.000175 -0.273095
v 0.010573 -0.001139 0.265260
v 0.007902 -0.003793 -0.273585
v 0.009682 -0.005160 0.265773
v 0.005529 -0.006999 -0.274265
v 0.007324 -0.008528 0.266250
v 0.002255 -0.008970 -0.275104
v 0.004419 -0.010378 0.266604
v -0.000379 -0.009366 -0.276139
v -0.000446 -0.011174 0.266655
v -0.001530 -0.009056 -0.275963
v -0.004586 -0.010278 0.266843
v -0.003185 -0.007707 -0.274269
v -0.007561 -0.008194 0.266645
v -0.005076 -0.004269 -0.272460
v -0.009774 -0.004721 0.266289
v -0.005683 0.000211 -0.271666
v -0.010490 -0.000663 0.265818
v -0.004676 0.004653 -0.272386
v -0.009599 0.003358 0.265305
v -0.002531 0.007866 -0.274143
v -0.007240 0.006726 0.264827
v -0.000635 0.009159 -0.275942
v -0.003776 0.008932 0.264458
v 0.026665 0.078111 0.277645
v 0.039146 0.072346 0.277284
v 0.004500 -0.084570 0.277789
v 0.005424 -0.102633 0.277654
v -0.004999 -0.102847 0.277136
v -0.004287 -0.084759 0.277229
v 0.042036 0.082333 -0.035507
v 0.028589 0.087831 -0.034525
v 0.082534 -0.045833 -0.120558
v 0.088061 -0.031889 -0.121163
v 0.079438 -0.043806 -0.036239
v 0.087007 -0.026372 -0.037167
v -0.082230 0.041508 -0.024819
v -0.086421 0.030338 -0.024282
v -0.092268 0.041256 -0.110844
v -0.072312 0.037875 0.124172
v -0.096416 0.030189 -0.110383
v -0.076738 0.026423 0.124151
v -0.073447 0.044451 0.050909
v -0.079796 0.029360 0.051315
v 0.081311 0.026850 0.119340
v 0.074679 0.041306 0.119766
v 0.030687 0.073741 0.265586
v -0.000200 0.079785 0.266429
v 0.056910 0.056333 0.264794
v 0.074477 0.030209 0.264175
v 0.080712 -0.000655 0.263822
v 0.074665 -0.031559 0.263789
v 0.057256 -0.057797 0.264082
v 0.031137 -0.075374 0.264655
v -0.000156 -0.080913 0.269822
v -0.030602 -0.075572 0.266265
v -0.056825 -0.058164 0.267057
v -0.074392 -0.032040 0.267676
v -0.080627 -0.001176 0.268029
v -0.074580 0.029728 0.268062
v -0.057171 0.055966 0.267769
v -0.031052 0.073543 0.267196
v 0.025510 0.064086 0.265336
v -0.001286 0.068885 0.266113
v 0.048430 0.049394 0.264648
v 0.063986 0.027042 0.264155
v 0.069808 0.000432 0.263931
v 0.065007 -0.026384 0.264011
v 0.050315 -0.049321 0.264382
v 0.028076 -0.064813 0.264987
v 0.000924 -0.070072 0.267095
v -0.025508 -0.065858 0.266519
v -0.048340 -0.051223 0.267203
v -0.063897 -0.028871 0.267696
v -0.069719 -0.002261 0.267920
v -0.064918 0.024556 0.267840
v -0.050225 0.047493 0.267469
v -0.027880 0.063058 0.266862
v 0.022971 0.052744 0.264439
v 0.000707 0.057433 0.264978
v 0.041746 0.039888 0.263968
v 0.054175 0.020819 0.263636
v 0.058363 -0.001562 0.263494
v 0.053668 -0.023846 0.263564
v 0.040807 -0.042638 0.263835
v 0.021962 -0.054930 0.264264
v -0.000985 -0.058634 0.266147
v -0.023064 -0.054457 0.265337
v -0.041665 -0.041721 0.265802
v -0.054095 -0.022652 0.266134
v -0.058282 -0.000270 0.266276
v -0.053588 0.022014 0.266205
v -0.040727 0.040805 0.265934
v -0.021660 0.053242 0.265503
v 0.017825 0.042046 0.264810
v 0.000047 0.045586 0.265248
v 0.032897 0.031970 0.264558
v 0.042972 0.016887 0.264528
v 0.046512 -0.000909 0.264726
v 0.042974 -0.018707 0.265122
v 0.032897 -0.033792 0.265655
v 0.018157 -0.043642 0.266238
v -0.000342 -0.046948 0.268149
v -0.018011 -0.043680 0.267247
v -0.032810 -0.033786 0.267491
v -0.042885 -0.018704 0.267520
v -0.046425 -0.000908 0.267322
v -0.042887 0.016890 0.266926
v -0.032810 0.031976 0.266393
v -0.017732 0.042051 0.265803
v 0.011457 0.032316 0.264612
v -0.002111 0.034163 0.265009
v 0.023291 0.025416 0.264429
v 0.031591 0.014506 0.264488
v 0.035090 0.001246 0.264782
v 0.033250 -0.012343 0.265265
v 0.026353 -0.024188 0.265864
v 0.015861 -0.032174 0.266473
v 0.001765 -0.035614 0.268388
v -0.011704 -0.033921 0.267450
v -0.023188 -0.027225 0.267620
v -0.031489 -0.016316 0.267560
v -0.034987 -0.003055 0.267266
v -0.033148 0.010534 0.266783
v -0.026251 0.022379 0.266185
v -0.015351 0.030675 0.265562
v 0.010418 0.021782 0.263387
v 0.000960 0.024031 0.263581
v 0.018301 0.016081 0.263377
v 0.023407 0.007789 0.263552
v 0.024955 -0.001831 0.263886
v 0.022704 -0.011310 0.264329
v 0.017002 -0.019202 0.264811
v 0.009231 -0.023990 0.265250
v -0.001189 -0.025451 0.266956
v -0.010707 -0.023329 0.265817
v -0.018218 -0.017896 0.265814
v -0.023325 -0.009605 0.265639
v -0.024872 0.000015 0.265305
v -0.022622 0.009495 0.264862
v -0.016919 0.017386 0.264379
v -0.008638 0.022489 0.263930
v 0.005806 0.013724 0.263073
v -0.000222 0.014822 0.263143
v 0.010963 0.010402 0.263234
v 0.014462 0.005357 0.263603
v 0.015764 -0.000644 0.264123
v 0.014668 -0.006684 0.264716
v 0.011343 -0.011838 0.265290
v 0.006864 -0.014932 0.265736
v -0.000011 -0.016472 0.265167
v -0.006154 -0.015228 0.266130
v -0.010872 -0.012190 0.265959
v -0.014371 -0.007145 0.265590
v -0.015673 -0.001144 0.265070
v -0.014576 0.004896 0.264478
v -0.011252 0.010050 0.263903
v -0.006211 0.013533 0.263435
v -0.000400 0.088057 -0.269847
v 0.033112 0.081326 -0.269955
v 0.061660 0.062172 -0.270052
v 0.080708 0.033550 -0.270115
v 0.087345 -0.000148 -0.270132
v 0.080421 -0.033890 -0.270337
v 0.061154 -0.062479 -0.270285
v 0.032511 -0.081513 -0.270054
v -0.001028 -0.088095 -0.269794
v -0.033934 -0.080693 -0.268276
v -0.060774 -0.060742 -0.265538
v -0.078128 -0.032318 -0.263126
v -0.083990 0.000140 -0.262164
v -0.078006 0.032575 -0.263135
v -0.060560 0.060911 -0.265555
v -0.033458 0.080787 -0.268421
v 0.004153 0.075764 -0.269552
v 0.032479 0.068322 -0.269639
v 0.056067 0.050405 -0.269772
v 0.071005 0.024822 -0.269911
v 0.075007 -0.004468 -0.270033
v 0.067345 -0.033137 -0.270359
v 0.049305 -0.056781 -0.270422
v 0.023697 -0.071711 -0.270284
v -0.005319 -0.075655 -0.270088
v -0.032871 -0.067737 -0.268598
v -0.054761 -0.049376 -0.265830
v -0.068261 -0.024014 -0.263339
v -0.071675 0.004340 -0.262273
v -0.064859 0.032079 -0.263129
v -0.048416 0.055607 -0.265437
v -0.024291 0.071231 -0.268201
v 0.000729 0.061299 -0.275666
v 0.023663 0.056348 -0.275370
v 0.043367 0.042713 -0.275146
v 0.056354 0.022572 -0.275003
v 0.060629 -0.000914 -0.274962
v 0.055465 -0.024353 -0.275268
v 0.041704 -0.044147 -0.275457
v 0.021530 -0.057135 -0.275571
v -0.001551 -0.061320 -0.275722
v -0.023588 -0.056028 -0.274621
v -0.041691 -0.042158 -0.272201
v -0.053551 -0.022078 -0.269972
v -0.057360 0.000914 -0.269057
v -0.052801 0.023772 -0.269940
v -0.040322 0.043408 -0.272141
v -0.021614 0.056722 -0.274663
v 0.003614 0.049614 -0.274652
v 0.021729 0.044548 -0.274596
v 0.037021 0.032552 -0.274744
v 0.046559 0.015618 -0.275031
v 0.048873 -0.003559 -0.275406
v 0.043547 -0.022267 -0.276059
v 0.031410 -0.037653 -0.276469
v 0.014432 -0.047191 -0.276644
v -0.004234 -0.049427 -0.276704
v -0.021293 -0.044252 -0.275384
v -0.034994 -0.032404 -0.272621
v -0.043609 -0.015561 -0.269970
v -0.045576 0.003408 -0.268642
v -0.040741 0.021897 -0.269181
v -0.029699 0.037270 -0.271153
v -0.014197 0.047041 -0.273584
v 0.001190 0.036583 -0.273878
v 0.014392 0.033510 -0.273244
v 0.026051 0.025162 -0.272774
v 0.033628 0.012985 -0.272500
v 0.035943 -0.001019 -0.272458
v 0.032627 -0.014981 -0.272900
v 0.024139 -0.026776 -0.273336
v 0.011915 -0.034370 -0.273772
v -0.001466 -0.036575 -0.274286
v -0.013513 -0.033476 -0.273540
v -0.023666 -0.025431 -0.271371
v -0.030624 -0.013193 -0.269254
v -0.032739 0.001017 -0.268326
v -0.029699 0.015086 -0.269084
v -0.021985 0.026815 -0.271058
v -0.011180 0.034253 -0.273255
v 0.000444 0.026663 -0.274148
v 0.009820 0.024687 -0.273243
v 0.018462 0.018766 -0.272502
v 0.024182 0.009981 -0.272000
v 0.026073 -0.000163 -0.271809
v 0.023861 -0.010415 -0.272204
v 0.017796 -0.019225 -0.272698
v 0.008958 -0.024975 -0.273292
v -0.000469 -0.026733 -0.274040
v -0.008596 -0.024816 -0.273563
v -0.015790 -0.019345 -0.271652
v -0.021117 -0.010408 -0.269750
v -0.022927 0.000230 -0.268966
v -0.020856 0.010838 -0.269781
v -0.015346 0.019575 -0.271708
v -0.007882 0.024921 -0.273756
v 0.000944 0.016360 -0.273958
v 0.006241 0.015056 -0.272944
v 0.011449 0.011234 -0.272153
v 0.014803 0.005707 -0.271652
v 0.015757 -0.000497 -0.271509
v 0.014187 -0.006755 -0.271997
v 0.010210 -0.012134 -0.272612
v 0.004619 -0.015506 -0.273337
v -0.000771 -0.016320 -0.274219
v -0.004697 -0.015263 -0.273872
v -0.008505 -0.012171 -0.272031
v -0.011656 -0.006458 -0.270119
v -0.012604 0.000516 -0.269272
v -0.011038 0.007407 -0.269992
v -0.007443 0.012775 -0.271803
v -0.003244 0.015621 -0.273715
vn 0.1846 0.9716 -0.1479
vn 0.5412 0.8267 -0.1539
vn 0.8158 0.5565 -0.1577
vn 0.9666 0.2014 -0.1585
vn 0.9705 -0.1852 -0.1544
vn 0.8254 -0.5443 -0.1501
vn 0.5533 -0.8204 -0.1443
vn 0.1866 -0.9720 -0.1426
vn -0.2060 -0.9696 -0.1319
vn -0.5494 -0.8259 -0.1263
vn -0.8238 -0.5535 -0.1226
vn -0.9728 -0.1968 -0.1220
vn 0.0066 -0.0509 -0.9987
vn -0.2000 0.9697 -0.1404
vn 0.8272 -0.5567 0.0758
vn 0.0289 0.1136 0.9931
vn -0.0429 -0.0000 -0.9991
vn -0.2116 0.9750 0.0672
vn -0.1865 0.9790 0.0820
vn -0.1800 0.9824 0.0494
vn -0.1798 0.9833 0.0292
vn -0.1832 0.9795 0.0839
vn -0.1979 0.9780 -0.0664
vn -0.5880 0.8076 0.0444
vn -0.5480 0.8332 0.0741
vn -0.5411 0.8379 0.0718
vn -0.5413 0.8392 0.0524
vn -0.5460 0.8347 0.0720
vn -0.5562 0.8263 -0.0888
vn -0.8510 0.5250 0.0123
vn -0.8518 0.5219 0.0453
vn -0.9832 -0.1420 0.1148
vn -0.9874 -0.1317 0.0881
vn -0.9841 0.1747 0.0309
vn -0.9847 0.0153 -0.1736
vn -0.9833 0.1817 0.0089
vn -0.9830 0.1797 0.0381
vn -0.9738 0.2086 0.0906
vn -0.9782 0.2016 0.0492
vn -0.9729 0.1912 -0.1300
vn -0.9840 -0.1779 0.0036
vn -0.9849 -0.1698 0.0346
vn 0.0025 -0.0212 0.9998
vn -0.9784 -0.1811 0.1000
vn -0.9812 -0.1888 0.0407
vn -0.9705 -0.1936 -0.1439
vn -0.8535 -0.5211 -0.0000
vn -0.8562 -0.5137 0.0541
vn 0.0322 -0.0091 0.9994
vn -0.8337 -0.5435 0.0973
vn -0.8342 -0.5501 0.0380
vn -0.8232 -0.5484 -0.1470
vn -0.5947 -0.8035 0.0271
vn -0.5582 -0.8277 0.0576
vn 0.5486 -0.8335 0.0659
vn -0.5610 -0.8231 0.0889
vn -0.5595 -0.8277 0.0441
vn -0.5524 -0.8215 -0.1416
vn -0.2173 -0.9751 0.0452
vn -0.1985 -0.9781 0.0627
vn -0.5575 -0.8213 0.1211
vn -0.2029 -0.9765 0.0724
vn -0.1993 -0.9787 0.0497
vn -0.1965 -0.9722 -0.1274
vn 0.1930 -0.9797 0.0549
vn 0.1913 -0.9790 0.0700
vn -0.1998 -0.9739 0.1077
vn 0.1861 -0.9812 0.0506
vn 0.1914 -0.9798 0.0581
vn 0.1920 -0.9756 -0.1069
vn 0.5529 -0.8307 0.0651
vn 0.5515 -0.8305 0.0786
vn 0.5470 -0.8367 0.0269
vn 0.5519 -0.8311 0.0682
vn 0.5537 -0.8286 -0.0833
vn 0.8258 -0.5622 0.0439
vn 0.8267 -0.5558 0.0870
vn 0.9993 0.0099 0.0365
vn 0.9832 -0.1701 -0.0662
vn 0.8270 -0.5566 0.0789
vn 0.8311 -0.5528 -0.0604
vn 0.9759 -0.2006 0.0864
vn 0.9757 -0.1976 0.0946
vn -0.0554 0.0327 -0.9979
vn 0.9783 -0.2071 -0.0087
vn 0.9759 -0.1992 0.0890
vn 0.9806 -0.1915 -0.0420
vn 0.9771 0.1923 0.0912
vn 0.9772 0.1895 0.0961
vn 0.9828 0.1839 0.0142
vn 0.9830 0.1824 -0.0202
vn 0.9777 0.1867 0.0962
vn 0.8350 0.5468 -0.0617
vn 0.8292 0.5512 0.0929
vn 0.8312 0.5477 0.0954
vn 0.8383 0.5451 0.0104
vn 0.8386 0.5444 -0.0202
vn 0.8331 0.5443 0.0986
vn 0.8290 0.5586 -0.0272
vn 0.5556 0.8268 0.0882
vn 0.5594 0.8233 0.0958
vn 0.5666 0.8238 0.0162
vn -0.1825 0.9830 0.0173
vn -0.0635 0.9979 0.0125
vn 0.5523 0.8329 -0.0339
vn 0.1971 0.9772 0.0793
vn 0.2025 0.9752 0.0897
vn 0.2090 0.9774 0.0304
vn 0.2094 0.9778 0.0078
vn 0.2065 0.9736 0.0975
vn 0.1917 0.9803 -0.0472
vn -0.0061 -0.0144 -0.9999
vn 0.0261 -0.0062 0.9996
vn -0.0186 -0.0227 -0.9996
vn -0.2053 0.9737 0.0983
vn -0.0332 -0.0199 -0.9993
vn -0.0090 -0.0255 -0.9996
vn -0.0360 0.0135 -0.9993
vn -0.0286 0.0132 -0.9995
vn 0.1886 -0.9781 0.0883
vn -0.0197 0.0093 -0.9998
vn -0.0135 -0.0001 -0.9999
vn 0.0413 0.0002 0.9991
vn 0.0843 0.0859 0.9927
vn 0.8913 -0.1102 0.4399
vn -0.0745 0.0366 -0.9966
vn -0.0596 0.0482 -0.9971
vn -0.0414 0.0221 -0.9989
vn -0.0483 -0.0174 -0.9987
vn -0.0709 -0.0317 -0.9970
vn 0.9414 -0.1845 0.2824
vn -0.0813 -0.0177 -0.9965
vn 0.1970 -0.9390 0.2821
vn 0.0347 0.1146 0.9928
vn -0.0368 -0.4603 -0.8870
vn -0.7969 0.5319 0.2865
vn -0.1884 -0.9330 -0.3068
vn 0.9358 -0.1817 -0.3022
vn -0.7909 0.5325 -0.3016
vn -0.9405 0.1837 0.2860
vn 0.0429 0.0264 0.9987
vn -0.9351 -0.1840 -0.3029
vn -0.5305 0.7977 0.2867
vn 0.5399 -0.7931 0.2818
vn 0.7130 -0.5487 0.4366
vn 0.5669 0.8237 -0.0092
vn -0.5293 0.7928 -0.3023
vn 0.5482 0.7792 -0.3039
vn 0.5417 -0.7828 -0.3061
vn -0.1767 -0.9428 0.2826
vn 0.2071 0.9354 0.2867
vn -0.1858 0.9345 -0.3038
vn -0.5244 -0.8029 0.2834
vn 0.1917 -0.9321 -0.3074
vn -0.7925 -0.5396 0.2843
vn 0.5361 0.7946 0.2851
vn -0.7934 -0.5273 -0.3039
vn 0.8019 0.5153 -0.3023
vn 0.9366 0.1781 -0.3016
vn -0.5313 -0.7903 -0.3053
vn 0.0022 -0.0222 0.9998
vn -0.0819 0.8868 0.4549
vn -0.8109 -0.0101 0.5851
vn 0.7987 0.5304 0.2842
vn 0.0044 -0.0178 -0.9998
vn 0.7602 0.6494 -0.0167
vn -0.9333 -0.0504 0.3555
vn 0.7904 0.6116 0.0349
vn 0.5628 0.8208 0.0974
vn 0.7775 0.6257 0.0633
vn 0.7470 -0.6513 0.1334
vn 0.9902 0.0079 0.1395
vn 0.7478 -0.6621 0.0483
vn -0.0176 -0.0038 -0.9998
vn 0.7703 -0.6362 -0.0436
vn 0.8251 -0.5650 0.0051
vn -0.8281 0.5494 -0.1114
vn -0.8193 0.5656 0.0940
vn -0.7833 0.6170 0.0766
vn -0.8205 0.5669 0.0731
vn -0.8164 0.5738 0.0644
vn -0.7802 0.6203 0.0808
vn -0.8255 0.5612 0.0593
vn -0.7891 0.5967 -0.1462
vn -0.9884 -0.1338 0.0721
vn -0.7786 0.6211 0.0893
vn 0.9795 0.1990 -0.0315
vn 0.9481 0.2890 0.1329
vn 0.8380 0.5304 0.1280
vn 0.9558 0.2859 -0.0684
vn 0.0234 -0.0313 0.9992
vn 0.0458 -0.0116 0.9989
vn -0.0270 -0.0251 -0.9993
vn 0.0006 -0.0083 1.0000
vn 0.0101 0.0012 0.9999
vn 0.0235 0.0011 0.9997
vn -0.8274 0.5471 -0.1270
vn 0.0790 -0.0084 0.9968
vn 0.0175 0.2423 0.9701
vn -0.0454 0.0012 -0.9990
vn -0.0401 -0.0067 -0.9992
vn 0.0116 -0.0966 0.9953
vn -0.0180 -0.0748 0.9970
vn -0.0353 -0.0466 0.9983
vn -0.0417 -0.0175 0.9990
vn 0.0345 -0.0213 0.9992
vn 0.0094 -0.0316 0.9995
vn -0.0385 0.0105 0.9992
vn 0.0563 0.1074 0.9926
vn -0.0088 0.0812 0.9967
vn 0.0004 -0.0304 -0.9995
vn 0.1431 0.0230 0.9894
vn 0.1463 -0.0232 0.9890
vn 0.1280 -0.0660 0.9896
vn 0.0931 -0.0951 0.9911
vn 0.0510 -0.1052 0.9931
vn 0.8009 -0.5283 0.2820
vn 0.0321 -0.0091 0.9994
vn -0.0162 0.0612 0.9980
vn 0.1035 0.0016 0.9946
vn 0.1221 -0.0465 0.9914
vn 0.1095 -0.1054 0.9884
vn 0.1249 -0.1298 0.9836
vn -0.0805 -0.1640 0.9832
vn -0.0767 -0.1390 0.9873
vn -0.1170 -0.0801 0.9899
vn -0.1184 -0.0125 0.9929
vn -0.0858 0.0392 0.9955
vn -0.0381 0.0607 0.9974
vn 0.0027 0.0543 0.9985
vn 0.0242 0.0353 0.9991
vn 0.0258 -0.0257 0.9993
vn -0.0316 0.0362 0.9988
vn -0.0113 -0.0031 0.9999
vn -0.0077 0.0201 0.9998
vn 0.0113 0.0340 0.9994
vn 0.0346 0.0304 0.9989
vn 0.0491 0.0118 0.9987
vn 0.1331 0.0063 0.9911
vn -0.0705 -0.0079 0.9975
vn 0.1349 0.1766 0.9750
vn 0.0112 0.0340 0.9994
vn 0.0345 0.0304 0.9989
vn 0.0484 0.0114 0.9988
vn -0.5556 0.8208 -0.1331
vn 0.0105 -0.1365 0.9906
vn -0.0491 -0.1105 0.9927
vn -0.0906 -0.0635 0.9939
vn -0.1083 -0.0066 0.9941
vn -0.1027 0.0492 0.9935
vn -0.0787 0.0960 0.9923
vn -0.0418 0.1306 0.9906
vn 0.0808 0.2111 0.9741
vn -0.0534 0.1241 0.9908
vn 0.0977 0.1427 0.9849
vn 0.1430 0.1142 0.9831
vn 0.1753 0.0680 0.9822
vn 0.1876 0.0095 0.9822
vn 0.1743 -0.0518 0.9833
vn 0.1352 -0.1036 0.9854
vn 0.0766 -0.1342 0.9880
vn 0.0029 -0.0479 0.9988
vn -0.0412 -0.0154 0.9990
vn -0.0494 0.0387 0.9980
vn -0.0169 0.0827 0.9964
vn 0.0374 0.0909 0.9952
vn 0.0815 0.0583 0.9950
vn 0.0940 0.0075 0.9955
vn -0.0666 -0.0708 0.9953
vn 0.1859 0.1685 0.9680
vn -0.0448 -0.0134 0.9989
vn -0.0497 0.0385 0.9980
vn -0.0173 0.0826 0.9964
vn 0.0368 0.0909 0.9952
vn 0.0811 0.0586 0.9950
vn 0.0895 0.0045 0.9960
vn 0.0571 -0.0396 0.9976
vn -0.0030 -0.0254 -0.9997
vn 0.0980 0.1996 0.9750
vn 0.1446 0.1715 0.9745
vn 0.1850 0.1246 0.9748
vn 0.2082 0.0580 0.9764
vn 0.2013 -0.0207 0.9793
vn 0.1604 -0.0904 0.9829
vn -0.0351 -0.2051 0.9781
vn 0.0976 -0.2617 0.9602
vn -0.1059 -0.1089 0.9884
vn -0.1586 -0.0379 0.9866
vn -0.1744 0.0474 0.9835
vn -0.1530 0.1240 0.9804
vn -0.1074 0.1783 0.9781
vn -0.0528 0.2078 0.9767
vn 0.0007 0.2175 0.9761
vn 0.9784 -0.2053 0.0256
vn -0.0174 -0.0156 -0.9997
vn 0.0292 0.0207 0.9994
vn -0.0090 0.0029 -1.0000
vn 0.0023 0.0107 -0.9999
vn 0.0094 -0.0045 -0.9999
vn 0.0700 0.0267 0.9972
vn 0.1198 0.0612 0.9909
vn -0.0597 -0.0199 -0.9980
vn -0.1020 0.0284 -0.9944
vn -0.0717 0.0596 -0.9956
vn -0.0208 0.0351 -0.9992
vn 0.0514 -0.0720 -0.9961
vn -0.0253 -0.0801 -0.9965
vn -0.0611 -0.0816 -0.9948
vn -0.0412 -0.0392 -0.9984
vn 0.0949 0.3720 -0.9234
vn 0.2169 0.2925 -0.9313
vn 0.2983 0.1793 -0.9375
vn 0.3349 0.0497 -0.9410
vn 0.3311 -0.0778 -0.9404
vn 0.2759 -0.2080 -0.9384
vn 0.1770 -0.3123 -0.9334
vn 0.0448 -0.3756 -0.9257
vn -0.1517 -0.3543 -0.9227
vn -0.3160 -0.2383 -0.9183
vn -0.3948 -0.1207 -0.9108
vn -0.4317 -0.0181 -0.9018
vn -0.4466 0.0822 -0.8909
vn -0.4201 0.2069 -0.8836
vn -0.3190 0.3359 -0.8862
vn -0.1082 0.4087 -0.9063
vn -0.0146 -0.0631 -0.9979
vn -0.8303 -0.5427 0.1268
vn -0.0066 0.0132 -0.9999
vn 0.0325 0.0235 -0.9992
vn 0.0689 0.0152 -0.9975
vn 0.0766 -0.0339 -0.9965
vn -0.1740 0.1622 -0.9713
vn 0.0127 -0.0794 -0.9968
vn -0.0911 -0.0468 -0.9947
vn -0.1480 0.0591 -0.9872
vn -0.0763 0.1168 -0.9902
vn 0.0199 0.0719 -0.9972
vn 0.0560 -0.0437 -0.9975
vn 0.0132 -0.1366 -0.9905
vn -0.0576 -0.1540 -0.9864
vn -0.0455 -0.0975 -0.9942
vn -0.0261 -0.1044 -0.9942
vn -0.0999 -0.1151 -0.9883
vn -0.1753 -0.0821 -0.9811
vn -0.2238 -0.0079 -0.9746
vn -0.2172 0.0957 -0.9714
vn -0.0264 -0.0230 -0.9994
vn -0.1014 0.1985 -0.9748
vn -0.0195 0.1889 -0.9818
vn -0.0205 0.1830 -0.9829
vn -0.0190 0.2062 -0.9783
vn 0.0238 0.1673 -0.9856
vn 0.0383 0.0738 -0.9965
vn -0.0079 -0.0271 -0.9996
vn -0.0814 -0.0691 -0.9943
vn -0.1213 -0.0541 -0.9911
vn -0.0526 -0.0494 -0.9974
vn 0.0428 -0.0223 -0.9988
vn -0.3752 -0.0626 -0.9248
vn -0.0381 -0.0462 -0.9982
vn -0.0668 -0.0140 -0.9977
vn -0.0559 0.0449 -0.9974
vn -0.0304 0.0587 -0.9978
vn 0.0033 0.0520 -0.9986
vn 0.0349 0.0214 -0.9992
vn 0.0233 0.1149 0.9931
vn -0.1218 0.1121 -0.9862
vn -0.0872 0.1215 -0.9888
vn -0.0605 0.0561 -0.9966
vn -0.0943 -0.0333 -0.9950
vn -0.1615 -0.0595 -0.9851
vn -0.1898 -0.0143 -0.9817
vn -0.0533 0.0291 -0.9982
vn 0.1654 -0.0920 -0.9819
vn 0.0694 -0.1105 -0.9914
vn 0.0033 -0.0884 -0.9961
vn -0.9740 0.1902 -0.1230
vn 0.0074 0.0759 -0.9971
vn 0.0564 0.0723 -0.9958
vn 0.1031 0.0425 -0.9938
vn 0.1633 -0.0122 -0.9865
vn -0.0871 0.0033 -0.9962
vn -0.2701 0.2249 -0.9362
vn -0.1394 0.2443 -0.9596
vn -0.0326 0.1161 -0.9927
vn -0.0534 -0.0917 -0.9944
vn -0.1845 -0.2010 -0.9621
vn -0.3161 -0.1618 -0.9348
vn -0.0543 -0.0210 -0.9983
vn 0.2282 0.1826 -0.9563
vn 0.2289 0.1120 -0.9670
vn 0.2270 0.0495 -0.9726
vn 0.2231 0.0119 -0.9747
vn 0.2719 0.0619 -0.9603
vn 0.3072 -0.0260 -0.9513
vn 0.3225 -0.1366 -0.9367
vn 0.3870 -0.2657 -0.8830
vn -0.1507 -0.2456 -0.9576
vn -0.4121 0.0346 -0.9105
vn -0.3650 0.1082 -0.9247
vn -0.3233 0.0706 -0.9436
vn -0.9716 0.2082 0.1122
vn -0.5193 -0.1161 -0.8467
vn -0.6802 -0.0222 -0.7327
vn -0.1116 0.2866 -0.9515
vn 0.1860 0.9714 -0.1472
vn 0.5434 0.8255 -0.1528
vn 0.8179 0.5537 -0.1561
vn 0.9678 0.1973 -0.1566
vn 0.9693 -0.1895 -0.1564
vn 0.8228 -0.5476 -0.1519
vn 0.5501 -0.8222 -0.1459
vn 0.1960 -0.9709 -0.1379
vn 0.1957 -0.9707 -0.1393
vn -0.1914 -0.9725 -0.1328
vn -0.1568 -0.9760 -0.1513
vn -0.5512 -0.8246 -0.1273
vn -0.8248 -0.5517 -0.1235
vn -0.9732 -0.1952 -0.1213
vn -0.1876 0.9807 0.0552
vn -0.1778 0.9810 0.0777
vn -0.1779 0.9828 0.0501
vn -0.1870 0.9820 0.0263
vn -0.1935 0.9771 0.0882
vn -0.2008 0.9775 -0.0652
vn -0.5506 0.8345 0.0214
vn -0.5413 0.8379 0.0702
vn -0.5393 0.8390 0.0726
vn -0.5477 0.8352 0.0494
vn -0.5545 0.8287 0.0763
vn -0.5583 0.8250 -0.0878
vn -0.8535 0.5209 0.0147
vn -0.8219 0.5657 0.0673
vn -0.9839 -0.1365 0.1152
vn -0.9805 0.1648 0.1073
vn -0.9989 -0.0293 0.0352
vn -0.9838 0.1791 0.0102
vn -0.9781 0.2063 0.0278
vn -0.9755 0.2016 0.0881
vn -0.9801 0.1912 0.0527
vn -0.9731 0.1895 -0.1307
vn -0.9855 -0.1694 0.0080
vn -0.9826 -0.1835 0.0281
vn -0.9773 -0.1885 0.0966
vn -0.9789 -0.1991 0.0454
vn -0.9702 -0.1958 -0.1430
vn -0.8587 -0.5124 0.0052
vn -0.8373 -0.5455 0.0371
vn -0.8295 -0.5493 0.1005
vn -0.8284 -0.5585 0.0425
vn -0.8212 -0.5509 -0.1485
vn -0.5600 -0.8284 0.0059
vn -0.5628 -0.8244 0.0601
vn -0.5558 -0.8263 0.0914
vn -0.5523 -0.8327 0.0400
vn -0.5485 -0.8237 -0.1435
vn -0.1995 -0.9792 0.0364
vn -0.2031 -0.9770 0.0648
vn -0.1975 -0.9775 0.0746
vn -0.1921 -0.9803 0.0463
vn -0.1914 -0.9729 -0.1297
vn 0.1911 -0.9800 0.0558
vn 0.1877 -0.9796 0.0717
vn 0.1911 -0.9802 0.0525
vn 0.1974 -0.9788 0.0554
vn 0.1972 -0.9743 -0.1091
vn 0.5517 -0.8315 0.0658
vn 0.5489 -0.8321 0.0800
vn 0.5513 -0.8338 0.0289
vn 0.5566 -0.8282 0.0658
vn 0.5574 -0.8258 -0.0852
vn 0.8248 -0.5584 0.0883
vn 0.9853 -0.1694 0.0240
vn 0.8305 -0.5517 0.0764
vn 0.8331 -0.5497 -0.0619
vn 0.9765 -0.1979 0.0850
vn 0.9750 -0.2020 0.0929
vn 0.9795 -0.2013 -0.0110
vn 0.9776 -0.1921 0.0859
vn 0.9811 -0.1887 -0.0431
vn 0.9775 0.1895 0.0926
vn 0.9780 0.1834 0.0990
vn 0.9831 0.1825 0.0137
vn 0.9819 0.1886 -0.0175
vn 0.9762 0.1956 0.0932
vn 0.8315 0.5480 0.0909
vn 0.8352 0.5409 0.0993
vn 0.8392 0.5438 0.0111
vn 0.8350 0.5499 -0.0173
vn 0.8271 0.5527 0.1018
vn 0.8276 0.5606 -0.0280
vn 0.5598 0.8242 0.0857
vn 0.5670 0.8186 0.0914
vn 0.5681 0.8228 0.0168
vn -0.0667 0.9974 0.0254
vn 0.5501 0.8345 -0.0327
vn 0.2024 0.9763 0.0767
vn 0.2116 0.9736 0.0851
vn 0.2109 0.9771 0.0296
vn 0.2024 0.9793 0.0057
vn 0.1955 0.9762 0.0934
vn 0.1887 0.9810 -0.0459
vn -0.0096 0.0006 -1.0000
vn 0.1956 0.9321 -0.3048
vn -0.0165 -0.0101 -0.9998
vn -0.0286 -0.0126 -0.9995
vn 0.0018 -0.0221 0.9998
vn -0.0414 0.0122 -0.9991
vn -0.0330 0.0204 -0.9992
vn -0.0215 0.0202 -0.9996
vn -0.0103 0.0131 -0.9999
vn 0.0461 -0.0051 0.9989
vn 0.9314 -0.0385 0.3620
vn -0.0785 0.0173 -0.9968
vn -0.0703 0.0320 -0.9970
vn -0.0480 0.0174 -0.9987
vn 0.9407 0.1868 0.2832
vn -0.0415 -0.0222 -0.9989
vn 0.7995 -0.5182 -0.3039
vn -0.0601 -0.0482 -0.9970
vn -0.0771 -0.0384 -0.9963
vn 0.0329 -0.0077 0.9994
vn -0.9756 -0.1812 0.1237
vn 0.0405 0.1177 0.9922
vn 0.0463 0.1231 0.9913
vn 0.0561 0.1372 0.9890
vn 0.0927 0.2246 0.9700
vn -0.0184 0.1754 0.9843
vn 0.0563 0.1014 0.9933
vn 0.0129 0.1238 0.9922
vn 0.0180 0.1183 0.9928
vn 0.1207 -0.8621 -0.4921
vn 0.0572 -0.8210 -0.5680
vn -0.0478 -0.4436 -0.8949
vn -0.0925 -0.2410 -0.9661
vn -0.0997 -0.0726 -0.9924
vn -0.0927 0.1567 -0.9833
vn -0.0930 0.2718 -0.9579
vn -0.0380 0.4443 -0.8951
vn 0.1017 0.8152 -0.5702
vn 0.1452 0.8383 -0.5255
vn -0.0320 0.4516 -0.8917
vn -0.0912 0.1617 -0.9826
vn -0.0837 -0.1409 -0.9865
vn 0.5612 0.8276 -0.0113
vn 0.0928 0.8615 0.4991
vn -0.1834 0.9404 0.2865
vn 0.7781 0.6277 -0.0209
vn -0.8816 -0.1406 0.4506
vn 0.5536 0.8267 0.1008
vn 0.7753 -0.6295 0.0511
vn 0.8282 -0.5603 0.0066
vn -0.8292 0.5479 -0.1108
vn -0.8183 0.5669 0.0945
vn -0.8151 0.5746 0.0734
vn -0.8247 0.5611 0.0709
vn -0.7756 0.6286 0.0579
vn -0.8312 0.5525 0.0625
vn -0.7809 0.6182 0.0893
vn 0.9791 0.2012 -0.0306
vn 0.0201 -0.0366 0.9991
vn 0.0090 -0.0096 0.9999
vn 0.0202 -0.0050 0.9998
vn 0.0360 -0.0209 0.9991
vn 0.1185 0.2311 0.9657
vn -0.1104 0.0320 0.9934
vn 0.0313 -0.0320 0.9990
vn 0.0072 -0.0804 0.9967
vn -0.0161 -0.0601 0.9981
vn -0.0296 -0.0366 0.9989
vn -0.0358 -0.0130 0.9993
vn 0.0664 0.0934 0.9934
vn -0.0163 0.1065 0.9942
vn 0.1390 0.0197 0.9901
vn 0.1371 -0.0258 0.9902
vn 0.1149 -0.0643 0.9913
vn 0.0793 -0.0872 0.9930
vn 0.0405 -0.0916 0.9950
vn 0.1041 0.0132 0.9945
vn 0.1324 -0.0248 0.9909
vn 0.1377 -0.0800 0.9872
vn 0.1104 -0.1349 0.9847
vn 0.1083 -0.1737 0.9788
vn -0.0637 -0.1451 0.9874
vn -0.0677 -0.1349 0.9885
vn -0.0949 -0.0791 0.9923
vn -0.0891 -0.0230 0.9958
vn -0.0597 0.0157 0.9981
vn -0.0237 0.0306 0.9992
vn 0.0042 0.0283 0.9996
vn 0.0194 0.0217 0.9996
vn 0.0182 -0.0323 0.9993
vn -0.0027 -0.0038 1.0000
vn 0.0073 0.0126 0.9999
vn 0.0259 0.0171 0.9995
vn 0.0422 0.0071 0.9991
vn 0.0469 -0.0111 0.9988
vn 0.1100 -0.0414 0.9931
vn -0.0490 0.0109 0.9987
vn 0.0072 0.0126 0.9999
vn 0.0258 0.0171 0.9995
vn 0.0422 0.0072 0.9991
vn 0.0367 -0.0278 0.9989
vn -0.0069 -0.1148 0.9934
vn -0.0575 -0.0813 0.9950
vn -0.0871 -0.0326 0.9957
vn -0.0939 0.0195 0.9954
vn -0.0819 0.0658 0.9945
vn -0.0573 0.1022 0.9931
vn -0.0236 0.1291 0.9914
vn 0.0501 0.2142 0.9755
vn -0.0822 0.1594 0.9838
vn 0.0993 0.1379 0.9855
vn 0.1424 0.1085 0.9838
vn 0.1719 0.0618 0.9832
vn 0.1798 0.0032 0.9837
vn 0.1608 -0.0559 0.9854
vn 0.1163 -0.1016 0.9880
vn 0.0557 -0.1228 0.9909
vn 0.0099 -0.0446 0.9990
vn -0.0087 -0.0139 0.9999
vn -0.0001 0.0211 0.9998
vn 0.0309 0.0396 0.9987
vn 0.0658 0.0309 0.9974
vn 0.0843 -0.0000 0.9964
vn 0.0768 -0.0334 0.9965
vn -0.1132 0.0252 0.9932
vn -0.0098 -0.0129 0.9999
vn -0.0004 0.0209 0.9998
vn 0.0304 0.0396 0.9988
vn 0.0654 0.0310 0.9974
vn 0.0840 0.0002 0.9965
vn 0.0755 -0.0346 0.9965
vn 0.0448 -0.0532 0.9976
vn 0.0945 0.2124 0.9726
vn 0.1474 0.1934 0.9700
vn 0.1981 0.1473 0.9690
vn 0.2283 0.0734 0.9708
vn 0.2200 -0.0158 0.9754
vn 0.1775 -0.0914 0.9799
vn 0.0536 -0.2659 0.9625
vn 0.0133 -0.1467 0.9891
vn -0.1171 -0.0730 0.9904
vn -0.1524 0.0043 0.9883
vn -0.1502 0.0877 0.9848
vn -0.1164 0.1511 0.9816
vn -0.0700 0.1879 0.9797
vn -0.0256 0.2041 0.9786
vn 0.0124 0.2107 0.9775
vn -0.0191 -0.0233 -0.9995
vn -0.0228 -0.0130 -0.9997
vn -0.0109 0.0083 -0.9999
vn 0.0015 -0.0028 -1.0000
vn -0.0556 -0.0428 -0.9975
vn -0.1128 -0.0154 -0.9935
vn -0.0965 0.0255 -0.9950
vn -0.0404 0.0223 -0.9989
vn -0.0027 -0.0834 -0.9965
vn -0.0332 -0.0981 -0.9946
vn -0.0314 -0.0531 -0.9981
vn 0.0916 0.3692 -0.9248
vn 0.2118 0.2907 -0.9331
vn 0.2890 0.1797 -0.9403
vn 0.3200 0.0566 -0.9457
vn 0.3113 -0.0562 -0.9486
vn 0.2634 -0.1741 -0.9488
vn 0.1789 -0.2695 -0.9462
vn 0.0663 -0.3315 -0.9411
vn -0.1269 -0.3338 -0.9341
vn -0.3032 -0.2346 -0.9236
vn -0.3795 -0.1223 -0.9171
vn -0.4074 -0.0311 -0.9127
vn -0.4183 0.0483 -0.9070
vn -0.4028 0.1549 -0.9021
vn -0.3227 0.2824 -0.9034
vn -0.1200 0.3853 -0.9149
vn -0.0062 -0.0879 -0.9961
vn -0.0305 -0.0605 -0.9977
vn 0.0036 -0.0011 -1.0000
vn 0.0367 0.0050 -0.9993
vn 0.0605 -0.0326 -0.9976
vn 0.0230 -0.0910 -0.9956
vn -0.0732 -0.0984 -0.9924
vn -0.1574 -0.0333 -0.9870
vn -0.1197 0.0394 -0.9920
vn -0.0233 0.0359 -0.9991
vn 0.0452 -0.0476 -0.9978
vn 0.0410 -0.1370 -0.9897
vn -0.0089 -0.1740 -0.9847
vn -0.0189 -0.1250 -0.9920
vn 0.0327 -0.0653 -0.9973
vn -0.0319 -0.1006 -0.9944
vn -0.1146 -0.0936 -0.9890
vn -0.1854 -0.0336 -0.9821
vn -0.2067 0.0800 -0.9751
vn -0.0984 0.2142 -0.9718
vn 0.0014 0.2189 -0.9757
vn -0.0126 0.1875 -0.9822
vn -0.0485 0.2024 -0.9781
vn 0.0028 0.1720 -0.9851
vn 0.0419 0.0714 -0.9966
vn 0.0140 -0.0569 -0.9983
vn -0.0669 -0.1226 -0.9902
vn -0.1289 -0.1041 -0.9862
vn -0.0435 -0.0360 -0.9984
vn 0.1002 0.0196 -0.9948
vn 0.0630 -0.0328 -0.9975
vn -0.9335 0.1934 -0.3019
vn -0.0442 -0.0270 -0.9987
vn -0.0610 0.0515 -0.9968
vn -0.0368 0.0812 -0.9960
vn 0.0079 0.0908 -0.9958
vn 0.0657 0.0715 -0.9953
vn -0.1828 0.1012 -0.9779
vn -0.1345 0.1288 -0.9825
vn -0.0700 0.0615 -0.9957
vn -0.0700 -0.0628 -0.9956
vn -0.1392 -0.1288 -0.9818
vn -0.1994 -0.0952 -0.9753
vn 0.0932 -0.0138 -0.9956
vn 0.0512 -0.0500 -0.9974
vn -0.0305 0.0450 -0.9985
vn -0.0001 0.0561 -0.9984
vn 0.0349 0.0494 -0.9982
vn 0.0737 0.0291 -0.9969
vn -0.0631 -0.0190 -0.9978
vn -0.2159 0.0565 -0.9748
vn -0.1616 0.1123 -0.9805
vn -0.0648 0.0624 -0.9959
vn -0.0276 -0.0712 -0.9971
vn -0.0794 -0.1667 -0.9828
vn -0.1513 -0.1623 -0.9751
vn -0.0417 -0.0253 -0.9988
vn 0.4514 0.2404 -0.8593
vn 0.3660 0.1085 -0.9243
vn 0.3157 0.0104 -0.9488
vn 0.2502 -0.0173 -0.9681
vn 0.2234 0.0199 -0.9745
vn 0.2215 -0.0523 -0.9738
vn 0.2027 -0.1276 -0.9709
vn 0.1868 -0.1929 -0.9633
vn -0.2121 -0.2490 -0.9450
vn -0.6727 0.0960 -0.7337
vn -0.5007 0.1712 -0.8485
vn -0.3665 0.1139 -0.9234
vn -0.3278 -0.0242 -0.9444
vn -0.4208 0.0113 -0.9071
vn -0.1058 0.2856 -0.9525
vn -0.9389 -0.1929 0.2852
vt 1.000000 1.000000
vt 0.937500 0.928571
vt 1.000000 0.928571
vt 0.937500 1.000000
vt 0.875000 0.928572
vt 0.875001 1.000001
vt 0.812500 0.928571
vt 0.812500 1.000000
vt 0.750000 0.928572
vt 0.687500 1.000000
vt 0.687500 0.928571
vt 0.625000 1.000000
vt 0.625000 0.928571
vt 0.562500 1.000000
vt 0.562500 0.928571
vt 0.500000 0.988729
vt 0.504658 1.000000
vt 0.495888 1.000000
vt 0.437500 1.000000
vt 0.437500 0.928571
vt 0.375000 1.000000
vt 0.375000 0.928571
vt 0.312500 0.999999
vt 0.312500 0.928571
vt 0.250000 0.928571
vt 0.774742 0.276795
vt 0.791601 0.293397
vt 0.780398 0.327528
vt 0.807735 0.309273
vt 0.804975 0.273493
vt 0.062500 1.000000
vt 0.000000 1.000000
vt 0.000000 0.928571
vt 0.062500 0.928571
vt 0.687500 0.571429
vt 0.625000 0.571429
vt 0.625000 0.500000
vt 0.687500 0.500000
vt 0.250113 0.275748
vt 0.240267 0.273789
vt 0.249594 0.224684
vt 0.259965 0.273788
vt 0.673787 0.435325
vt 0.658156 0.471731
vt 0.750000 0.490000
vt 0.749889 0.450625
vt 0.062500 0.500000
vt 0.000000 0.571429
vt 0.000000 0.500000
vt 0.062500 0.571429
vt 0.000000 0.642857
vt 0.062500 0.714286
vt 0.062500 0.642857
vt 0.062500 0.785714
vt 0.000000 0.714286
vt 0.000000 0.857143
vt 0.000000 0.785714
vt 0.062500 0.857143
vt 0.125000 0.500000
vt 0.125000 0.571429
vt 0.125000 0.714286
vt 0.125000 0.642857
vt 0.125000 0.785714
vt 0.125000 0.857143
vt 0.187500 0.500000
vt 0.179916 0.642857
vt 0.187500 0.571429
vt 0.187500 0.714286
vt 0.187500 0.642857
vt 0.187500 0.785714
vt 0.179369 0.714286
vt 0.176814 0.857143
vt 0.172596 0.785714
vt 0.187500 0.857143
vt 0.187500 0.928571
vt 0.250000 0.500000
vt 0.250000 0.571429
vt 0.199467 0.642857
vt 0.250000 0.785714
vt 0.200392 0.714286
vt 0.250000 0.714286
vt 0.200685 0.857143
vt 0.202468 0.785714
vt 0.250000 0.857143
vt 0.312500 0.571428
vt 0.312500 0.500000
vt 0.312500 0.642857
vt 0.092350 0.184651
vt 0.067716 0.174483
vt 0.110487 0.110471
vt 0.129372 0.129266
vt 0.312500 0.785714
vt 0.312500 0.714286
vt 0.312500 0.857143
vt 0.375000 0.571429
vt 0.375000 0.500000
vt 0.375000 0.642857
vt 0.389509 0.110475
vt 0.432284 0.174491
vt 0.370725 0.129272
vt 0.315876 0.092302
vt 0.375000 0.714286
vt 0.375000 0.785714
vt 0.375000 0.857143
vt 0.437500 0.571429
vt 0.437500 0.500000
vt 0.437500 0.642857
vt 0.625000 0.642857
vt 0.625000 0.714286
vt 0.562500 0.714286
vt 0.562500 0.642857
vt 0.437500 0.714286
vt 0.437500 0.857143
vt 0.437500 0.785714
vt 0.500000 0.571429
vt 0.500000 0.500000
vt 0.500000 0.642857
vt 0.500000 0.714286
vt 0.500000 0.857143
vt 0.500000 0.785714
vt 0.500000 0.928571
vt 0.562500 0.571429
vt 0.562500 0.500000
vt 0.562500 0.857143
vt 0.562500 0.785714
vt 0.625000 0.857143
vt 0.625000 0.785714
vt 0.676706 0.642857
vt 0.670299 0.714286
vt 0.687500 0.642857
vt 0.687500 0.714286
vt 0.687500 0.785714
vt 0.687500 0.857143
vt 0.750000 0.571429
vt 0.750000 0.500000
vt 0.701536 0.642857
vt 0.749890 0.311134
vt 0.730632 0.307038
vt 0.721284 0.327760
vt 0.749786 0.333757
vt 0.750000 0.785714
vt 0.703824 0.714286
vt 0.750000 0.714286
vt 0.750000 0.857143
vt 0.812500 0.571429
vt 0.812500 0.500000
vt 0.812500 0.642857
vt 0.750000 0.642857
vt 0.812500 0.714286
vt 0.799722 0.857143
vt 0.812500 0.785714
vt 0.812500 0.857143
vt 0.875000 0.500000
vt 0.875000 0.642857
vt 0.875000 0.571429
vt 0.875000 0.714286
vt 0.875000 0.785714
vt 0.830573 0.857143
vt 0.875000 0.857143
vt 0.937500 0.500000
vt 0.937501 0.571429
vt 0.925894 0.714286
vt 0.937500 0.642857
vt 0.937500 0.785714
vt 0.937500 0.714286
vt 0.937500 0.857143
vt 0.922704 0.785714
vt 1.000000 0.500000
vt 1.000000 0.571429
vt 1.000000 0.642857
vt 0.951531 0.714286
vt 1.000000 0.785714
vt 1.000000 0.714286
vt 1.000000 0.857143
vt 0.951145 0.785714
vt 0.841844 0.471731
vt 0.826308 0.435161
vt 0.174494 0.067703
vt 0.110487 0.110471
vt 0.067716 0.174483
vt 0.052696 0.249994
vt 0.067716 0.325509
vt 0.110491 0.389525
vt 0.174503 0.432297
vt 0.250006 0.447315
vt 0.312910 0.434803
vt 0.341844 0.471731
vt 0.250000 0.490000
vt 0.158156 0.471731
vt 0.080294 0.419706
vt 0.028269 0.341844
vt 0.010000 0.250000
vt 0.028269 0.158156
vt 0.080294 0.080294
vt 0.158156 0.028269
vt 0.919706 0.419706
vt 0.891356 0.391688
vt 0.971731 0.341844
vt 0.934816 0.326679
vt 0.749815 0.422999
vt 0.749889 0.450624
vt 0.826308 0.435161
vt 0.815433 0.409635
vt 0.950119 0.250101
vt 0.971731 0.158156
vt 0.934776 0.173407
vt 0.891263 0.108321
vt 0.919706 0.080294
vt 0.826221 0.064841
vt 0.841843 0.028269
vt 0.342088 0.421217
vt 0.389513 0.389529
vt 0.432284 0.325517
vt 0.447304 0.250005
vt 0.432284 0.174491
vt 0.325497 0.067703
vt 0.341844 0.028269
vt 0.419706 0.080294
vt 0.471731 0.158156
vt 0.490000 0.250000
vt 0.471731 0.341844
vt 0.419706 0.419706
vt 0.749774 0.049383
vt 0.750000 0.010000
vt 0.256844 0.011361
vt 0.195401 0.118244
vt 0.149268 0.149031
vt 0.184793 0.092264
vt 0.245751 0.053529
vt 0.250778 0.010233
vt 0.251439 0.052972
vt 0.673763 0.064674
vt 0.580294 0.080294
vt 0.609676 0.108445
vt 0.528269 0.158156
vt 0.566782 0.173580
vt 0.510000 0.250000
vt 0.551826 0.250004
vt 0.566765 0.326426
vt 0.528269 0.341844
vt 0.609552 0.391510
vt 0.580294 0.419705
vt 0.052696 0.249994
vt 0.067716 0.325509
vt 0.250006 0.447315
vt 0.231918 0.268205
vt 0.226337 0.259837
vt 0.738083 0.260209
vt 0.742777 0.267758
vt 0.756190 0.270354
vt 0.566765 0.326426
vt 0.551826 0.250003
vt 0.891264 0.108321
vt 0.934776 0.173407
vt 0.447304 0.250006
vt 0.350893 0.350881
vt 0.304619 0.381800
vt 0.330413 0.330380
vt 0.355060 0.293499
vt 0.950119 0.250101
vt 0.934816 0.326679
vt 0.325497 0.067703
vt 0.110491 0.389525
vt 0.325506 0.432297
vt 0.609676 0.108445
vt 0.673763 0.064674
vt 0.673787 0.435325
vt 0.609552 0.391510
vt 0.749774 0.049383
vt 0.432284 0.325517
vt 0.891356 0.391688
vt 0.310790 0.310735
vt 0.293545 0.355014
vt 0.282930 0.329350
vt 0.254809 0.053643
vt 0.871389 0.127896
vt 0.815277 0.090369
vt 0.909019 0.316090
vt 0.871539 0.372123
vt 0.125000 0.928572
vt 0.315328 0.407691
vt 0.250023 0.420682
vt 0.206575 0.355013
vt 0.169698 0.330368
vt 0.217223 0.329349
vt 0.250078 0.335885
vt 0.783004 0.264524
vt 0.809619 0.250420
vt 0.785835 0.250477
vt 0.420692 0.249998
vt 0.407695 0.315324
vt 0.407705 0.184666
vt 0.187500 1.000000
vt 0.125000 1.000000
vt 0.250553 0.080020
vt 0.370695 0.370697
vt 0.079348 0.249979
vt 0.092339 0.315309
vt 0.129341 0.370690
vt 0.658156 0.028269
vt 0.990000 0.250000
vt 0.250041 0.392656
vt 0.381821 0.304597
vt 0.184713 0.407691
vt 0.392691 0.249988
vt 0.381846 0.195369
vt 0.305518 0.118321
vt 0.250026 0.108235
vt 0.580822 0.250006
vt 0.593553 0.315839
vt 0.118277 0.195349
vt 0.107397 0.249964
vt 0.118251 0.304578
vt 0.149179 0.350872
vt 0.195459 0.381799
vt 0.350980 0.149040
vt 0.355101 0.206440
vt 0.363728 0.249978
vt 0.330534 0.169501
vt 0.294673 0.145295
vt 0.249788 0.137303
vt 0.206215 0.145185
vt 0.169822 0.169488
vt 0.145096 0.206413
vt 0.136411 0.249944
vt 0.145055 0.293473
vt 0.250063 0.363664
vt 0.329421 0.282861
vt 0.335980 0.249963
vt 0.329473 0.217050
vt 0.310919 0.189132
vt 0.284211 0.171171
vt 0.249645 0.164950
vt 0.216642 0.171025
vt 0.249578 0.212237
vt 0.249528 0.189745
vt 0.274831 0.194334
vt 0.170792 0.217029
vt 0.189489 0.189122
vt 0.164213 0.249937
vt 0.170739 0.282841
vt 0.189360 0.310726
vt 0.250090 0.310980
vt 0.273411 0.306341
vt 0.293197 0.293122
vt 0.306436 0.273320
vt 0.311103 0.249945
vt 0.306489 0.226563
vt 0.293318 0.206745
vt 0.226040 0.194142
vt 0.207113 0.206743
vt 0.193827 0.226559
vt 0.189144 0.249939
vt 0.193773 0.273315
vt 0.206992 0.293120
vt 0.226770 0.306341
vt 0.264809 0.285526
vt 0.250108 0.288451
vt 0.277288 0.277189
vt 0.285644 0.264693
vt 0.288595 0.249937
vt 0.285685 0.235178
vt 0.277369 0.222676
vt 0.266306 0.215262
vt 0.234456 0.215041
vt 0.223023 0.222675
vt 0.214646 0.235177
vt 0.211687 0.249936
vt 0.214605 0.264692
vt 0.222941 0.277189
vt 0.235410 0.285526
vt 0.749631 0.077014
vt 0.268332 0.268200
vt 0.273935 0.259824
vt 0.275914 0.249936
vt 0.273965 0.240054
vt 0.268394 0.231697
vt 0.261403 0.227055
vt 0.239380 0.226812
vt 0.231980 0.231704
vt 0.226367 0.240068
vt 0.224384 0.249954
vt 0.922219 0.250164
vt 0.908959 0.184064
vt 0.684845 0.090172
vt 0.630260 0.127932
vt 0.593585 0.184171
vt 0.828765 0.169830
vt 0.847720 0.151187
vt 0.802226 0.120755
vt 0.791776 0.145097
vt 0.630084 0.371994
vt 0.684872 0.409822
vt 0.802468 0.379256
vt 0.847936 0.348851
vt 0.878302 0.303493
vt 0.888982 0.250237
vt 0.878222 0.196748
vt 0.749488 0.110004
vt 0.698182 0.120561
vt 0.654820 0.150958
vt 0.625390 0.196591
vt 0.615139 0.249998
vt 0.625345 0.303412
vt 0.654617 0.348938
vt 0.698219 0.379435
vt 0.749753 0.390024
vt 0.749750 0.363557
vt 0.792086 0.354918
vt 0.829027 0.330223
vt 0.853693 0.293411
vt 0.862349 0.250292
vt 0.853603 0.206900
vt 0.807420 0.190833
vt 0.825885 0.218345
vt 0.749428 0.136474
vt 0.708973 0.144893
vt 0.674514 0.169275
vt 0.650751 0.206418
vt 0.642444 0.250000
vt 0.650701 0.293589
vt 0.674296 0.330595
vt 0.709009 0.355093
vt 0.825984 0.282077
vt 0.832359 0.250367
vt 0.780012 0.172533
vt 0.749373 0.166340
vt 0.721162 0.172292
vt 0.696709 0.189754
vt 0.679244 0.217288
vt 0.673068 0.249934
vt 0.679202 0.282645
vt 0.696547 0.310114
vt 0.771571 0.306751
vt 0.723018 0.265920
vt 0.730906 0.278537
vt 0.736188 0.249939
vt 0.804875 0.226999
vt 0.791251 0.206732
vt 0.771124 0.193318
vt 0.749423 0.188950
vt 0.713517 0.205192
vt 0.700707 0.225500
vt 0.696105 0.249938
vt 0.700672 0.274439
vt 0.713362 0.294650
vt 0.730500 0.192985
vt 0.750064 0.287474
vt 0.762386 0.285009
vt 0.250000 1.000000
vt 0.782905 0.236039
vt 0.774354 0.223346
vt 0.761865 0.215040
vt 0.749541 0.212571
vt 0.740322 0.214559
vt 0.731072 0.221253
vt 0.723045 0.234044
vt 0.720058 0.249963
vt 0.740436 0.285401
vt 0.763375 0.265588
vt 0.768185 0.258458
vt 0.769791 0.250506
vt 0.768089 0.242150
vt 0.762976 0.234578
vt 0.755655 0.229724
vt 0.749631 0.228534
vt 0.746927 0.229122
vt 0.742904 0.232043
vt 0.738096 0.239732
vt 0.250000 0.642857
vt 0.747083 0.270885
vt 0.750176 0.271556
vt 0.750000 1.000000
vt 0.243957 0.011202
s 0
usemtl Wood
f 132/1/1 39/2/1 38/3/1
f 131/4/2 45/5/2 39/2/2
f 134/6/3 51/7/3 45/5/3
f 136/8/4 57/9/4 51/7/4
f 57/9/5 140/10/5 63/11/5
f 63/11/6 142/12/6 69/13/6
f 69/13/7 144/14/7 75/15/7
f 4/16/8 75/15/8 196/17/8
f 197/18/9 148/19/9 87/20/9
f 87/20/10 150/21/10 93/22/10
f 93/22/11 152/23/11 99/24/11
f 152/23/12 105/25/12 99/24/12
f 160/31/14 132/32/14 38/33/14 123/34/14
f 68/35/15 74/36/15 141/37/15 139/38/15
f 31/43/17 159/44/17 129/45/17 1/46/17
f 159/47/18 33/48/18 129/49/18
f 128/50/19 34/51/19 33/48/19
f 126/52/20 34/51/20 127/53/20
f 125/54/21 35/55/21 126/52/21
f 125/54/22 37/56/22 36/57/22
f 124/58/23 38/33/23 37/56/23
f 157/59/24 128/50/24 159/47/24
f 122/60/25 127/53/25 128/50/25
f 120/61/26 127/53/26 121/62/26
f 119/63/27 126/52/27 120/61/27
f 119/63/28 124/58/28 125/54/28
f 118/64/29 123/34/29 124/58/29
f 155/65/30 122/60/30 157/59/30
f 207/66/31 122/60/31 116/67/31
f 114/68/32 207/66/32 115/69/32
f 113/70/33 205/71/33 114/68/33
f 113/70/34 208/72/34 211/73/34
f 112/74/35 111/75/35 208/72/35
f 153/76/36 116/67/36 155/65/36
f 110/77/37 209/78/37 116/67/37
f 107/79/38 206/80/38 108/81/38
f 107/79/39 210/82/39 212/83/39
f 105/25/40 210/82/40 106/84/40
f 104/85/41 153/76/41 151/86/41
f 103/87/42 110/77/42 104/85/42
f 101/92/44 108/81/44 102/93/44
f 101/92/45 106/84/45 107/79/45
f 100/94/46 105/25/46 106/84/46
f 98/95/47 151/86/47 149/96/47
f 97/97/48 104/85/48 98/95/48
f 96/102/50 101/92/50 102/93/50
f 95/103/51 100/94/51 101/92/51
f 93/22/52 100/94/52 94/104/52
f 92/105/53 149/96/53 147/106/53
f 91/107/54 98/95/54 92/105/54
f 73/108/55 72/109/55 78/110/55 79/111/55
f 90/112/56 95/103/56 96/102/56
f 88/113/57 95/103/57 89/114/57
f 87/20/58 94/104/58 88/113/58
f 86/115/59 147/106/59 145/116/59
f 85/117/60 92/105/60 86/115/60
f 91/107/61 90/112/61 96/102/61 97/97/61
f 84/118/62 89/114/62 90/112/62
f 82/119/63 89/114/63 83/120/63
f 81/121/64 88/113/64 82/119/64
f 80/122/65 145/116/65 143/123/65
f 79/111/66 86/115/66 80/122/66
f 85/117/67 84/118/67 90/112/67 91/107/67
f 78/110/68 83/120/68 84/118/68
f 76/124/69 83/120/69 77/125/69
f 75/15/70 82/119/70 76/124/70
f 74/36/71 143/123/71 141/37/71
f 73/108/72 80/122/72 74/36/72
f 72/109/73 77/125/73 78/110/73
f 70/126/74 77/125/74 71/127/74
f 69/13/75 76/124/75 70/126/75
f 201/128/76 203/129/76 72/109/76 73/108/76
f 201/128/77 74/36/77 68/35/77
f 67/130/78 203/129/78 201/128/78
f 66/131/79 65/132/79 203/129/79
f 64/133/80 71/127/80 65/132/80
f 63/11/81 70/126/81 64/133/81
f 62/134/82 139/38/82 137/135/82
f 62/134/83 202/136/83 68/35/83
f 59/141/85 204/142/85 60/143/85
f 58/144/86 65/132/86 59/141/86
f 57/9/87 64/133/87 58/144/87
f 56/145/88 137/135/88 135/146/88
f 55/147/89 62/134/89 56/145/89
f 55/147/90 60/143/90 61/148/90
f 54/149/91 59/141/91 60/143/91
f 213/150/92 59/141/92 53/151/92
f 52/152/93 51/7/93 213/150/93
f 133/153/94 56/145/94 135/146/94
f 49/154/95 56/145/95 50/155/95
f 48/156/96 55/147/96 49/154/96
f 48/156/97 53/151/97 54/149/97
f 47/157/98 214/158/98 53/151/98
f 45/5/99 214/158/99 46/159/99
f 130/160/100 50/155/100 133/153/100
f 44/161/101 49/154/101 50/155/101
f 199/162/102 49/154/102 43/163/102
f 41/164/103 199/162/103 42/165/103
f 41/164/104 40/166/104 146/167/104
f 40/166/105 45/5/105 46/159/105
f 129/168/106 44/161/106 130/160/106
f 33/169/107 43/163/107 44/161/107
f 34/170/108 200/171/108 43/163/108
f 36/172/109 200/171/109 35/173/109
f 37/174/110 18/175/110 36/172/110
f 37/174/111 39/2/111 40/166/111
f 1/46/112 130/176/112 3/177/112
f 20/178/113 22/179/113 24/180/113 26/181/113 28/182/113 30/183/113 32/184/113 2/185/113 193/186/113 131/187/113 132/188/113 160/189/113 158/190/113 156/191/113 154/192/113 152/193/113 150/194/113 148/195/113
f 3/177/114 133/196/114 5/197/114
f 199/162/115 43/163/115 42/165/115
f 5/197/116 135/198/116 7/199/116
f 9/204/118 139/205/118 11/206/118
f 13/207/119 139/205/119 141/208/119
f 79/111/120 78/110/120 84/118/120 85/117/120
f 15/209/121 141/208/121 143/210/121
f 194/211/113 6/212/113 8/213/113 10/214/113 12/215/113 14/98/113 16/216/113 144/217/113 142/218/113 140/219/113 138/220/113 136/221/113 134/222/113 131/187/113
f 17/223/122 143/210/122 145/224/122
f 16/216/123 196/225/123 144/217/123
f 198/229/125 4/230/125 223/231/125
f 19/232/126 149/233/126 21/234/126
f 21/234/127 151/235/127 23/236/127
f 23/236/128 153/237/128 25/238/128
f 27/239/129 153/237/129 155/240/129
f 29/241/130 155/240/130 157/242/130
f 28/182/131 26/181/131 227/243/131 228/244/131
f 31/43/132 157/242/132 159/44/132
f 2/185/133 32/184/133 230/184/133 216/245/133
f 12/215/136 220/99/136 221/98/136 14/98/136
f 3/177/137 328/202/137 327/201/137 1/46/137
f 25/238/138 27/239/138 340/251/138 339/252/138
f 11/206/139 13/207/139 333/253/139 332/254/139
f 10/214/140 219/255/140 220/99/140 12/215/140
f 9/204/142 331/260/142 330/261/142 7/199/142
f 14/98/143 221/98/143 222/262/143 16/216/143
f 32/184/144 30/183/144 229/263/144 230/184/144
f 131/187/145 193/186/145 215/264/145
f 146/167/146 48/156/146 199/162/146
f 13/207/147 15/209/147 334/209/147 333/253/147
f 21/234/148 337/265/148 336/266/148 19/232/148
f 29/241/149 31/43/149 342/267/149 341/268/149
f 193/186/150 2/185/150 216/245/150 215/264/150
f 198/229/151 224/178/151 20/178/151
f 15/209/152 17/223/152 335/269/152 334/209/152
f 194/211/153 215/264/153 217/212/153 6/212/153
f 31/43/154 1/46/154 327/201/154 342/267/154
f 8/213/155 6/212/155 217/212/155 218/270/155
f 20/178/156 224/178/156 225/90/156 22/179/156
f 7/199/157 330/261/157 329/271/157 5/197/157
f 23/236/158 338/236/158 337/265/158 21/234/158
f 25/238/159 339/252/159 338/236/159 23/236/159
f 5/197/160 329/271/160 328/202/160 3/177/160
f 195/275/162 222/262/162 223/231/162
f 215/264/163 194/211/163 131/187/163
f 22/179/164 225/90/164 226/89/164 24/180/164
f 200/171/166 41/164/166 42/165/166
f 195/275/167 4/230/167 196/225/167
f 18/175/168 40/166/168 41/164/168
f 146/167/169 46/159/169 47/157/169
f 43/163/170 200/171/170 42/165/170
f 68/35/171 202/136/171 67/130/171
f 201/128/172 68/35/172 67/130/172
f 202/136/173 66/131/173 67/130/173
f 204/142/175 65/132/175 66/131/175
f 203/129/176 71/127/176 72/109/176
f 208/72/177 117/280/177 118/64/177
f 205/71/178 121/62/178 207/66/178
f 212/83/179 114/68/179 206/80/179
f 211/73/180 120/61/180 205/71/180
f 212/83/181 112/74/181 113/70/181
f 116/67/182 209/78/182 115/69/182
f 211/73/183 118/64/183 119/63/183
f 210/82/184 111/75/184 112/74/184
f 207/66/185 116/67/185 115/69/185
f 206/80/186 115/69/186 209/78/186
f 213/150/187 57/9/187 58/144/187
f 53/151/188 214/158/188 52/152/188
f 213/150/189 53/151/189 52/152/189
f 214/158/190 51/7/190 52/152/190
f 156/293/197 158/294/197 117/280/197 111/75/197
f 19/232/200 17/223/200 145/224/200 147/300/200
f 9/204/201 7/199/201 135/198/201 137/301/201
f 30/183/217 28/182/217 228/244/217 229/263/217
f 158/294/245 160/31/245 123/34/245 117/280/245
f 61/148/294 60/143/294 204/142/294 202/136/294
f 96/102/327 102/93/327 103/87/327 97/97/327
f 154/450/377 156/293/377 111/75/377 105/25/377
f 108/81/402 206/80/402 209/78/402 109/470/402
f 132/1/406 131/4/406 39/2/406
f 131/4/407 134/6/407 45/5/407
f 134/6/408 136/8/408 51/7/408
f 136/8/409 138/473/409 57/9/409
f 57/9/410 138/473/410 140/10/410
f 63/11/411 140/10/411 142/12/411
f 69/13/412 142/12/412 144/14/412
f 81/121/413 75/15/413 4/16/413
f 75/15/414 144/14/414 196/17/414
f 87/20/415 81/121/415 4/16/415
f 4/16/416 197/18/416 87/20/416
f 87/20/417 148/19/417 150/21/417
f 93/22/418 150/21/418 152/23/418
f 152/23/419 154/450/419 105/25/419
f 159/47/420 128/50/420 33/48/420
f 128/50/421 127/53/421 34/51/421
f 126/52/422 35/55/422 34/51/422
f 125/54/423 36/57/423 35/55/423
f 125/54/424 124/58/424 37/56/424
f 124/58/425 123/34/425 38/33/425
f 157/59/426 122/60/426 128/50/426
f 122/60/427 121/62/427 127/53/427
f 120/61/428 126/52/428 127/53/428
f 119/63/429 125/54/429 126/52/429
f 119/63/430 118/64/430 124/58/430
f 118/64/431 117/280/431 123/34/431
f 155/65/432 116/67/432 122/60/432
f 207/66/433 121/62/433 122/60/433
f 114/68/434 205/71/434 207/66/434
f 113/70/435 211/73/435 205/71/435
f 113/70/436 112/74/436 208/72/436
f 153/76/437 110/77/437 116/67/437
f 110/77/438 109/470/438 209/78/438
f 107/79/439 212/83/439 206/80/439
f 107/79/440 106/84/440 210/82/440
f 105/25/441 111/75/441 210/82/441
f 104/85/442 110/77/442 153/76/442
f 103/87/443 109/470/443 110/77/443
f 101/92/444 107/79/444 108/81/444
f 101/92/445 100/94/445 106/84/445
f 100/94/446 99/24/446 105/25/446
f 98/95/447 104/85/447 151/86/447
f 97/97/448 103/87/448 104/85/448
f 96/102/449 95/103/449 101/92/449
f 95/103/450 94/104/450 100/94/450
f 93/22/451 99/24/451 100/94/451
f 92/105/452 98/95/452 149/96/452
f 91/107/453 97/97/453 98/95/453
f 90/112/454 89/114/454 95/103/454
f 88/113/455 94/104/455 95/103/455
f 87/20/456 93/22/456 94/104/456
f 86/115/457 92/105/457 147/106/457
f 85/117/458 91/107/458 92/105/458
f 84/118/459 83/120/459 89/114/459
f 82/119/460 88/113/460 89/114/460
f 81/121/461 87/20/461 88/113/461
f 80/122/462 86/115/462 145/116/462
f 79/111/463 85/117/463 86/115/463
f 78/110/464 77/125/464 83/120/464
f 76/124/465 82/119/465 83/120/465
f 75/15/466 81/121/466 82/119/466
f 74/36/467 80/122/467 143/123/467
f 73/108/468 79/111/468 80/122/468
f 72/109/469 71/127/469 77/125/469
f 70/126/470 76/124/470 77/125/470
f 69/13/471 75/15/471 76/124/471
f 201/128/472 73/108/472 74/36/472
f 67/130/473 66/131/473 203/129/473
f 64/133/474 70/126/474 71/127/474
f 63/11/475 69/13/475 70/126/475
f 62/134/476 68/35/476 139/38/476
f 62/134/477 61/148/477 202/136/477
f 59/141/478 65/132/478 204/142/478
f 58/144/479 64/133/479 65/132/479
f 57/9/480 63/11/480 64/133/480
f 56/145/481 62/134/481 137/135/481
f 55/147/482 61/148/482 62/134/482
f 55/147/483 54/149/483 60/143/483
f 54/149/484 53/151/484 59/141/484
f 213/150/485 58/144/485 59/141/485
f 133/153/486 50/155/486 56/145/486
f 49/154/487 55/147/487 56/145/487
f 48/156/488 54/149/488 55/147/488
f 48/156/489 47/157/489 53/151/489
f 47/157/490 46/159/490 214/158/490
f 45/5/491 51/7/491 214/158/491
f 130/160/492 44/161/492 50/155/492
f 44/161/493 43/163/493 49/154/493
f 199/162/494 48/156/494 49/154/494
f 41/164/495 146/167/495 199/162/495
f 40/166/496 39/2/496 45/5/496
f 129/168/497 33/169/497 44/161/497
f 33/169/498 34/170/498 43/163/498
f 34/170/499 35/173/499 200/171/499
f 36/172/500 18/175/500 200/171/500
f 37/174/501 40/166/501 18/175/501
f 37/174/502 38/3/502 39/2/502
f 1/46/503 129/45/503 130/176/503
f 19/232/504 336/266/504 335/269/504 17/223/504
f 3/177/505 130/176/505 133/196/505
f 5/197/506 133/196/506 135/198/506
f 9/204/508 137/301/508 139/205/508
f 13/207/509 11/206/509 139/205/509
f 15/209/510 13/207/510 141/208/510
f 17/223/511 15/209/511 143/210/511
f 16/216/512 195/275/512 196/225/512
f 198/229/513 197/474/513 4/230/513
f 19/232/514 147/300/514 149/233/514
f 21/234/515 149/233/515 151/235/515
f 23/236/516 151/235/516 153/237/516
f 24/180/517 226/89/517 227/243/517 26/181/517
f 27/239/518 25/238/518 153/237/518
f 27/239/519 29/241/519 341/268/519 340/251/519
f 29/241/520 27/239/520 155/240/520
f 31/43/521 29/241/521 157/242/521
f 197/474/522 198/229/522 20/178/522 148/195/522
f 102/93/523 108/81/523 109/470/523 103/87/523
f 146/167/545 47/157/545 48/156/545
f 198/229/546 223/231/546 224/178/546
f 195/275/547 16/216/547 222/262/547
f 200/171/548 18/175/548 41/164/548
f 195/275/549 223/231/549 4/230/549
f 146/167/550 40/166/550 46/159/550
f 202/136/551 204/142/551 66/131/551
f 203/129/552 65/132/552 71/127/552
f 208/72/553 111/75/553 117/280/553
f 205/71/554 120/61/554 121/62/554
f 212/83/555 113/70/555 114/68/555
f 211/73/556 119/63/556 120/61/556
f 212/83/557 210/82/557 112/74/557
f 211/73/558 208/72/558 118/64/558
f 206/80/559 114/68/559 115/69/559
f 213/150/560 51/7/560 57/9/560
f 11/206/708 332/254/708 331/260/708 9/204/708
f 10/214/749 8/213/749 218/270/749 219/255/749
usemtl Material
f 425/26/13 409/27/13 392/28/13 393/29/13 410/30/13
f 164/39/16 192/40/16 178/41/16 163/42/16
f 242/88/43 226/89/43 225/90/43 241/91/43
f 221/98/49 220/99/49 237/100/49 238/101/49
f 407/137/84 422/138/84 406/139/84 391/140/84
f 343/200/117 327/201/117 328/202/117 344/203/117
f 256/226/124 257/227/124 241/91/124 240/228/124
f 190/246/134 188/247/134 178/41/134 192/40/134
f 187/248/135 189/249/135 162/250/135
f 249/256/141 247/257/141 265/258/141 266/259/141
f 281/272/161 265/258/161 263/273/161 279/274/161
f 349/276/165 333/253/165 334/209/165 350/277/165
f 330/261/174 331/260/174 346/278/174 345/279/174
f 231/281/191 216/245/191 232/282/191
f 278/283/192 277/284/192 294/285/192 280/286/192
f 426/287/193 410/30/193 411/288/193 427/289/193
f 235/290/194 218/270/194 234/291/194
f 236/292/195 219/255/195 235/290/195
f 237/100/196 220/99/196 236/292/196
f 239/295/198 222/262/198 238/101/198
f 240/228/199 223/231/199 239/295/199
f 234/291/43 218/270/43 217/212/43 233/296/43
f 243/297/194 226/89/194 242/88/194
f 244/298/195 227/243/195 243/297/195
f 245/299/196 228/244/196 244/298/196
f 248/302/202 231/281/202 232/282/202
f 247/257/203 233/296/203 231/281/203
f 249/256/204 234/291/204 233/296/204
f 250/303/205 235/290/205 234/291/205
f 230/184/206 229/263/206 246/304/206 232/282/206
f 241/91/207 225/90/207 224/178/207 240/228/207
f 251/305/208 252/306/208 236/292/208 235/290/208
f 254/307/209 239/295/209 238/101/209
f 255/308/210 240/228/210 239/295/210
f 355/309/211 339/252/211 340/251/211 356/310/211
f 258/311/212 243/297/212 242/88/212
f 259/312/213 244/298/213 243/297/213
f 260/313/214 245/299/214 244/298/214
f 261/314/215 246/304/215 245/299/215
f 262/315/216 232/282/216 246/304/216
f 229/263/218 228/244/218 245/299/218 246/304/218
f 253/316/219 254/307/219 238/101/219 237/100/219
f 268/317/220 251/305/220 267/318/220
f 269/319/221 252/306/221 268/317/221
f 270/320/222 253/316/222 269/319/222
f 271/321/223 254/307/223 270/320/223
f 272/322/224 255/308/224 271/321/224
f 273/323/225 256/226/225 272/322/225
f 274/324/226 257/227/226 273/323/226
f 275/325/227 258/311/227 274/324/227
f 276/326/228 259/312/228 275/325/228
f 277/284/229 260/313/229 276/326/229
f 278/283/230 261/314/230 277/284/230
f 264/327/231 262/315/231 278/283/231
f 279/274/232 264/327/232 280/286/232
f 252/306/233 253/316/233 237/100/233 236/292/233
f 282/328/234 265/258/234 281/272/234
f 283/329/235 266/259/235 282/328/235
f 284/330/236 267/318/236 283/329/236
f 285/331/237 268/317/237 284/330/237
f 286/332/238 269/319/238 285/331/238
f 287/333/239 270/320/239 286/332/239
f 288/334/240 271/321/240 287/333/240
f 319/335/241 303/336/241 287/333/241 302/337/241
f 290/338/234 273/323/234 289/339/234
f 291/340/235 274/324/235 290/338/235
f 292/341/242 275/325/242 291/340/242
f 293/342/243 276/326/243 292/341/243
f 294/285/244 277/284/244 293/342/244
f 296/343/246 279/274/246 280/286/246
f 295/344/247 281/272/247 279/274/247
f 297/345/248 282/328/248 281/272/248
f 298/346/249 283/329/249 282/328/249
f 299/347/250 284/330/250 283/329/250
f 300/348/251 285/331/251 284/330/251
f 301/349/252 286/332/252 285/331/252
f 302/337/253 287/333/253 286/332/253
f 303/336/254 288/334/254 287/333/254
f 304/350/255 289/339/255 288/334/255
f 305/351/256 290/338/256 289/339/256
f 306/352/257 291/340/257 290/338/257
f 307/353/258 292/341/258 291/340/258
f 308/354/259 293/342/259 292/341/259
f 309/355/260 294/285/260 293/342/260
f 310/356/261 280/286/261 294/285/261
f 311/357/262 296/343/262 312/358/262
f 313/359/263 295/344/263 311/357/263
f 314/360/264 297/345/264 313/359/264
f 315/361/265 298/346/265 314/360/265
f 316/362/266 299/347/266 315/361/266
f 317/363/267 300/348/267 316/362/267
f 318/364/268 301/349/268 317/363/268
f 319/335/269 302/337/269 318/364/269
f 320/365/270 303/336/270 319/335/270
f 321/366/271 304/350/271 320/365/271
f 322/367/272 305/351/272 321/366/272
f 323/368/273 306/352/273 322/367/273
f 324/369/274 307/353/274 323/368/274
f 325/370/275 308/354/275 324/369/275
f 326/371/276 309/355/276 325/370/276
f 312/358/277 310/356/277 326/371/277
f 350/277/278 334/209/278 335/269/278 351/372/278
f 163/42/279 313/359/279 311/357/279
f 166/373/280 314/360/280 313/359/280
f 168/374/281 315/361/281 314/360/281
f 170/375/282 316/362/282 315/361/282
f 172/376/283 317/363/283 316/362/283
f 174/377/284 318/364/284 317/363/284
f 176/378/285 319/335/285 318/364/285
f 178/41/286 320/365/286 319/335/286
f 180/379/287 321/366/287 320/365/287
f 182/380/288 322/367/288 321/366/288
f 184/381/289 323/368/289 322/367/289
f 186/382/290 324/369/290 323/368/290
f 188/247/291 325/370/291 324/369/291
f 190/246/292 326/371/292 325/370/292
f 192/40/293 312/358/293 326/371/293
f 344/203/295 329/271/295 345/279/295
f 247/257/296 248/302/296 264/327/296 263/273/296 265/258/296
f 346/278/297 331/260/297 347/383/297
f 347/383/298 332/254/298 348/384/298
f 348/384/299 333/253/299 349/276/299
f 250/303/300 249/256/300 266/259/300 267/318/300
f 257/227/301 258/311/301 242/88/301 241/91/301
f 351/372/302 336/266/302 352/385/302
f 352/385/303 337/265/303 353/386/303
f 353/386/304 338/236/304 354/387/304
f 354/387/305 339/252/305 355/309/305
f 381/388/306 365/389/306 366/390/306 382/391/306
f 356/310/307 341/268/307 357/392/307
f 357/392/308 342/267/308 358/393/308
f 358/393/309 327/201/309 343/200/309
f 360/394/310 343/200/310 344/203/310
f 361/395/311 344/203/311 345/279/311
f 362/396/312 345/279/312 346/278/312
f 363/397/313 346/278/313 347/383/313
f 364/398/314 347/383/314 348/384/314
f 365/389/315 348/384/315 349/276/315
f 366/390/316 349/276/316 350/277/316
f 367/399/317 350/277/317 351/372/317
f 368/400/318 351/372/318 352/385/318
f 369/401/319 352/385/319 353/386/319
f 370/402/320 353/386/320 354/387/320
f 371/403/321 354/387/321 355/309/321
f 372/404/322 355/309/322 356/310/322
f 373/405/323 356/310/323 357/392/323
f 374/406/324 357/392/324 358/393/324
f 359/407/325 358/393/325 343/200/325
f 375/408/326 360/394/326 376/409/326
f 377/410/328 362/396/328 378/411/328
f 378/411/329 363/397/329 379/412/329
f 379/412/330 364/398/330 380/413/330
f 380/413/331 365/389/331 381/388/331
f 397/414/332 396/415/332 380/413/332 381/388/332
f 382/391/333 367/399/333 383/416/333
f 383/416/334 368/400/334 384/417/334
f 384/417/335 369/401/335 385/418/335
f 385/418/336 370/402/336 386/419/336
f 386/419/337 371/403/337 387/420/337
f 387/420/338 372/404/338 388/421/338
f 388/421/339 373/405/339 389/422/339
f 389/422/340 374/406/340 390/423/340
f 390/423/341 359/407/341 375/408/341
f 392/28/342 375/408/342 376/409/342
f 393/29/343 376/409/343 377/410/343
f 394/424/344 377/410/344 378/411/344
f 395/425/345 378/411/345 379/412/345
f 396/415/346 379/412/346 380/413/346
f 361/395/347 362/396/347 377/410/347 376/409/347
f 398/426/348 381/388/348 382/391/348
f 399/427/349 382/391/349 383/416/349
f 400/428/350 383/416/350 384/417/350
f 401/429/351 384/417/351 385/418/351
f 402/430/352 385/418/352 386/419/352
f 403/431/353 386/419/353 387/420/353
f 404/432/354 387/420/354 388/421/354
f 405/433/355 388/421/355 389/422/355
f 406/139/356 389/422/356 390/423/356
f 391/140/357 390/423/357 375/408/357
f 408/434/358 391/140/358 392/28/358
f 436/435/359 437/436/359 187/248/359 185/437/359
f 410/30/360 393/29/360 394/424/360
f 411/288/361 394/424/361 395/425/361
f 412/438/362 395/425/362 396/415/362
f 413/439/363 396/415/363 397/414/363
f 414/440/364 397/414/364 398/426/364
f 415/441/365 398/426/365 399/427/365
f 166/373/366 163/42/366 178/41/366 168/374/366
f 417/442/367 400/428/367 401/429/367
f 418/443/368 401/429/368 402/430/368
f 419/444/369 402/430/369 403/431/369
f 420/445/370 403/431/370 404/432/370
f 421/446/371 404/432/371 405/433/371
f 422/138/372 405/433/372 406/139/372
f 416/447/373 415/441/373 399/427/373 400/428/373
f 423/448/374 408/434/374 424/449/374
f 424/449/375 409/27/375 425/26/375
f 425/26/376 410/30/376 426/287/376
f 427/289/378 412/438/378 428/451/378
f 428/451/379 413/439/379 429/452/379
f 429/452/380 414/440/380 430/453/380
f 430/453/381 415/441/381 431/454/381
f 431/454/382 416/447/382 432/455/382
f 432/455/383 417/442/383 433/456/383
f 433/456/384 418/443/384 434/457/384
f 434/457/385 419/444/385 435/458/385
f 435/458/386 420/445/386 436/435/386
f 436/435/387 421/446/387 437/436/387
f 437/436/388 422/138/388 438/459/388
f 438/459/389 407/137/389 423/448/389
f 162/250/390 423/448/390 424/449/390
f 165/460/391 424/449/391 425/26/391
f 167/461/392 425/26/392 426/287/392
f 169/462/393 426/287/393 427/289/393
f 169/462/394 428/451/394 171/463/394
f 171/463/395 429/452/395 173/464/395
f 173/464/396 430/453/396 175/465/396
f 175/465/397 431/454/397 177/466/397
f 179/467/398 431/454/398 432/455/398
f 181/468/399 432/455/399 433/456/399
f 183/469/400 433/456/400 434/457/400
f 185/437/401 434/457/401 435/458/401
f 187/248/403 437/436/403 189/249/403
f 189/249/404 438/459/404 191/471/404
f 191/471/405 423/448/405 161/472/405
f 289/339/507 273/323/507 272/322/507 288/334/507
f 233/296/207 217/212/207 215/264/207 231/281/207
f 188/247/524 186/382/524 178/41/524
f 186/382/525 184/381/525 178/41/525
f 184/381/526 182/380/526 178/41/526
f 182/380/527 180/379/527 178/41/527
f 178/41/528 176/378/528 172/376/528
f 176/378/529 174/377/529 172/376/529
f 172/376/530 170/375/530 178/41/530
f 170/375/531 168/374/531 178/41/531
f 191/471/532 161/472/532 189/249/532
f 161/472/533 162/250/533 189/249/533
f 162/250/534 165/460/534 187/248/534
f 165/460/535 167/461/535 187/248/535
f 167/461/536 169/462/536 185/437/536
f 169/462/537 171/463/537 185/437/537
f 171/463/538 173/464/538 183/469/538
f 173/464/539 175/465/539 183/469/539
f 175/465/540 177/466/540 181/468/540
f 177/466/541 179/467/541 181/468/541
f 181/468/542 183/469/542 175/465/542
f 183/469/543 185/437/543 171/463/543
f 185/437/544 187/248/544 167/461/544
f 231/281/561 215/264/561 216/245/561
f 235/290/562 219/255/562 218/270/562
f 236/292/563 220/99/563 219/255/563
f 238/101/564 222/262/564 221/98/564
f 239/295/565 223/231/565 222/262/565
f 240/228/566 224/178/566 223/231/566
f 243/297/562 227/243/562 226/89/562
f 244/298/563 228/244/563 227/243/563
f 232/282/567 216/245/567 230/184/567
f 248/302/568 247/257/568 231/281/568
f 247/257/569 249/256/569 233/296/569
f 249/256/570 250/303/570 234/291/570
f 250/303/571 251/305/571 235/290/571
f 254/307/572 255/308/572 239/295/572
f 255/308/573 256/226/573 240/228/573
f 258/311/574 259/312/574 243/297/574
f 259/312/575 260/313/575 244/298/575
f 260/313/576 261/314/576 245/299/576
f 261/314/577 262/315/577 246/304/577
f 262/315/578 248/302/578 232/282/578
f 267/318/579 251/305/579 250/303/579
f 268/317/580 252/306/580 251/305/580
f 269/319/581 253/316/581 252/306/581
f 270/320/582 254/307/582 253/316/582
f 271/321/583 255/308/583 254/307/583
f 272/322/584 256/226/584 255/308/584
f 273/323/585 257/227/585 256/226/585
f 274/324/586 258/311/586 257/227/586
f 275/325/587 259/312/587 258/311/587
f 276/326/588 260/313/588 259/312/588
f 277/284/589 261/314/589 260/313/589
f 278/283/590 262/315/590 261/314/590
f 264/327/591 248/302/591 262/315/591
f 279/274/592 263/273/592 264/327/592
f 282/328/593 266/259/593 265/258/593
f 283/329/594 267/318/594 266/259/594
f 284/330/595 268/317/595 267/318/595
f 285/331/596 269/319/596 268/317/596
f 286/332/597 270/320/597 269/319/597
f 287/333/598 271/321/598 270/320/598
f 288/334/599 272/322/599 271/321/599
f 290/338/593 274/324/593 273/323/593
f 291/340/600 275/325/600 274/324/600
f 292/341/601 276/326/601 275/325/601
f 293/342/602 277/284/602 276/326/602
f 280/286/603 264/327/603 278/283/603
f 296/343/604 295/344/604 279/274/604
f 295/344/605 297/345/605 281/272/605
f 297/345/606 298/346/606 282/328/606
f 298/346/607 299/347/607 283/329/607
f 299/347/608 300/348/608 284/330/608
f 300/348/609 301/349/609 285/331/609
f 301/349/610 302/337/610 286/332/610
f 164/39/611 163/42/611 311/357/611 312/358/611
f 303/336/612 304/350/612 288/334/612
f 304/350/613 305/351/613 289/339/613
f 305/351/614 306/352/614 290/338/614
f 306/352/615 307/353/615 291/340/615
f 307/353/616 308/354/616 292/341/616
f 308/354/617 309/355/617 293/342/617
f 309/355/618 310/356/618 294/285/618
f 310/356/619 296/343/619 280/286/619
f 311/357/620 295/344/620 296/343/620
f 313/359/621 297/345/621 295/344/621
f 314/360/622 298/346/622 297/345/622
f 315/361/623 299/347/623 298/346/623
f 316/362/624 300/348/624 299/347/624
f 317/363/625 301/349/625 300/348/625
f 318/364/626 302/337/626 301/349/626
f 320/365/627 304/350/627 303/336/627
f 321/366/628 305/351/628 304/350/628
f 322/367/629 306/352/629 305/351/629
f 323/368/630 307/353/630 306/352/630
f 324/369/631 308/354/631 307/353/631
f 325/370/632 309/355/632 308/354/632
f 326/371/633 310/356/633 309/355/633
f 312/358/634 296/343/634 310/356/634
f 163/42/635 166/373/635 313/359/635
f 166/373/636 168/374/636 314/360/636
f 168/374/637 170/375/637 315/361/637
f 170/375/638 172/376/638 316/362/638
f 172/376/639 174/377/639 317/363/639
f 174/377/640 176/378/640 318/364/640
f 176/378/641 178/41/641 319/335/641
f 178/41/642 180/379/642 320/365/642
f 180/379/643 182/380/643 321/366/643
f 182/380/644 184/381/644 322/367/644
f 184/381/645 186/382/645 323/368/645
f 186/382/646 188/247/646 324/369/646
f 188/247/647 190/246/647 325/370/647
f 190/246/648 192/40/648 326/371/648
f 192/40/649 164/39/649 312/358/649
f 344/203/650 328/202/650 329/271/650
f 345/279/651 329/271/651 330/261/651
f 347/383/652 331/260/652 332/254/652
f 348/384/653 332/254/653 333/253/653
f 351/372/654 335/269/654 336/266/654
f 352/385/655 336/266/655 337/265/655
f 353/386/656 337/265/656 338/236/656
f 354/387/657 338/236/657 339/252/657
f 356/310/658 340/251/658 341/268/658
f 357/392/659 341/268/659 342/267/659
f 358/393/660 342/267/660 327/201/660
f 360/394/661 359/407/661 343/200/661
f 361/395/662 360/394/662 344/203/662
f 362/396/663 361/395/663 345/279/663
f 363/397/664 362/396/664 346/278/664
f 364/398/665 363/397/665 347/383/665
f 365/389/666 364/398/666 348/384/666
f 366/390/667 365/389/667 349/276/667
f 367/399/668 366/390/668 350/277/668
f 368/400/669 367/399/669 351/372/669
f 369/401/670 368/400/670 352/385/670
f 370/402/671 369/401/671 353/386/671
f 371/403/672 370/402/672 354/387/672
f 372/404/673 371/403/673 355/309/673
f 373/405/674 372/404/674 356/310/674
f 374/406/675 373/405/675 357/392/675
f 359/407/676 374/406/676 358/393/676
f 375/408/677 359/407/677 360/394/677
f 376/409/678 360/394/678 361/395/678
f 378/411/679 362/396/679 363/397/679
f 379/412/680 363/397/680 364/398/680
f 380/413/681 364/398/681 365/389/681
f 382/391/682 366/390/682 367/399/682
f 383/416/683 367/399/683 368/400/683
f 384/417/684 368/400/684 369/401/684
f 385/418/685 369/401/685 370/402/685
f 386/419/686 370/402/686 371/403/686
f 387/420/687 371/403/687 372/404/687
f 388/421/688 372/404/688 373/405/688
f 389/422/689 373/405/689 374/406/689
f 390/423/690 374/406/690 359/407/690
f 392/28/691 391/140/691 375/408/691
f 393/29/692 392/28/692 376/409/692
f 394/424/693 393/29/693 377/410/693
f 395/425/694 394/424/694 378/411/694
f 396/415/695 395/425/695 379/412/695
f 398/426/696 397/414/696 381/388/696
f 399/427/697 398/426/697 382/391/697
f 400/428/698 399/427/698 383/416/698
f 401/429/699 400/428/699 384/417/699
f 402/430/700 401/429/700 385/418/700
f 403/431/701 402/430/701 386/419/701
f 404/432/702 403/431/702 387/420/702
f 405/433/703 404/432/703 388/421/703
f 406/139/704 405/433/704 389/422/704
f 391/140/705 406/139/705 390/423/705
f 408/434/706 407/137/706 391/140/706
f 409/27/707 408/434/707 392/28/707
f 411/288/709 410/30/709 394/424/709
f 412/438/710 411/288/710 395/425/710
f 413/439/711 412/438/711 396/415/711
f 414/440/712 413/439/712 397/414/712
f 415/441/713 414/440/713 398/426/713
f 417/442/714 416/447/714 400/428/714
f 418/443/715 417/442/715 401/429/715
f 419/444/716 418/443/716 402/430/716
f 420/445/717 419/444/717 403/431/717
f 421/446/718 420/445/718 404/432/718
f 422/138/719 421/446/719 405/433/719
f 423/448/720 407/137/720 408/434/720
f 424/449/721 408/434/721 409/27/721
f 427/289/722 411/288/722 412/438/722
f 428/451/723 412/438/723 413/439/723
f 429/452/724 413/439/724 414/440/724
f 430/453/725 414/440/725 415/441/725
f 431/454/726 415/441/726 416/447/726
f 432/455/727 416/447/727 417/442/727
f 433/456/728 417/442/728 418/443/728
f 434/457/729 418/443/729 419/444/729
f 435/458/730 419/444/730 420/445/730
f 436/435/731 420/445/731 421/446/731
f 437/436/732 421/446/732 422/138/732
f 438/459/733 422/138/733 407/137/733
f 162/250/734 161/472/734 423/448/734
f 165/460/735 162/250/735 424/449/735
f 167/461/736 165/460/736 425/26/736
f 169/462/737 167/461/737 426/287/737
f 169/462/738 427/289/738 428/451/738
f 171/463/739 428/451/739 429/452/739
f 173/464/740 429/452/740 430/453/740
f 175/465/741 430/453/741 431/454/741
f 179/467/742 177/466/742 431/454/742
f 181/468/743 179/467/743 432/455/743
f 183/469/744 181/468/744 433/456/744
f 185/437/745 183/469/745 434/457/745
f 185/437/746 435/458/746 436/435/746
f 189/249/747 437/436/747 438/459/747
f 191/471/748 438/459/748 423/448/748
